CooperHewitt-ThinItalic.ufo
<glyph name="exclam" format="1">
  <advance width="180"/>
  <unicode hex="0021"/>
  <outline>
    <contour>
      <point x="133" y="780" type="line"/>
      <point x="57" y="175" type="line"/>
      <point x="71" y="175" type="line"/>
      <point x="153" y="780" type="line"/>
    </contour>
    <contour>
      <point x="66" y="40" type="line"/>
      <point x="26" y="40" type="line"/>
      <point x="21" y="0" type="line"/>
      <point x="61" y="0" type="line"/>
    </contour>
  </outline>
</glyph>
<glyph name="quotedbl" format="1">
  <advance width="280"/>
  <unicode hex="0022"/>
  <outline>
    <contour>
      <point x="133" y="780" type="line"/>
      <point x="105" y="530" type="line"/>
      <point x="115" y="530" type="line"/>
      <point x="153" y="780" type="line"/>
    </contour>
    <contour>
      <point x="233" y="780" type="line"/>
      <point x="205" y="530" type="line"/>
      <point x="215" y="530" type="line"/>
      <point x="253" y="780" type="line"/>
    </contour>
  </outline>
</glyph>
<glyph name="numbersign" format="1">
  <advance width="600"/>
  <unicode hex="0023"/>
  <outline>
    <contour>
      <point x="350" y="780" type="line"/>
      <point x="330" y="780" type="line"/>
      <point x="237" y="530" type="line"/>
      <point x="121" y="530" type="line"/>
      <point x="118" y="510" type="line"/>
      <point x="230" y="510" type="line"/>
      <point x="141" y="270" type="line"/>
      <point x="23" y="270" type="line"/>
      <point x="20" y="250" type="line"/>
      <point x="133" y="250" type="line"/>
      <point x="41" y="0" type="line"/>
      <point x="61" y="0" type="line"/>
      <point x="153" y="250" type="line"/>
      <point x="346" y="250" type="line"/>
      <point x="254" y="0" type="line"/>
      <point x="274" y="0" type="line"/>
      <point x="366" y="250" type="line"/>
      <point x="483" y="250" type="line"/>
      <point x="486" y="270" type="line"/>
      <point x="374" y="270" type="line"/>
      <point x="463" y="510" type="line"/>
      <point x="581" y="510" type="line"/>
      <point x="584" y="530" type="line"/>
      <point x="470" y="530" type="line"/>
      <point x="563" y="780" type="line"/>
      <point x="543" y="780" type="line"/>
      <point x="450" y="530" type="line"/>
      <point x="257" y="530" type="line"/>
    </contour>
    <contour>
      <point x="250" y="510" type="line"/>
      <point x="443" y="510" type="line"/>
      <point x="354" y="270" type="line"/>
      <point x="161" y="270" type="line"/>
    </contour>
  </outline>
</glyph>
<glyph name="dollar" format="1">
  <advance width="600"/>
  <unicode hex="0024"/>
  <outline>
    <contour>
      <point x="296" y="411" type="line"/>
      <point x="173" y="426"/>
      <point x="122" y="459"/>
      <point x="122" y="527" type="curve" smooth="yes"/>
      <point x="122" y="645"/>
      <point x="240" y="699"/>
      <point x="341" y="700" type="curve" smooth="yes"/>
      <point x="344" y="700" type="line" smooth="yes"/>
      <point x="365" y="700"/>
      <point x="384" y="698"/>
      <point x="401" y="695" type="curve"/>
    </contour>
    <contour>
      <point x="475" y="840" type="line"/>
      <point x="455" y="840" type="line"/>
      <point x="408" y="714" type="line"/>
      <point x="389" y="718"/>
      <point x="367" y="720"/>
      <point x="344" y="720" type="curve" smooth="yes"/>
      <point x="221" y="720"/>
      <point x="117" y="655"/>
      <point x="103" y="553" type="curve" smooth="yes"/>
      <point x="102" y="545" type="line" smooth="yes"/>
      <point x="91" y="461"/>
      <point x="141" y="410"/>
      <point x="289" y="392" type="curve"/>
      <point x="177" y="91" type="line"/>
      <point x="100" y="117"/>
      <point x="65" y="181"/>
      <point x="81" y="271" type="curve"/>
      <point x="61" y="271" type="line"/>
      <point x="59" y="255" type="line" smooth="yes"/>
      <point x="49" y="178"/>
      <point x="81" y="101"/>
      <point x="170" y="72" type="curve"/>
      <point x="121" y="-60" type="line"/>
      <point x="141" y="-60" type="line"/>
      <point x="188" y="67" type="line"/>
      <point x="210" y="62"/>
      <point x="231" y="60"/>
      <point x="258" y="60" type="curve" smooth="yes"/>
      <point x="385" y="60"/>
      <point x="492" y="122"/>
      <point x="506" y="233" type="curve" smooth="yes"/>
      <point x="507" y="241" type="line" smooth="yes"/>
      <point x="519" y="337"/>
      <point x="463" y="393"/>
      <point x="315" y="409" type="curve"/>
      <point x="419" y="690" type="line"/>
      <point x="498" y="667"/>
      <point x="533" y="614"/>
      <point x="516" y="498" type="curve"/>
      <point x="536" y="498" type="line"/>
      <point x="539" y="522" type="line" smooth="yes"/>
      <point x="551" y="619"/>
      <point x="516" y="683"/>
      <point x="426" y="709" type="curve"/>
    </contour>
    <contour>
      <point x="259" y="80" type="line" smooth="yes"/>
      <point x="235" y="80"/>
      <point x="213" y="82"/>
      <point x="195" y="86" type="curve"/>
      <point x="308" y="390" type="line"/>
      <point x="427" y="375"/>
      <point x="488" y="346"/>
      <point x="488" y="257" type="curve" smooth="yes"/>
      <point x="488" y="145"/>
      <point x="379" y="80"/>
      <point x="262" y="80" type="curve" smooth="yes"/>
    </contour>
  </outline>
</glyph>
<glyph name="ampersand" format="1">
  <advance width="640"/>
  <unicode hex="0026"/>
  <outline>
    <contour>
      <point x="227" y="-6" type="curve" smooth="yes"/>
      <point x="315" y="-6"/>
      <point x="396" y="25"/>
      <point x="466" y="110" type="curve"/>
      <point x="556" y="0" type="line"/>
      <point x="581" y="0" type="line"/>
      <point x="477" y="127" type="line"/>
      <point x="519" y="189"/>
      <point x="552" y="270"/>
      <point x="568" y="395" type="curve"/>
      <point x="548" y="395" type="line"/>
      <point x="547" y="387" type="line" smooth="yes"/>
      <point x="534" y="279"/>
      <point x="502" y="200"/>
      <point x="464" y="143" type="curve"/>
      <point x="238" y="420" type="line"/>
      <point x="335" y="480"/>
      <point x="437" y="535"/>
      <point x="449" y="631" type="curve" smooth="yes"/>
      <point x="450" y="639" type="line" smooth="yes"/>
      <point x="461" y="724"/>
      <point x="405" y="786"/>
      <point x="295" y="786" type="curve" smooth="yes"/>
      <point x="185" y="786"/>
      <point x="130" y="719"/>
      <point x="120" y="639" type="curve" smooth="yes"/>
      <point x="119" y="631" type="line" smooth="yes"/>
      <point x="109" y="553"/>
      <point x="148" y="499"/>
      <point x="209" y="424" type="curve"/>
      <point x="128" y="373"/>
      <point x="50" y="315"/>
      <point x="37" y="214" type="curve" smooth="yes"/>
      <point x="36" y="206" type="line" smooth="yes"/>
      <point x="19" y="71"/>
      <point x="92" y="-6"/>
    </contour>
    <contour>
      <point x="224" y="14" type="line" smooth="yes"/>
      <point x="100" y="14"/>
      <point x="41" y="88"/>
      <point x="56" y="206" type="curve" smooth="yes"/>
      <point x="57" y="214" type="line" smooth="yes"/>
      <point x="69" y="307"/>
      <point x="143" y="360"/>
      <point x="221" y="410" type="curve"/>
      <point x="453" y="126" type="line"/>
      <point x="389" y="41"/>
      <point x="304" y="14"/>
      <point x="230" y="14" type="curve" smooth="yes"/>
    </contour>
    <contour>
      <point x="140" y="639" type="line" smooth="yes"/>
      <point x="149" y="709"/>
      <point x="199" y="766"/>
      <point x="292" y="766" type="curve" smooth="yes"/>
      <point x="298" y="766" type="line" smooth="yes"/>
      <point x="391" y="766"/>
      <point x="439" y="709"/>
      <point x="430" y="639" type="curve" smooth="yes"/>
      <point x="429" y="631" type="line" smooth="yes"/>
      <point x="418" y="543"/>
      <point x="320" y="492"/>
      <point x="226" y="434" type="curve"/>
      <point x="163" y="509"/>
      <point x="130" y="556"/>
      <point x="139" y="631" type="curve" smooth="yes"/>
    </contour>
  </outline>
</glyph>
<glyph name="parenleft" format="1">
  <advance width="300"/>
  <unicode hex="0028"/>
  <outline>
    <contour>
      <point x="62" y="348" type="line" smooth="yes"/>
      <point x="33" y="116"/>
      <point x="90" y="-9"/>
      <point x="162" y="-120" type="curve"/>
      <point x="185" y="-120" type="line"/>
      <point x="106" y="-1"/>
      <point x="55" y="129"/>
      <point x="82" y="348" type="curve" smooth="yes"/>
      <point x="85" y="372" type="line" smooth="yes"/>
      <point x="112" y="591"/>
      <point x="205" y="726"/>
      <point x="311" y="840" type="curve"/>
      <point x="288" y="840" type="line"/>
      <point x="189" y="734"/>
      <point x="94" y="604"/>
      <point x="65" y="372" type="curve" smooth="yes"/>
    </contour>
  </outline>
</glyph>
<glyph name="parenright" format="1">
  <advance width="300"/>
  <unicode hex="0029"/>
  <outline>
    <contour>
      <point x="234" y="372" type="line" smooth="yes"/>
      <point x="263" y="604"/>
      <point x="206" y="729"/>
      <point x="134" y="840" type="curve"/>
      <point x="111" y="840" type="line"/>
      <point x="190" y="721"/>
      <point x="241" y="591"/>
      <point x="214" y="372" type="curve" smooth="yes"/>
      <point x="211" y="348" type="line" smooth="yes"/>
      <point x="184" y="129"/>
      <point x="91" y="-6"/>
      <point x="-15" y="-120" type="curve"/>
      <point x="8" y="-120" type="line"/>
      <point x="107" y="-14"/>
      <point x="202" y="116"/>
      <point x="231" y="348" type="curve" smooth="yes"/>
    </contour>
  </outline>
</glyph>
<glyph name="asterisk" format="1">
  <advance width="380"/>
  <unicode hex="002A"/>
  <outline>
    <contour>
      <point x="236" y="800" type="line"/>
      <point x="216" y="650" type="line"/>
      <point x="236" y="650" type="line"/>
      <point x="256" y="800" type="line"/>
    </contour>
    <contour>
      <point x="104" y="468" type="line"/>
      <point x="208" y="589" type="line"/>
      <point x="194" y="602" type="line"/>
      <point x="90" y="481" type="line"/>
    </contour>
    <contour>
      <point x="53" y="668" type="line"/>
      <point x="190" y="622" type="line"/>
      <point x="199" y="640" type="line"/>
      <point x="62" y="686" type="line"/>
    </contour>
    <contour>
      <point x="317" y="479" type="line"/>
      <point x="246" y="601" type="line"/>
      <point x="229" y="590" type="line"/>
      <point x="300" y="468" type="line"/>
    </contour>
    <contour>
      <point x="400" y="686" type="line"/>
      <point x="251" y="640" type="line"/>
      <point x="254" y="621" type="line"/>
      <point x="403" y="667" type="line"/>
    </contour>
  </outline>
</glyph>
<glyph name="plus" format="1">
  <advance width="600"/>
  <unicode hex="002B"/>
  <outline>
    <contour>
      <point x="324" y="640" type="line"/>
      <point x="292" y="400" type="line"/>
      <point x="51" y="400" type="line"/>
      <point x="48" y="380" type="line"/>
      <point x="289" y="380" type="line"/>
      <point x="257" y="140" type="line"/>
      <point x="277" y="140" type="line"/>
      <point x="309" y="380" type="line"/>
      <point x="548" y="380" type="line"/>
      <point x="551" y="400" type="line"/>
      <point x="312" y="400" type="line"/>
      <point x="344" y="640" type="line"/>
    </contour>
  </outline>
</glyph>
<glyph name="hyphen" format="1">
  <advance width="320"/>
  <unicode hex="002D"/>
  <outline>
    <contour>
      <point x="44" y="330" type="line"/>
      <point x="264" y="330" type="line"/>
      <point x="267" y="350" type="line"/>
      <point x="47" y="350" type="line"/>
    </contour>
  </outline>
</glyph>
<glyph name="period" format="1">
  <advance width="180"/>
  <unicode hex="002E"/>
  <outline>
    <contour>
      <point x="66" y="40" type="line"/>
      <point x="26" y="40" type="line"/>
      <point x="21" y="0" type="line"/>
      <point x="61" y="0" type="line"/>
    </contour>
  </outline>
</glyph>
<glyph name="slash" format="1">
  <advance width="300"/>
  <unicode hex="002F"/>
  <outline>
    <contour>
      <point x="336" y="840" type="line"/>
      <point x="316" y="840" type="line"/>
      <point x="-40" y="-120" type="line"/>
      <point x="-20" y="-120" type="line"/>
    </contour>
  </outline>
</glyph>
<glyph name="zero" format="1">
  <advance width="600"/>
  <unicode hex="0030"/>
  <outline>
    <contour>
      <point x="254" y="14" type="line" smooth="yes"/>
      <point x="121" y="14"/>
      <point x="52" y="80"/>
      <point x="71" y="229" type="curve" smooth="yes"/>
      <point x="111" y="536" type="line" smooth="yes"/>
      <point x="134" y="711"/>
      <point x="219" y="766"/>
      <point x="344" y="766" type="curve" smooth="yes"/>
      <point x="350" y="766" type="line" smooth="yes"/>
      <point x="483" y="766"/>
      <point x="552" y="700"/>
      <point x="533" y="551" type="curve" smooth="yes"/>
      <point x="493" y="244" type="line" smooth="yes"/>
      <point x="470" y="69"/>
      <point x="385" y="14"/>
      <point x="260" y="14" type="curve" smooth="yes"/>
    </contour>
    <contour>
      <point x="257" y="-6" type="curve" smooth="yes"/>
      <point x="411" y="-6"/>
      <point x="490" y="69"/>
      <point x="512" y="237" type="curve" smooth="yes"/>
      <point x="553" y="552" type="line" smooth="yes"/>
      <point x="572" y="701"/>
      <point x="503" y="786"/>
      <point x="347" y="786" type="curve" smooth="yes"/>
      <point x="193" y="786"/>
      <point x="114" y="711"/>
      <point x="92" y="543" type="curve" smooth="yes"/>
      <point x="51" y="228" type="line" smooth="yes"/>
      <point x="32" y="79"/>
      <point x="101" y="-6"/>
    </contour>
  </outline>
</glyph>
<glyph name="one" format="1">
  <advance width="600"/>
  <unicode hex="0031"/>
  <outline>
    <contour>
      <point x="490" y="0" type="line"/>
      <point x="493" y="20" type="line"/>
      <point x="273" y="20" type="line"/>
      <point x="374" y="785" type="line"/>
      <point x="359" y="785" type="line"/>
      <point x="103" y="627" type="line"/>
      <point x="113" y="609" type="line"/>
      <point x="350" y="755" type="line"/>
      <point x="253" y="20" type="line"/>
      <point x="34" y="20" type="line"/>
      <point x="31" y="0" type="line"/>
    </contour>
  </outline>
</glyph>
<glyph name="two" format="1">
  <advance width="600"/>
  <unicode hex="0032"/>
  <outline>
    <contour>
      <point x="158" y="20" type="line"/>
      <point x="48" y="19" type="line"/>
      <point x="426" y="367" type="line" smooth="yes"/>
      <point x="524" y="458"/>
      <point x="551" y="490"/>
      <point x="561" y="566" type="curve" smooth="yes"/>
      <point x="564" y="590" type="line" smooth="yes"/>
      <point x="579" y="708"/>
      <point x="479" y="786"/>
      <point x="349" y="786" type="curve" smooth="yes"/>
      <point x="183" y="786"/>
      <point x="106" y="699"/>
      <point x="87" y="544" type="curve" smooth="yes"/>
      <point x="84" y="520" type="line"/>
      <point x="104" y="520" type="line"/>
      <point x="121" y="681"/>
      <point x="183" y="766"/>
      <point x="345" y="766" type="curve" smooth="yes"/>
      <point x="353" y="766" type="line" smooth="yes"/>
      <point x="466" y="766"/>
      <point x="556" y="697"/>
      <point x="543" y="590" type="curve" smooth="yes"/>
      <point x="540" y="566" type="line" smooth="yes"/>
      <point x="531" y="497"/>
      <point x="503" y="462"/>
      <point x="415" y="381" type="curve" smooth="yes"/>
      <point x="17" y="15" type="line"/>
      <point x="15" y="0" type="line"/>
      <point x="485" y="0" type="line"/>
      <point x="488" y="20" type="line"/>
    </contour>
  </outline>
</glyph>
<glyph name="three" format="1">
  <advance width="600"/>
  <unicode hex="0033"/>
  <outline>
    <contour>
      <point x="538" y="568" type="line" smooth="yes"/>
      <point x="525" y="465"/>
      <point x="442" y="408"/>
      <point x="325" y="408" type="curve" smooth="yes"/>
      <point x="204" y="408" type="line"/>
      <point x="201" y="388" type="line"/>
      <point x="325" y="388" type="line" smooth="yes"/>
      <point x="452" y="388"/>
      <point x="512" y="328"/>
      <point x="497" y="212" type="curve" smooth="yes"/>
      <point x="494" y="188" type="line" smooth="yes"/>
      <point x="479" y="72"/>
      <point x="385" y="14"/>
      <point x="261" y="14" type="curve" smooth="yes"/>
      <point x="253" y="14" type="line" smooth="yes"/>
      <point x="109" y="14"/>
      <point x="37" y="88"/>
      <point x="63" y="250" type="curve"/>
      <point x="43" y="250" type="line"/>
      <point x="40" y="226" type="line" smooth="yes"/>
      <point x="22" y="80"/>
      <point x="92" y="-6"/>
      <point x="257" y="-6" type="curve" smooth="yes"/>
      <point x="392" y="-6"/>
      <point x="498" y="53"/>
      <point x="515" y="188" type="curve" smooth="yes"/>
      <point x="518" y="212" type="line" smooth="yes"/>
      <point x="532" y="322"/>
      <point x="473" y="388"/>
      <point x="380" y="398" type="curve"/>
      <point x="472" y="408"/>
      <point x="547" y="469"/>
      <point x="559" y="568" type="curve" smooth="yes"/>
      <point x="562" y="592" type="line" smooth="yes"/>
      <point x="577" y="714"/>
      <point x="479" y="786"/>
      <point x="349" y="786" type="curve" smooth="yes"/>
      <point x="183" y="786"/>
      <point x="106" y="699"/>
      <point x="87" y="544" type="curve" smooth="yes"/>
      <point x="84" y="520" type="line"/>
      <point x="104" y="520" type="line"/>
      <point x="121" y="681"/>
      <point x="183" y="766"/>
      <point x="345" y="766" type="curve" smooth="yes"/>
      <point x="353" y="766" type="line" smooth="yes"/>
      <point x="466" y="766"/>
      <point x="554" y="695"/>
      <point x="541" y="592" type="curve" smooth="yes"/>
    </contour>
  </outline>
</glyph>
<glyph name="four" format="1">
  <advance width="600"/>
  <unicode hex="0034"/>
  <outline>
    <contour>
      <point x="361" y="0" type="line"/>
      <point x="391" y="230" type="line"/>
      <point x="540" y="230" type="line"/>
      <point x="543" y="250" type="line"/>
      <point x="394" y="250" type="line"/>
      <point x="464" y="780" type="line"/>
      <point x="439" y="780" type="line"/>
      <point x="23" y="245" type="line"/>
      <point x="21" y="230" type="line"/>
      <point x="371" y="230" type="line"/>
      <point x="341" y="0" type="line"/>
    </contour>
    <contour>
      <point x="442" y="753" type="line"/>
      <point x="420" y="600" type="line"/>
      <point x="374" y="250" type="line"/>
      <point x="163" y="250" type="line"/>
      <point x="50" y="249" type="line"/>
    </contour>
  </outline>
</glyph>
<glyph name="five" format="1">
  <advance width="600"/>
  <unicode hex="0035"/>
  <outline>
    <contour>
      <point x="312" y="466" type="line" smooth="yes"/>
      <point x="436" y="466"/>
      <point x="519" y="384"/>
      <point x="503" y="252" type="curve" smooth="yes"/>
      <point x="500" y="228" type="line" smooth="yes"/>
      <point x="483" y="96"/>
      <point x="385" y="14"/>
      <point x="261" y="14" type="curve" smooth="yes"/>
      <point x="253" y="14" type="line" smooth="yes"/>
      <point x="109" y="14"/>
      <point x="37" y="88"/>
      <point x="63" y="250" type="curve"/>
      <point x="43" y="250" type="line"/>
      <point x="40" y="226" type="line" smooth="yes"/>
      <point x="22" y="80"/>
      <point x="92" y="-6"/>
      <point x="257" y="-6" type="curve" smooth="yes"/>
      <point x="392" y="-6"/>
      <point x="502" y="78"/>
      <point x="521" y="228" type="curve" smooth="yes"/>
      <point x="524" y="252" type="line" smooth="yes"/>
      <point x="543" y="402"/>
      <point x="443" y="486"/>
      <point x="308" y="486" type="curve" smooth="yes"/>
      <point x="198" y="486"/>
      <point x="127" y="444"/>
      <point x="89" y="380" type="curve"/>
      <point x="155" y="760" type="line"/>
      <point x="580" y="760" type="line"/>
      <point x="583" y="780" type="line"/>
      <point x="138" y="780" type="line"/>
      <point x="61" y="339" type="line"/>
      <point x="80" y="333" type="line"/>
      <point x="124" y="421"/>
      <point x="193" y="466"/>
      <point x="304" y="466" type="curve" smooth="yes"/>
    </contour>
  </outline>
</glyph>
<glyph name="six" format="1">
  <advance width="600"/>
  <unicode hex="0036"/>
  <outline>
    <contour>
      <point x="564" y="786" type="line"/>
      <point x="441" y="786"/>
      <point x="312" y="741"/>
      <point x="203" y="617" type="curve" smooth="yes"/>
      <point x="105" y="506"/>
      <point x="65" y="382"/>
      <point x="50" y="265" type="curve" smooth="yes"/>
      <point x="49" y="257" type="line" smooth="yes"/>
      <point x="28" y="87"/>
      <point x="124" y="-6"/>
      <point x="262" y="-6" type="curve" smooth="yes"/>
      <point x="397" y="-6"/>
      <point x="507" y="78"/>
      <point x="526" y="228" type="curve" smooth="yes"/>
      <point x="529" y="252" type="line" smooth="yes"/>
      <point x="548" y="402"/>
      <point x="453" y="486"/>
      <point x="318" y="486" type="curve" smooth="yes"/>
      <point x="215" y="486"/>
      <point x="137" y="432"/>
      <point x="88" y="360" type="curve"/>
      <point x="111" y="439"/>
      <point x="150" y="528"/>
      <point x="217" y="605" type="curve" smooth="yes"/>
      <point x="317" y="719"/>
      <point x="443" y="766"/>
      <point x="561" y="766" type="curve"/>
    </contour>
    <contour>
      <point x="79" y="314" type="curve"/>
      <point x="124" y="396"/>
      <point x="208" y="466"/>
      <point x="314" y="466" type="curve" smooth="yes"/>
      <point x="322" y="466" type="line" smooth="yes"/>
      <point x="446" y="466"/>
      <point x="525" y="385"/>
      <point x="508" y="252" type="curve" smooth="yes"/>
      <point x="505" y="228" type="line" smooth="yes"/>
      <point x="488" y="96"/>
      <point x="390" y="14"/>
      <point x="266" y="14" type="curve" smooth="yes"/>
      <point x="258" y="14" type="line" smooth="yes"/>
      <point x="146" y="14"/>
      <point x="66" y="88"/>
      <point x="66" y="210" type="curve" smooth="yes"/>
      <point x="66" y="254"/>
      <point x="74" y="291"/>
    </contour>
  </outline>
</glyph>
<glyph name="seven" format="1">
  <advance width="600"/>
  <unicode hex="0037"/>
  <outline>
    <contour>
      <point x="86" y="500" type="line"/>
      <point x="106" y="500" type="line"/>
      <point x="140" y="760" type="line"/>
      <point x="450" y="760" type="line"/>
      <point x="567" y="761" type="line"/>
      <point x="152" y="0" type="line"/>
      <point x="174" y="0" type="line"/>
      <point x="591" y="765" type="line"/>
      <point x="593" y="780" type="line"/>
      <point x="123" y="780" type="line"/>
    </contour>
  </outline>
</glyph>
<glyph name="eight" format="1">
  <advance width="600"/>
  <unicode hex="0038"/>
  <outline>
    <contour>
      <point x="562" y="592" type="line" smooth="yes"/>
      <point x="578" y="714"/>
      <point x="474" y="786"/>
      <point x="344" y="786" type="curve" smooth="yes"/>
      <point x="209" y="786"/>
      <point x="109" y="720"/>
      <point x="94" y="598" type="curve" smooth="yes"/>
      <point x="91" y="574" type="line" smooth="yes"/>
      <point x="79" y="479"/>
      <point x="129" y="414"/>
      <point x="211" y="398" type="curve"/>
      <point x="117" y="383"/>
      <point x="53" y="329"/>
      <point x="39" y="219" type="curve" smooth="yes"/>
      <point x="36" y="195" type="line" smooth="yes"/>
      <point x="19" y="60"/>
      <point x="122" y="-6"/>
      <point x="257" y="-6" type="curve" smooth="yes"/>
      <point x="392" y="-6"/>
      <point x="498" y="53"/>
      <point x="515" y="188" type="curve" smooth="yes"/>
      <point x="518" y="212" type="line" smooth="yes"/>
      <point x="532" y="322"/>
      <point x="473" y="388"/>
      <point x="380" y="398" type="curve"/>
      <point x="472" y="408"/>
      <point x="547" y="469"/>
      <point x="559" y="568" type="curve" smooth="yes"/>
    </contour>
    <contour>
      <point x="279" y="388" type="curve" smooth="yes"/>
      <point x="325" y="388" type="line" smooth="yes"/>
      <point x="452" y="388"/>
      <point x="512" y="328"/>
      <point x="497" y="212" type="curve" smooth="yes"/>
      <point x="494" y="188" type="line" smooth="yes"/>
      <point x="479" y="72"/>
      <point x="385" y="14"/>
      <point x="261" y="14" type="curve" smooth="yes"/>
      <point x="253" y="14" type="line" smooth="yes"/>
      <point x="129" y="14"/>
      <point x="42" y="75"/>
      <point x="57" y="195" type="curve" smooth="yes"/>
      <point x="60" y="219" type="line" smooth="yes"/>
      <point x="75" y="335"/>
      <point x="155" y="388"/>
    </contour>
    <contour>
      <point x="348" y="766" type="line" smooth="yes"/>
      <point x="461" y="766"/>
      <point x="555" y="701"/>
      <point x="541" y="592" type="curve" smooth="yes"/>
      <point x="538" y="568" type="line" smooth="yes"/>
      <point x="525" y="465"/>
      <point x="442" y="408"/>
      <point x="325" y="408" type="curve" smooth="yes"/>
      <point x="281" y="408" type="line" smooth="yes"/>
      <point x="161" y="408"/>
      <point x="99" y="467"/>
      <point x="112" y="574" type="curve" smooth="yes"/>
      <point x="115" y="598" type="line" smooth="yes"/>
      <point x="128" y="703"/>
      <point x="219" y="766"/>
      <point x="340" y="766" type="curve" smooth="yes"/>
    </contour>
  </outline>
</glyph>
<glyph name="nine" format="1">
  <advance width="600"/>
  <unicode hex="0039"/>
  <outline>
    <contour>
      <point x="40" y="-6" type="line"/>
      <point x="163" y="-6"/>
      <point x="292" y="39"/>
      <point x="401" y="163" type="curve" smooth="yes"/>
      <point x="499" y="274"/>
      <point x="539" y="398"/>
      <point x="554" y="515" type="curve" smooth="yes"/>
      <point x="555" y="523" type="line" smooth="yes"/>
      <point x="576" y="693"/>
      <point x="480" y="786"/>
      <point x="342" y="786" type="curve" smooth="yes"/>
      <point x="207" y="786"/>
      <point x="97" y="702"/>
      <point x="78" y="552" type="curve" smooth="yes"/>
      <point x="75" y="528" type="line" smooth="yes"/>
      <point x="56" y="378"/>
      <point x="151" y="294"/>
      <point x="286" y="294" type="curve" smooth="yes"/>
      <point x="389" y="294"/>
      <point x="467" y="348"/>
      <point x="516" y="420" type="curve"/>
      <point x="493" y="341"/>
      <point x="454" y="252"/>
      <point x="387" y="175" type="curve" smooth="yes"/>
      <point x="287" y="61"/>
      <point x="161" y="14"/>
      <point x="43" y="14" type="curve"/>
    </contour>
    <contour>
      <point x="525" y="466" type="curve"/>
      <point x="480" y="384"/>
      <point x="396" y="314"/>
      <point x="290" y="314" type="curve" smooth="yes"/>
      <point x="282" y="314" type="line" smooth="yes"/>
      <point x="158" y="314"/>
      <point x="79" y="395"/>
      <point x="96" y="528" type="curve" smooth="yes"/>
      <point x="99" y="552" type="line" smooth="yes"/>
      <point x="116" y="684"/>
      <point x="214" y="766"/>
      <point x="338" y="766" type="curve" smooth="yes"/>
      <point x="346" y="766" type="line" smooth="yes"/>
      <point x="458" y="766"/>
      <point x="538" y="692"/>
      <point x="538" y="570" type="curve" smooth="yes"/>
      <point x="538" y="526"/>
      <point x="530" y="489"/>
    </contour>
  </outline>
</glyph>
<glyph name="colon" format="1">
  <advance width="180"/>
  <unicode hex="003A"/>
  <outline>
    <contour>
      <point x="66" y="40" type="line"/>
      <point x="26" y="40" type="line"/>
      <point x="21" y="0" type="line"/>
      <point x="61" y="0" type="line"/>
    </contour>
    <contour>
      <point x="114" y="410" type="line"/>
      <point x="74" y="410" type="line"/>
      <point x="69" y="370" type="line"/>
      <point x="109" y="370" type="line"/>
    </contour>
  </outline>
</glyph>
<glyph name="less" format="1">
  <advance width="600"/>
  <unicode hex="003C"/>
  <outline>
    <contour>
      <point x="52" y="399" type="line"/>
      <point x="50" y="381" type="line"/>
      <point x="517" y="134" type="line"/>
      <point x="520" y="155" type="line"/>
      <point x="71" y="389" type="line"/>
      <point x="582" y="623" type="line"/>
      <point x="585" y="646" type="line"/>
    </contour>
  </outline>
</glyph>
<glyph name="equal" format="1">
  <advance width="600"/>
  <unicode hex="003D"/>
  <outline>
    <contour>
      <point x="63" y="480" type="line"/>
      <point x="562" y="480" type="line"/>
      <point x="565" y="500" type="line"/>
      <point x="66" y="500" type="line"/>
    </contour>
    <contour>
      <point x="37" y="280" type="line"/>
      <point x="536" y="280" type="line"/>
      <point x="539" y="300" type="line"/>
      <point x="40" y="300" type="line"/>
    </contour>
  </outline>
</glyph>
<glyph name="greater" format="1">
  <advance width="600"/>
  <unicode hex="003E"/>
  <outline>
    <contour>
      <point x="550" y="381" type="line"/>
      <point x="552" y="399" type="line"/>
      <point x="85" y="646" type="line"/>
      <point x="82" y="625" type="line"/>
      <point x="531" y="391" type="line"/>
      <point x="20" y="157" type="line"/>
      <point x="17" y="134" type="line"/>
    </contour>
  </outline>
</glyph>
<glyph name="question" format="1">
  <advance width="440"/>
  <unicode hex="003F"/>
  <outline>
    <contour>
      <point x="270" y="786" type="curve" smooth="yes"/>
      <point x="142" y="786"/>
      <point x="71" y="678"/>
      <point x="52" y="524" type="curve" smooth="yes"/>
      <point x="49" y="500" type="line"/>
      <point x="69" y="500" type="line"/>
      <point x="88" y="666"/>
      <point x="153" y="766"/>
      <point x="270" y="766" type="curve" smooth="yes"/>
      <point x="375" y="766"/>
      <point x="411" y="694"/>
      <point x="411" y="615" type="curve" smooth="yes"/>
      <point x="411" y="425"/>
      <point x="210" y="387"/>
      <point x="187" y="175" type="curve"/>
      <point x="201" y="175" type="line"/>
      <point x="228" y="376"/>
      <point x="432" y="420"/>
      <point x="432" y="614" type="curve" smooth="yes"/>
      <point x="432" y="707"/>
      <point x="387" y="786"/>
    </contour>
    <contour>
      <point x="196" y="40" type="line"/>
      <point x="156" y="40" type="line"/>
      <point x="151" y="0" type="line"/>
      <point x="191" y="0" type="line"/>
    </contour>
  </outline>
</glyph>
<glyph name="at" format="1">
  <advance width="930"/>
  <unicode hex="0040"/>
  <outline>
    <contour>
      <point x="418" y="-186" type="line" smooth="yes"/>
      <point x="171" y="-186"/>
      <point x="6" y="-7"/>
      <point x="42" y="278" type="curve" smooth="yes"/>
      <point x="45" y="302" type="line" smooth="yes"/>
      <point x="81" y="587"/>
      <point x="270" y="766"/>
      <point x="517" y="766" type="curve" smooth="yes"/>
      <point x="523" y="766" type="line" smooth="yes"/>
      <point x="731" y="766"/>
      <point x="908" y="637"/>
      <point x="876" y="382" type="curve" smooth="yes"/>
      <point x="873" y="358" type="line" smooth="yes"/>
      <point x="845" y="131"/>
      <point x="732" y="81"/>
      <point x="598" y="80" type="curve"/>
      <point x="607" y="180" type="line"/>
      <point x="637" y="408" type="line"/>
      <point x="658" y="530" type="line"/>
      <point x="643" y="530" type="line"/>
      <point x="625" y="447" type="line"/>
      <point x="603" y="489"/>
      <point x="551" y="536"/>
      <point x="464" y="536" type="curve" smooth="yes"/>
      <point x="360" y="536"/>
      <point x="258" y="469"/>
      <point x="238" y="307" type="curve" smooth="yes"/>
      <point x="235" y="283" type="line" smooth="yes"/>
      <point x="215" y="121"/>
      <point x="302" y="54"/>
      <point x="414" y="54" type="curve" smooth="yes"/>
      <point x="498" y="54"/>
      <point x="561" y="105"/>
      <point x="585" y="144" type="curve"/>
      <point x="581" y="60" type="line"/>
      <point x="586" y="60" type="line" smooth="yes"/>
      <point x="741" y="60"/>
      <point x="863" y="118"/>
      <point x="893" y="358" type="curve" smooth="yes"/>
      <point x="896" y="382" type="line" smooth="yes"/>
      <point x="928" y="642"/>
      <point x="750" y="786"/>
      <point x="520" y="786" type="curve" smooth="yes"/>
      <point x="265" y="786"/>
      <point x="63" y="606"/>
      <point x="25" y="302" type="curve" smooth="yes"/>
      <point x="22" y="278" type="line" smooth="yes"/>
      <point x="-14" y="-12"/>
      <point x="156" y="-206"/>
      <point x="421" y="-206" type="curve" smooth="yes"/>
      <point x="538" y="-206"/>
      <point x="649" y="-186"/>
      <point x="771" y="-103" type="curve"/>
      <point x="761" y="-87" type="line"/>
      <point x="644" y="-164"/>
      <point x="545" y="-186"/>
      <point x="424" y="-186" type="curve" smooth="yes"/>
    </contour>
    <contour>
      <point x="619" y="423" type="curve"/>
      <point x="585" y="171" type="line"/>
      <point x="548" y="119"/>
      <point x="495" y="74"/>
      <point x="414" y="74" type="curve" smooth="yes"/>
      <point x="316" y="74"/>
      <point x="236" y="135"/>
      <point x="255" y="283" type="curve" smooth="yes"/>
      <point x="258" y="307" type="line" smooth="yes"/>
      <point x="277" y="455"/>
      <point x="372" y="516"/>
      <point x="464" y="516" type="curve" smooth="yes"/>
      <point x="550" y="516"/>
      <point x="598" y="464"/>
    </contour>
  </outline>
</glyph>
<glyph name="A" format="1">
  <advance width="590"/>
  <unicode hex="0041"/>
  <outline>
    <contour>
      <point x="340" y="790" type="line"/>
      <point x="-14" y="0" type="line"/>
      <point x="8" y="0" type="line"/>
      <point x="110" y="230" type="line"/>
      <point x="444" y="230" type="line"/>
      <point x="486" y="0" type="line"/>
      <point x="506" y="0" type="line"/>
      <point x="360" y="790" type="line"/>
    </contour>
    <contour>
      <point x="347" y="760" type="line"/>
      <point x="440" y="250" type="line"/>
      <point x="119" y="250" type="line"/>
    </contour>
  </outline>
</glyph>
<glyph name="B" format="1">
  <advance width="552"/>
  <unicode hex="0042"/>
  <outline>
    <contour>
      <point x="133" y="780" type="line"/>
      <point x="31" y="0" type="line"/>
      <point x="230" y="0" type="line" smooth="yes"/>
      <point x="345" y="0"/>
      <point x="450" y="25"/>
      <point x="470" y="188" type="curve" smooth="yes"/>
      <point x="473" y="212" type="line" smooth="yes"/>
      <point x="489" y="340"/>
      <point x="423" y="386"/>
      <point x="344" y="398" type="curve"/>
      <point x="417" y="408"/>
      <point x="484" y="445"/>
      <point x="499" y="568" type="curve" smooth="yes"/>
      <point x="502" y="592" type="line" smooth="yes"/>
      <point x="521" y="743"/>
      <point x="416" y="780"/>
      <point x="310" y="780" type="curve" smooth="yes"/>
    </contour>
    <contour>
      <point x="277" y="388" type="line" smooth="yes"/>
      <point x="359" y="388"/>
      <point x="471" y="367"/>
      <point x="452" y="212" type="curve" smooth="yes"/>
      <point x="449" y="188" type="line" smooth="yes"/>
      <point x="430" y="33"/>
      <point x="325" y="20"/>
      <point x="230" y="20" type="curve" smooth="yes"/>
      <point x="54" y="20" type="line"/>
      <point x="102" y="388" type="line"/>
    </contour>
    <contour>
      <point x="310" y="760" type="line" smooth="yes"/>
      <point x="392" y="760"/>
      <point x="499" y="737"/>
      <point x="481" y="592" type="curve" smooth="yes"/>
      <point x="478" y="568" type="line" smooth="yes"/>
      <point x="460" y="427"/>
      <point x="365" y="408"/>
      <point x="277" y="408" type="curve" smooth="yes"/>
      <point x="105" y="408" type="line"/>
      <point x="151" y="760" type="line"/>
    </contour>
  </outline>
</glyph>
<glyph name="D" format="1">
  <advance width="615"/>
  <unicode hex="0044"/>
  <outline>
    <contour>
      <point x="558" y="402" type="line" smooth="yes"/>
      <point x="593" y="683"/>
      <point x="486" y="780"/>
      <point x="321" y="780" type="curve" smooth="yes"/>
      <point x="133" y="780" type="line"/>
      <point x="31" y="0" type="line"/>
      <point x="215" y="0" type="line" smooth="yes"/>
      <point x="380" y="0"/>
      <point x="520" y="98"/>
      <point x="555" y="378" type="curve" smooth="yes"/>
    </contour>
    <contour>
      <point x="54" y="20" type="line"/>
      <point x="151" y="760" type="line"/>
      <point x="321" y="760" type="line" smooth="yes"/>
      <point x="481" y="760"/>
      <point x="570" y="664"/>
      <point x="537" y="402" type="curve" smooth="yes"/>
      <point x="534" y="378" type="line" smooth="yes"/>
      <point x="501" y="115"/>
      <point x="375" y="20"/>
      <point x="215" y="20" type="curve" smooth="yes"/>
    </contour>
  </outline>
</glyph>
<glyph name="F" format="1">
  <advance width="484"/>
  <unicode hex="0046"/>
  <outline>
    <contour>
      <point x="133" y="780" type="line"/>
      <point x="31" y="0" type="line"/>
      <point x="51" y="0" type="line"/>
      <point x="102" y="388" type="line"/>
      <point x="421" y="388" type="line"/>
      <point x="424" y="408" type="line"/>
      <point x="105" y="408" type="line"/>
      <point x="151" y="760" type="line"/>
      <point x="520" y="760" type="line"/>
      <point x="523" y="780" type="line"/>
    </contour>
  </outline>
</glyph>
<glyph name="H" format="1">
  <advance width="620"/>
  <unicode hex="0048"/>
  <outline>
    <contour>
      <point x="573" y="780" type="line"/>
      <point x="524" y="408" type="line"/>
      <point x="104" y="408" type="line"/>
      <point x="153" y="780" type="line"/>
      <point x="133" y="780" type="line"/>
      <point x="31" y="0" type="line"/>
      <point x="51" y="0" type="line"/>
      <point x="102" y="388" type="line"/>
      <point x="522" y="388" type="line"/>
      <point x="471" y="0" type="line"/>
      <point x="491" y="0" type="line"/>
      <point x="593" y="780" type="line"/>
    </contour>
  </outline>
</glyph>
<glyph name="J" format="1">
  <advance width="470"/>
  <unicode hex="004A"/>
  <outline>
    <contour>
      <point x="426" y="780" type="line"/>
      <point x="356" y="245" type="line" smooth="yes"/>
      <point x="336" y="89"/>
      <point x="289" y="14"/>
      <point x="167" y="14" type="curve" smooth="yes"/>
      <point x="46" y="14"/>
      <point x="12" y="95"/>
      <point x="36" y="247" type="curve"/>
      <point x="16" y="247" type="line"/>
      <point x="13" y="223" type="line" smooth="yes"/>
      <point x="-4" y="88"/>
      <point x="32" y="-6"/>
      <point x="167" y="-6" type="curve" smooth="yes"/>
      <point x="302" y="-6"/>
      <point x="355" y="84"/>
      <point x="373" y="223" type="curve" smooth="yes"/>
      <point x="446" y="780" type="line"/>
    </contour>
  </outline>
</glyph>
<glyph name="K" format="1">
  <advance width="518"/>
  <unicode hex="004B"/>
  <outline>
    <contour>
      <point x="153" y="780" type="line"/>
      <point x="133" y="780" type="line"/>
      <point x="31" y="0" type="line"/>
      <point x="51" y="0" type="line"/>
      <point x="83" y="245" type="line"/>
      <point x="234" y="424" type="line"/>
      <point x="408" y="0" type="line"/>
      <point x="431" y="0" type="line"/>
      <point x="248" y="441" type="line"/>
      <point x="533" y="780" type="line"/>
      <point x="505" y="780" type="line"/>
      <point x="87" y="279" type="line"/>
    </contour>
  </outline>
</glyph>
<glyph name="L" format="1">
  <advance width="464"/>
  <unicode hex="004C"/>
  <outline>
    <contour>
      <point x="401" y="0" type="line"/>
      <point x="404" y="20" type="line"/>
      <point x="54" y="20" type="line"/>
      <point x="154" y="780" type="line"/>
      <point x="133" y="780" type="line"/>
      <point x="31" y="0" type="line"/>
    </contour>
  </outline>
</glyph>
<glyph name="M" format="1">
  <advance width="760"/>
  <unicode hex="004D"/>
  <outline>
    <contour>
      <point x="334" y="30" type="line"/>
      <point x="154" y="780" type="line"/>
      <point x="133" y="780" type="line"/>
      <point x="31" y="0" type="line"/>
      <point x="51" y="0" type="line"/>
      <point x="124" y="560" type="line"/>
      <point x="145" y="734" type="line"/>
      <point x="321" y="0" type="line"/>
      <point x="341" y="0" type="line"/>
      <point x="709" y="734" type="line"/>
      <point x="684" y="561" type="line"/>
      <point x="611" y="0" type="line"/>
      <point x="631" y="0" type="line"/>
      <point x="733" y="780" type="line"/>
      <point x="710" y="780" type="line"/>
    </contour>
  </outline>
</glyph>
<glyph name="N" format="1">
  <advance width="640"/>
  <unicode hex="004E"/>
  <outline>
    <contour>
      <point x="496" y="32" type="line"/>
      <point x="155" y="780" type="line"/>
      <point x="133" y="780" type="line"/>
      <point x="31" y="0" type="line"/>
      <point x="51" y="0" type="line"/>
      <point x="130" y="605" type="line"/>
      <point x="148" y="748" type="line"/>
      <point x="489" y="0" type="line"/>
      <point x="511" y="0" type="line"/>
      <point x="613" y="780" type="line"/>
      <point x="593" y="780" type="line"/>
      <point x="514" y="175" type="line"/>
    </contour>
  </outline>
</glyph>
<glyph name="P" format="1">
  <advance width="544"/>
  <unicode hex="0050"/>
  <outline>
    <contour>
      <point x="96" y="340" type="line"/>
      <point x="270" y="340" type="line" smooth="yes"/>
      <point x="376" y="340"/>
      <point x="496" y="378"/>
      <point x="517" y="545" type="curve" smooth="yes"/>
      <point x="520" y="569" type="line" smooth="yes"/>
      <point x="540" y="731"/>
      <point x="432" y="780"/>
      <point x="320" y="780" type="curve" smooth="yes"/>
      <point x="133" y="780" type="line"/>
      <point x="31" y="0" type="line"/>
      <point x="51" y="0" type="line"/>
    </contour>
    <contour>
      <point x="98" y="360" type="line"/>
      <point x="150" y="760" type="line"/>
      <point x="320" y="760" type="line" smooth="yes"/>
      <point x="402" y="760"/>
      <point x="519" y="730"/>
      <point x="499" y="569" type="curve" smooth="yes"/>
      <point x="496" y="545" type="line" smooth="yes"/>
      <point x="476" y="382"/>
      <point x="352" y="360"/>
      <point x="270" y="360" type="curve" smooth="yes"/>
    </contour>
  </outline>
</glyph>
<glyph name="Q" format="1">
  <advance width="626"/>
  <unicode hex="0051"/>
  <outline>
    <contour>
      <point x="361" y="786" type="curve" smooth="yes"/>
      <point x="196" y="786"/>
      <point x="103" y="680"/>
      <point x="68" y="402" type="curve" smooth="yes"/>
      <point x="65" y="378" type="line" smooth="yes"/>
      <point x="31" y="108"/>
      <point x="105" y="-6"/>
      <point x="272" y="-6" type="curve" smooth="yes"/>
      <point x="295" y="-6"/>
      <point x="317" y="-4"/>
      <point x="337" y="0" type="curve"/>
      <point x="362" y="-100" type="line"/>
      <point x="382" y="-100" type="line"/>
      <point x="356" y="5" type="line"/>
      <point x="469" y="38"/>
      <point x="536" y="151"/>
      <point x="565" y="378" type="curve" smooth="yes"/>
      <point x="568" y="402" type="line" smooth="yes"/>
      <point x="602" y="672"/>
      <point x="528" y="786"/>
    </contour>
    <contour>
      <point x="269" y="14" type="line" smooth="yes"/>
      <point x="118" y="14"/>
      <point x="53" y="118"/>
      <point x="86" y="378" type="curve" smooth="yes"/>
      <point x="89" y="402" type="line" smooth="yes"/>
      <point x="122" y="666"/>
      <point x="207" y="766"/>
      <point x="358" y="766" type="curve" smooth="yes"/>
      <point x="364" y="766" type="line" smooth="yes"/>
      <point x="515" y="766"/>
      <point x="580" y="662"/>
      <point x="547" y="402" type="curve" smooth="yes"/>
      <point x="544" y="378" type="line" smooth="yes"/>
      <point x="517" y="162"/>
      <point x="455" y="56"/>
      <point x="351" y="24" type="curve"/>
      <point x="307" y="205" type="line"/>
      <point x="287" y="205" type="line"/>
      <point x="332" y="20" type="line"/>
      <point x="314" y="16"/>
      <point x="295" y="14"/>
      <point x="275" y="14" type="curve" smooth="yes"/>
    </contour>
  </outline>
</glyph>
<glyph name="T" format="1">
  <advance width="490"/>
  <unicode hex="0054"/>
  <outline>
    <contour>
      <point x="305" y="760" type="line"/>
      <point x="514" y="760" type="line"/>
      <point x="517" y="780" type="line"/>
      <point x="78" y="780" type="line"/>
      <point x="75" y="760" type="line"/>
      <point x="284" y="760" type="line"/>
      <point x="185" y="0" type="line"/>
      <point x="205" y="0" type="line"/>
    </contour>
  </outline>
</glyph>
<glyph name="V" format="1">
  <advance width="590"/>
  <unicode hex="0056"/>
  <outline>
    <contour>
      <point x="254" y="-10" type="line"/>
      <point x="608" y="780" type="line"/>
      <point x="586" y="780" type="line"/>
      <point x="247" y="20" type="line"/>
      <point x="108" y="780" type="line"/>
      <point x="88" y="780" type="line"/>
      <point x="234" y="-10" type="line"/>
    </contour>
  </outline>
</glyph>
<glyph name="W" format="1">
  <advance width="860"/>
  <unicode hex="0057"/>
  <outline>
    <contour>
      <point x="493" y="780" type="line"/>
      <point x="471" y="780" type="line"/>
      <point x="172" y="35" type="line"/>
      <point x="111" y="780" type="line"/>
      <point x="91" y="780" type="line"/>
      <point x="156" y="0" type="line"/>
      <point x="178" y="0" type="line"/>
      <point x="479" y="748" type="line"/>
      <point x="584" y="0" type="line"/>
      <point x="606" y="0" type="line"/>
      <point x="875" y="780" type="line"/>
      <point x="853" y="780" type="line"/>
      <point x="598" y="33" type="line"/>
    </contour>
  </outline>
</glyph>
<glyph name="X" format="1">
  <advance width="580"/>
  <unicode hex="0058"/>
  <outline>
    <contour>
      <point x="290" y="371" type="line"/>
      <point x="480" y="0" type="line"/>
      <point x="503" y="0" type="line"/>
      <point x="304" y="389" type="line"/>
      <point x="605" y="780" type="line"/>
      <point x="579" y="780" type="line"/>
      <point x="294" y="409" type="line"/>
      <point x="104" y="780" type="line"/>
      <point x="81" y="780" type="line"/>
      <point x="280" y="391" type="line"/>
      <point x="-21" y="0" type="line"/>
      <point x="5" y="0" type="line"/>
    </contour>
  </outline>
</glyph>
<glyph name="bracketleft" format="1">
  <advance width="300"/>
  <unicode hex="005B"/>
  <outline>
    <contour>
      <point x="141" y="840" type="line"/>
      <point x="15" y="-120" type="line"/>
      <point x="185" y="-120" type="line"/>
      <point x="188" y="-100" type="line"/>
      <point x="38" y="-100" type="line"/>
      <point x="158" y="820" type="line"/>
      <point x="308" y="820" type="line"/>
      <point x="311" y="840" type="line"/>
    </contour>
  </outline>
</glyph>
<glyph name="backslash" format="1">
  <advance width="300"/>
  <unicode hex="005C"/>
  <outline>
    <contour>
      <point x="190" y="-120" type="line"/>
      <point x="210" y="-120" type="line"/>
      <point x="106" y="840" type="line"/>
      <point x="86" y="840" type="line"/>
    </contour>
  </outline>
</glyph>
<glyph name="bracketright" format="1">
  <advance width="300"/>
  <unicode hex="005D"/>
  <outline>
    <contour>
      <point x="155" y="-120" type="line"/>
      <point x="281" y="840" type="line"/>
      <point x="111" y="840" type="line"/>
      <point x="108" y="820" type="line"/>
      <point x="258" y="820" type="line"/>
      <point x="138" y="-100" type="line"/>
      <point x="-12" y="-100" type="line"/>
      <point x="-15" y="-120" type="line"/>
    </contour>
  </outline>
</glyph>
<glyph name="asciicircum" format="1">
  <advance width="600"/>
  <unicode hex="005E"/>
  <outline>
    <contour>
      <point x="363" y="780" type="line"/>
      <point x="343" y="780" type="line"/>
      <point x="31" y="280" type="line"/>
      <point x="54" y="280" type="line"/>
      <point x="352" y="759" type="line"/>
      <point x="522" y="280" type="line"/>
      <point x="543" y="280" type="line"/>
    </contour>
  </outline>
</glyph>
<glyph name="underscore" format="1">
  <advance width="320"/>
  <unicode hex="005F"/>
  <outline>
    <contour>
      <point x="-14" y="-110" type="line"/>
      <point x="206" y="-110" type="line"/>
      <point x="209" y="-90" type="line"/>
      <point x="-11" y="-90" type="line"/>
    </contour>
  </outline>
</glyph>
<glyph name="grave" format="1">
  <advance width="500"/>
  <unicode hex="0060"/>
  <outline>
    <contour>
      <point x="202" y="780" type="line"/>
      <point x="271" y="620" type="line"/>
      <point x="293" y="620" type="line"/>
      <point x="224" y="780" type="line"/>
    </contour>
  </outline>
</glyph>
<glyph name="b" format="1">
  <advance width="510"/>
  <unicode hex="0062"/>
  <outline>
    <contour>
      <point x="146" y="800" type="line"/>
      <point x="126" y="800" type="line"/>
      <point x="37" y="122" type="line"/>
      <point x="16" y="0" type="line"/>
      <point x="31" y="0" type="line"/>
      <point x="49" y="83" type="line"/>
      <point x="71" y="41"/>
      <point x="121" y="-6"/>
      <point x="208" y="-6" type="curve" smooth="yes"/>
      <point x="342" y="-6"/>
      <point x="419" y="91"/>
      <point x="439" y="253" type="curve" smooth="yes"/>
      <point x="442" y="277" type="line" smooth="yes"/>
      <point x="462" y="439"/>
      <point x="403" y="536"/>
      <point x="269" y="536" type="curve" smooth="yes"/>
      <point x="185" y="536"/>
      <point x="128" y="490"/>
      <point x="100" y="450" type="curve"/>
    </contour>
    <contour>
      <point x="96" y="419" type="line"/>
      <point x="133" y="471"/>
      <point x="188" y="516"/>
      <point x="269" y="516" type="curve" smooth="yes"/>
      <point x="391" y="516"/>
      <point x="441" y="425"/>
      <point x="422" y="277" type="curve" smooth="yes"/>
      <point x="419" y="253" type="line" smooth="yes"/>
      <point x="400" y="105"/>
      <point x="330" y="14"/>
      <point x="208" y="14" type="curve" smooth="yes"/>
      <point x="122" y="14"/>
      <point x="76" y="66"/>
      <point x="55" y="107" type="curve"/>
    </contour>
  </outline>
</glyph>
<glyph name="c" format="1">
  <advance width="505"/>
  <unicode hex="0063"/>
  <outline>
    <contour>
      <point x="39" y="253" type="line" smooth="yes"/>
      <point x="19" y="91"/>
      <point x="86" y="-6"/>
      <point x="220" y="-6" type="curve" smooth="yes"/>
      <point x="357" y="-6"/>
      <point x="413" y="83"/>
      <point x="422" y="159" type="curve" smooth="yes"/>
      <point x="424" y="175" type="line"/>
      <point x="404" y="175" type="line"/>
      <point x="393" y="81"/>
      <point x="337" y="14"/>
      <point x="220" y="14" type="curve" smooth="yes"/>
      <point x="98" y="14"/>
      <point x="40" y="105"/>
      <point x="59" y="253" type="curve" smooth="yes"/>
      <point x="62" y="277" type="line" smooth="yes"/>
      <point x="81" y="425"/>
      <point x="156" y="516"/>
      <point x="278" y="516" type="curve" smooth="yes"/>
      <point x="404" y="516"/>
      <point x="442" y="444"/>
      <point x="426" y="345" type="curve"/>
      <point x="446" y="345" type="line"/>
      <point x="448" y="361" type="line" smooth="yes"/>
      <point x="459" y="446"/>
      <point x="427" y="536"/>
      <point x="278" y="536" type="curve" smooth="yes"/>
      <point x="144" y="536"/>
      <point x="62" y="439"/>
      <point x="42" y="277" type="curve" smooth="yes"/>
    </contour>
  </outline>
</glyph>
<glyph name="e" format="1">
  <advance width="530"/>
  <unicode hex="0065"/>
  <outline>
    <contour>
      <point x="459" y="255" type="line"/>
      <point x="461" y="271" type="line" smooth="yes"/>
      <point x="480" y="424"/>
      <point x="438" y="536"/>
      <point x="282" y="536" type="curve" smooth="yes"/>
      <point x="148" y="536"/>
      <point x="62" y="439"/>
      <point x="42" y="277" type="curve" smooth="yes"/>
      <point x="39" y="253" type="line" smooth="yes"/>
      <point x="19" y="91"/>
      <point x="99" y="-6"/>
      <point x="233" y="-6" type="curve" smooth="yes"/>
      <point x="383" y="-6"/>
      <point x="437" y="78"/>
      <point x="446" y="154" type="curve" smooth="yes"/>
      <point x="448" y="170" type="line"/>
      <point x="428" y="170" type="line"/>
      <point x="420" y="87"/>
      <point x="371" y="14"/>
      <point x="233" y="14" type="curve" smooth="yes"/>
      <point x="111" y="14"/>
      <point x="40" y="105"/>
      <point x="59" y="255" type="curve"/>
    </contour>
    <contour>
      <point x="282" y="516" type="curve" smooth="yes"/>
      <point x="416" y="516"/>
      <point x="460" y="416"/>
      <point x="442" y="275" type="curve"/>
      <point x="62" y="275" type="line"/>
      <point x="81" y="425"/>
      <point x="160" y="516"/>
    </contour>
  </outline>
</glyph>
<glyph name="i" format="1">
  <advance width="180"/>
  <unicode hex="0069"/>
  <outline>
    <contour>
      <point x="31" y="0" type="line"/>
      <point x="51" y="0" type="line"/>
      <point x="120" y="530" type="line"/>
      <point x="100" y="530" type="line"/>
    </contour>
    <contour>
      <point x="155" y="720" type="line"/>
      <point x="115" y="720" type="line"/>
      <point x="110" y="680" type="line"/>
      <point x="150" y="680" type="line"/>
    </contour>
  </outline>
</glyph>
<glyph name="k" format="1">
  <advance width="458"/>
  <unicode hex="006B"/>
  <outline>
    <contour>
      <point x="151" y="800" type="line"/>
      <point x="131" y="800" type="line"/>
      <point x="26" y="0" type="line"/>
      <point x="46" y="0" type="line"/>
      <point x="68" y="171" type="line"/>
      <point x="218" y="314" type="line"/>
      <point x="353" y="0" type="line"/>
      <point x="376" y="0" type="line"/>
      <point x="234" y="329" type="line"/>
      <point x="445" y="530" type="line"/>
      <point x="417" y="530" type="line"/>
      <point x="72" y="201" type="line"/>
    </contour>
  </outline>
</glyph>
<glyph name="l" format="1">
  <advance width="180"/>
  <unicode hex="006C"/>
  <outline>
    <contour>
      <point x="31" y="0" type="line"/>
      <point x="51" y="0" type="line"/>
      <point x="156" y="800" type="line"/>
      <point x="136" y="800" type="line"/>
    </contour>
  </outline>
</glyph>
<glyph name="q" format="1">
  <advance width="510"/>
  <unicode hex="0071"/>
  <outline>
    <contour>
      <point x="344" y="-200" type="line"/>
      <point x="364" y="-200" type="line"/>
      <point x="444" y="408" type="line"/>
      <point x="465" y="530" type="line"/>
      <point x="450" y="530" type="line"/>
      <point x="432" y="447" type="line"/>
      <point x="410" y="489"/>
      <point x="360" y="536"/>
      <point x="273" y="536" type="curve" smooth="yes"/>
      <point x="139" y="536"/>
      <point x="62" y="439"/>
      <point x="42" y="277" type="curve" smooth="yes"/>
      <point x="39" y="253" type="line" smooth="yes"/>
      <point x="19" y="91"/>
      <point x="78" y="-6"/>
      <point x="212" y="-6" type="curve" smooth="yes"/>
      <point x="296" y="-6"/>
      <point x="353" y="40"/>
      <point x="381" y="80" type="curve"/>
    </contour>
    <contour>
      <point x="385" y="111" type="line"/>
      <point x="348" y="59"/>
      <point x="293" y="14"/>
      <point x="212" y="14" type="curve" smooth="yes"/>
      <point x="90" y="14"/>
      <point x="40" y="105"/>
      <point x="59" y="253" type="curve" smooth="yes"/>
      <point x="62" y="277" type="line" smooth="yes"/>
      <point x="81" y="425"/>
      <point x="151" y="516"/>
      <point x="273" y="516" type="curve" smooth="yes"/>
      <point x="359" y="516"/>
      <point x="405" y="464"/>
      <point x="426" y="423" type="curve"/>
    </contour>
  </outline>
</glyph>
<glyph name="r" format="1">
  <advance width="297"/>
  <unicode hex="0072"/>
  <outline>
    <contour>
      <point x="261" y="536" type="curve" smooth="yes"/>
      <point x="181" y="536"/>
      <point x="123" y="487"/>
      <point x="96" y="444" type="curve"/>
      <point x="101" y="530" type="line"/>
      <point x="85" y="530" type="line"/>
      <point x="75" y="412" type="line"/>
      <point x="21" y="0" type="line"/>
      <point x="41" y="0" type="line"/>
      <point x="96" y="419" type="line"/>
      <point x="121" y="458"/>
      <point x="176" y="516"/>
      <point x="264" y="516" type="curve" smooth="yes"/>
      <point x="273" y="516" type="line"/>
      <point x="276" y="535" type="line"/>
      <point x="276" y="535"/>
      <point x="270" y="536"/>
    </contour>
  </outline>
</glyph>
<glyph name="s" format="1">
  <advance width="480"/>
  <unicode hex="0073"/>
  <outline>
    <contour>
      <point x="213" y="261" type="curve" smooth="yes"/>
      <point x="335" y="250"/>
      <point x="380" y="228"/>
      <point x="380" y="154" type="curve" smooth="yes"/>
      <point x="380" y="71"/>
      <point x="310" y="14"/>
      <point x="200" y="14" type="curve" smooth="yes"/>
      <point x="64" y="14"/>
      <point x="26" y="73"/>
      <point x="42" y="160" type="curve"/>
      <point x="22" y="160" type="line"/>
      <point x="20" y="144" type="line" smooth="yes"/>
      <point x="10" y="65"/>
      <point x="50" y="-6"/>
      <point x="200" y="-6" type="curve" smooth="yes"/>
      <point x="319" y="-6"/>
      <point x="388" y="52"/>
      <point x="398" y="133" type="curve" smooth="yes"/>
      <point x="399" y="141" type="line" smooth="yes"/>
      <point x="409" y="220"/>
      <point x="371" y="266"/>
      <point x="237" y="278" type="curve" smooth="yes"/>
      <point x="113" y="289"/>
      <point x="76" y="313"/>
      <point x="76" y="375" type="curve" smooth="yes"/>
      <point x="76" y="463"/>
      <point x="141" y="516"/>
      <point x="250" y="516" type="curve" smooth="yes"/>
      <point x="380" y="516"/>
      <point x="419" y="461"/>
      <point x="403" y="360" type="curve"/>
      <point x="423" y="360" type="line"/>
      <point x="425" y="376" type="line" smooth="yes"/>
      <point x="436" y="468"/>
      <point x="395" y="536"/>
      <point x="250" y="536" type="curve" smooth="yes"/>
      <point x="141" y="536"/>
      <point x="68" y="482"/>
      <point x="58" y="400" type="curve" smooth="yes"/>
      <point x="57" y="392" type="line" smooth="yes"/>
      <point x="49" y="326"/>
      <point x="75" y="273"/>
    </contour>
  </outline>
</glyph>
<glyph name="v" format="1">
  <advance width="480"/>
  <unicode hex="0076"/>
  <outline>
    <contour>
      <point x="194" y="25" type="line"/>
      <point x="71" y="530" type="line"/>
      <point x="50" y="530" type="line"/>
      <point x="181" y="0" type="line"/>
      <point x="201" y="0" type="line"/>
      <point x="470" y="530" type="line"/>
      <point x="447" y="530" type="line"/>
    </contour>
  </outline>
</glyph>
<glyph name="x" format="1">
  <advance width="440"/>
  <unicode hex="0078"/>
  <outline>
    <contour>
      <point x="41" y="530" type="line"/>
      <point x="194" y="266" type="line"/>
      <point x="-28" y="0" type="line"/>
      <point x="-3" y="0" type="line"/>
      <point x="204" y="249" type="line"/>
      <point x="347" y="0" type="line"/>
      <point x="370" y="0" type="line"/>
      <point x="217" y="265" type="line"/>
      <point x="439" y="530" type="line"/>
      <point x="414" y="530" type="line"/>
      <point x="207" y="281" type="line"/>
      <point x="64" y="530" type="line"/>
    </contour>
  </outline>
</glyph>
<glyph name="y" format="1">
  <advance width="460"/>
  <unicode hex="0079"/>
  <outline>
    <contour>
      <point x="186" y="44" type="line"/>
      <point x="68" y="530" type="line"/>
      <point x="47" y="530" type="line"/>
      <point x="174" y="17" type="line"/>
      <point x="63" y="-200" type="line"/>
      <point x="85" y="-200" type="line"/>
      <point x="192" y="17" type="line"/>
      <point x="453" y="530" type="line"/>
      <point x="430" y="530" type="line"/>
    </contour>
  </outline>
</glyph>
<glyph name="z" format="1">
  <advance width="430"/>
  <unicode hex="007A"/>
  <outline>
    <contour>
      <point x="-13" y="14" type="line"/>
      <point x="-15" y="0" type="line"/>
      <point x="345" y="0" type="line"/>
      <point x="348" y="20" type="line"/>
      <point x="127" y="20" type="line"/>
      <point x="16" y="19" type="line"/>
      <point x="402" y="516" type="line"/>
      <point x="404" y="530" type="line"/>
      <point x="64" y="530" type="line"/>
      <point x="61" y="510" type="line"/>
      <point x="262" y="510" type="line"/>
      <point x="373" y="511" type="line"/>
    </contour>
  </outline>
</glyph>
<glyph name="braceleft" format="1">
  <advance width="300"/>
  <unicode hex="007B"/>
  <outline>
    <contour>
      <point x="311" y="840" type="line"/>
      <point x="307" y="840" type="line" smooth="yes"/>
      <point x="242" y="840"/>
      <point x="184" y="823"/>
      <point x="170" y="715" type="curve" smooth="yes"/>
      <point x="137" y="464" type="line" smooth="yes"/>
      <point x="127" y="384"/>
      <point x="87" y="370"/>
      <point x="34" y="370" type="curve"/>
      <point x="31" y="350" type="line"/>
      <point x="84" y="350"/>
      <point x="121" y="337"/>
      <point x="110" y="258" type="curve" smooth="yes"/>
      <point x="77" y="7" type="line" smooth="yes"/>
      <point x="63" y="-98"/>
      <point x="116" y="-120"/>
      <point x="181" y="-120" type="curve" smooth="yes"/>
      <point x="185" y="-120" type="line"/>
      <point x="188" y="-100" type="line"/>
      <point x="125" y="-100"/>
      <point x="85" y="-84"/>
      <point x="97" y="10" type="curve" smooth="yes"/>
      <point x="129" y="257" type="line" smooth="yes"/>
      <point x="138" y="323"/>
      <point x="116" y="348"/>
      <point x="83" y="360" type="curve"/>
      <point x="120" y="371"/>
      <point x="147" y="395"/>
      <point x="156" y="463" type="curve" smooth="yes"/>
      <point x="189" y="710" type="line" smooth="yes"/>
      <point x="202" y="807"/>
      <point x="246" y="820"/>
      <point x="308" y="820" type="curve"/>
    </contour>
  </outline>
</glyph>
<glyph name="bar" format="1">
  <advance width="180"/>
  <unicode hex="007C"/>
  <outline>
    <contour>
      <point x="15" y="-120" type="line"/>
      <point x="35" y="-120" type="line"/>
      <point x="161" y="840" type="line"/>
      <point x="141" y="840" type="line"/>
    </contour>
  </outline>
</glyph>
<glyph name="braceright" format="1">
  <advance width="300"/>
  <unicode hex="007D"/>
  <outline>
    <contour>
      <point x="-15" y="-120" type="line"/>
      <point x="-11" y="-120" type="line" smooth="yes"/>
      <point x="54" y="-120"/>
      <point x="112" y="-103"/>
      <point x="126" y="5" type="curve" smooth="yes"/>
      <point x="159" y="256" type="line" smooth="yes"/>
      <point x="169" y="336"/>
      <point x="209" y="350"/>
      <point x="262" y="350" type="curve"/>
      <point x="265" y="370" type="line"/>
      <point x="212" y="370"/>
      <point x="175" y="383"/>
      <point x="186" y="462" type="curve" smooth="yes"/>
      <point x="219" y="713" type="line" smooth="yes"/>
      <point x="233" y="818"/>
      <point x="180" y="840"/>
      <point x="115" y="840" type="curve" smooth="yes"/>
      <point x="111" y="840" type="line"/>
      <point x="108" y="820" type="line"/>
      <point x="171" y="820"/>
      <point x="211" y="804"/>
      <point x="199" y="710" type="curve" smooth="yes"/>
      <point x="167" y="463" type="line" smooth="yes"/>
      <point x="158" y="397"/>
      <point x="180" y="372"/>
      <point x="213" y="360" type="curve"/>
      <point x="176" y="349"/>
      <point x="149" y="325"/>
      <point x="140" y="257" type="curve" smooth="yes"/>
      <point x="107" y="10" type="line" smooth="yes"/>
      <point x="94" y="-87"/>
      <point x="50" y="-100"/>
      <point x="-12" y="-100" type="curve"/>
    </contour>
  </outline>
</glyph>
<glyph name="asciitilde" format="1">
  <advance width="600"/>
  <unicode hex="007E"/>
  <outline>
    <contour>
      <point x="424" y="354" type="curve" smooth="yes"/>
      <point x="317" y="354"/>
      <point x="290" y="436"/>
      <point x="177" y="436" type="curve" smooth="yes"/>
      <point x="107" y="436"/>
      <point x="56" y="386"/>
      <point x="43" y="370" type="curve"/>
      <point x="57" y="356" type="line"/>
      <point x="73" y="374"/>
      <point x="117" y="416"/>
      <point x="177" y="416" type="curve" smooth="yes"/>
      <point x="284" y="416"/>
      <point x="311" y="334"/>
      <point x="424" y="334" type="curve" smooth="yes"/>
      <point x="494" y="334"/>
      <point x="545" y="384"/>
      <point x="558" y="400" type="curve"/>
      <point x="544" y="414" type="line"/>
      <point x="528" y="396"/>
      <point x="484" y="354"/>
    </contour>
  </outline>
</glyph>
<glyph name="exclamdown" format="1">
  <advance width="180"/>
  <unicode hex="00A1"/>
  <outline>
    <contour>
      <point x="24" y="-200" type="line"/>
      <point x="94" y="355" type="line"/>
      <point x="80" y="355" type="line"/>
      <point x="4" y="-200" type="line"/>
    </contour>
    <contour>
      <point x="85" y="490" type="line"/>
      <point x="125" y="490" type="line"/>
      <point x="130" y="530" type="line"/>
      <point x="90" y="530" type="line"/>
    </contour>
  </outline>
</glyph>
<glyph name="cent" format="1">
  <advance width="600"/>
  <unicode hex="00A2"/>
  <outline>
    <contour>
      <point x="475" y="840" type="line"/>
      <point x="455" y="840" type="line"/>
      <point x="409" y="716" type="line"/>
      <point x="394" y="719"/>
      <point x="375" y="720"/>
      <point x="358" y="720" type="curve" smooth="yes"/>
      <point x="201" y="720"/>
      <point x="103" y="612"/>
      <point x="77" y="402" type="curve" smooth="yes"/>
      <point x="74" y="378" type="line" smooth="yes"/>
      <point x="54" y="220"/>
      <point x="87" y="120"/>
      <point x="172" y="80" type="curve"/>
      <point x="121" y="-60" type="line"/>
      <point x="141" y="-60" type="line"/>
      <point x="190" y="73" type="line"/>
      <point x="214" y="64"/>
      <point x="244" y="60"/>
      <point x="275" y="60" type="curve" smooth="yes"/>
      <point x="421" y="60"/>
      <point x="496" y="138"/>
      <point x="510" y="254" type="curve" smooth="yes"/>
      <point x="513" y="278" type="line"/>
      <point x="493" y="278" type="line"/>
      <point x="476" y="137"/>
      <point x="399" y="80"/>
      <point x="278" y="80" type="curve" smooth="yes"/>
      <point x="272" y="80" type="line" smooth="yes"/>
      <point x="243" y="80"/>
      <point x="218" y="84"/>
      <point x="197" y="92" type="curve"/>
      <point x="420" y="693" type="line"/>
      <point x="506" y="672"/>
      <point x="541" y="604"/>
      <point x="520" y="481" type="curve"/>
      <point x="540" y="481" type="line"/>
      <point x="543" y="505" type="line" smooth="yes"/>
      <point x="557" y="618"/>
      <point x="522" y="688"/>
      <point x="427" y="712" type="curve"/>
    </contour>
    <contour>
      <point x="97" y="402" type="line" smooth="yes"/>
      <point x="122" y="604"/>
      <point x="216" y="700"/>
      <point x="355" y="700" type="curve" smooth="yes"/>
      <point x="361" y="700" type="line" smooth="yes"/>
      <point x="376" y="700"/>
      <point x="389" y="699"/>
      <point x="401" y="697" type="curve"/>
      <point x="180" y="100" type="line"/>
      <point x="107" y="138"/>
      <point x="75" y="230"/>
      <point x="94" y="378" type="curve" smooth="yes"/>
    </contour>
  </outline>
</glyph>
<glyph name="sterling" format="1">
  <advance width="600"/>
  <unicode hex="00A3"/>
  <outline>
    <contour>
      <point x="378" y="766" type="curve" smooth="yes"/>
      <point x="499" y="766"/>
      <point x="561" y="682"/>
      <point x="536" y="500" type="curve"/>
      <point x="556" y="500" type="line"/>
      <point x="559" y="524" type="line" smooth="yes"/>
      <point x="580" y="690"/>
      <point x="512" y="786"/>
      <point x="378" y="786" type="curve" smooth="yes"/>
      <point x="216" y="786"/>
      <point x="151" y="661"/>
      <point x="151" y="530" type="curve" smooth="yes"/>
      <point x="151" y="480"/>
      <point x="156" y="439"/>
      <point x="161" y="400" type="curve"/>
      <point x="63" y="400" type="line"/>
      <point x="60" y="380" type="line"/>
      <point x="164" y="380" type="line"/>
      <point x="179" y="267"/>
      <point x="203" y="146"/>
      <point x="190" y="20" type="curve"/>
      <point x="14" y="20" type="line"/>
      <point x="11" y="0" type="line"/>
      <point x="491" y="0" type="line"/>
      <point x="494" y="20" type="line"/>
      <point x="210" y="20" type="line"/>
      <point x="225" y="141"/>
      <point x="202" y="267"/>
      <point x="186" y="380" type="curve"/>
      <point x="400" y="380" type="line"/>
      <point x="403" y="400" type="line"/>
      <point x="183" y="400" type="line"/>
      <point x="177" y="442"/>
      <point x="171" y="483"/>
      <point x="171" y="530" type="curve" smooth="yes"/>
      <point x="171" y="640"/>
      <point x="225" y="766"/>
    </contour>
  </outline>
</glyph>
<glyph name="yen" format="1">
  <advance width="600"/>
  <unicode hex="00A5"/>
  <outline>
    <contour>
      <point x="59" y="450" type="line"/>
      <point x="202" y="450" type="line"/>
      <point x="266" y="270" type="line"/>
      <point x="36" y="270" type="line"/>
      <point x="33" y="250" type="line"/>
      <point x="272" y="250" type="line"/>
      <point x="240" y="0" type="line"/>
      <point x="260" y="0" type="line"/>
      <point x="292" y="250" type="line"/>
      <point x="533" y="250" type="line"/>
      <point x="536" y="270" type="line"/>
      <point x="306" y="270" type="line"/>
      <point x="418" y="450" type="line"/>
      <point x="559" y="450" type="line"/>
      <point x="562" y="470" type="line"/>
      <point x="430" y="470" type="line"/>
      <point x="623" y="780" type="line"/>
      <point x="600" y="780" type="line"/>
      <point x="285" y="271" type="line"/>
      <point x="104" y="780" type="line"/>
      <point x="83" y="780" type="line"/>
      <point x="194" y="470" type="line"/>
      <point x="62" y="470" type="line"/>
    </contour>
  </outline>
</glyph>
<glyph name="brokenbar" format="1">
  <advance width="180"/>
  <unicode hex="00A6"/>
  <outline>
    <contour>
      <point x="83" y="400" type="line"/>
      <point x="103" y="400" type="line"/>
      <point x="161" y="840" type="line"/>
      <point x="141" y="840" type="line"/>
    </contour>
    <contour>
      <point x="15" y="-120" type="line"/>
      <point x="35" y="-120" type="line"/>
      <point x="93" y="320" type="line"/>
      <point x="73" y="320" type="line"/>
    </contour>
  </outline>
</glyph>
<glyph name="section" format="1">
  <advance width="500"/>
  <unicode hex="00A7"/>
  <outline>
    <contour>
      <point x="70" y="366" type="curve" smooth="yes"/>
      <point x="70" y="453"/>
      <point x="140" y="512"/>
      <point x="258" y="512" type="curve" smooth="yes"/>
      <point x="268" y="512" type="line" smooth="yes"/>
      <point x="379" y="512"/>
      <point x="435" y="475"/>
      <point x="435" y="410" type="curve" smooth="yes"/>
      <point x="435" y="323"/>
      <point x="365" y="264"/>
      <point x="247" y="264" type="curve" smooth="yes"/>
      <point x="237" y="264" type="line" smooth="yes"/>
      <point x="126" y="264"/>
      <point x="70" y="301"/>
    </contour>
    <contour>
      <point x="51" y="388" type="line" smooth="yes"/>
      <point x="38" y="310"/>
      <point x="78" y="256"/>
      <point x="214" y="247" type="curve" smooth="yes"/>
      <point x="335" y="239"/>
      <point x="375" y="213"/>
      <point x="375" y="151" type="curve" smooth="yes"/>
      <point x="375" y="63"/>
      <point x="310" y="10"/>
      <point x="201" y="10" type="curve" smooth="yes"/>
      <point x="71" y="10"/>
      <point x="32" y="65"/>
      <point x="48" y="166" type="curve"/>
      <point x="28" y="166" type="line"/>
      <point x="26" y="150" type="line" smooth="yes"/>
      <point x="15" y="58"/>
      <point x="56" y="-10"/>
      <point x="201" y="-10" type="curve" smooth="yes"/>
      <point x="310" y="-10"/>
      <point x="383" y="44"/>
      <point x="393" y="126" type="curve" smooth="yes"/>
      <point x="394" y="134" type="line" smooth="yes"/>
      <point x="401" y="189"/>
      <point x="386" y="232"/>
      <point x="302" y="252" type="curve"/>
      <point x="389" y="267"/>
      <point x="441" y="315"/>
      <point x="452" y="382" type="curve" smooth="yes"/>
      <point x="453" y="388" type="line" smooth="yes"/>
      <point x="466" y="466"/>
      <point x="426" y="520"/>
      <point x="290" y="529" type="curve" smooth="yes"/>
      <point x="169" y="537"/>
      <point x="129" y="563"/>
      <point x="129" y="625" type="curve" smooth="yes"/>
      <point x="129" y="713"/>
      <point x="194" y="766"/>
      <point x="303" y="766" type="curve" smooth="yes"/>
      <point x="433" y="766"/>
      <point x="472" y="711"/>
      <point x="456" y="610" type="curve"/>
      <point x="476" y="610" type="line"/>
      <point x="478" y="626" type="line" smooth="yes"/>
      <point x="489" y="718"/>
      <point x="448" y="786"/>
      <point x="303" y="786" type="curve" smooth="yes"/>
      <point x="194" y="786"/>
      <point x="121" y="732"/>
      <point x="111" y="650" type="curve" smooth="yes"/>
      <point x="110" y="642" type="line" smooth="yes"/>
      <point x="103" y="587"/>
      <point x="118" y="544"/>
      <point x="202" y="524" type="curve"/>
      <point x="115" y="509"/>
      <point x="63" y="461"/>
      <point x="52" y="394" type="curve" smooth="yes"/>
    </contour>
  </outline>
</glyph>
<glyph name="dieresis" format="1">
  <advance width="500"/>
  <unicode hex="00A8"/>
  <outline>
    <contour>
      <point x="245" y="720" type="line"/>
      <point x="205" y="720" type="line"/>
      <point x="200" y="680" type="line"/>
      <point x="240" y="680" type="line"/>
    </contour>
    <contour>
      <point x="385" y="720" type="line"/>
      <point x="345" y="720" type="line"/>
      <point x="340" y="680" type="line"/>
      <point x="380" y="680" type="line"/>
    </contour>
  </outline>
</glyph>
<glyph name="ordfeminine" format="1">
  <advance width="377"/>
  <unicode hex="00AA"/>
  <outline>
    <contour>
      <point x="56" y="482" type="line" smooth="yes"/>
      <point x="48" y="418"/>
      <point x="89" y="380"/>
      <point x="157" y="380" type="curve" smooth="yes"/>
      <point x="236" y="380"/>
      <point x="286" y="419"/>
      <point x="312" y="450" type="curve"/>
      <point x="308" y="388" type="line"/>
      <point x="325" y="388" type="line"/>
      <point x="333" y="485" type="line"/>
      <point x="355" y="649" type="line" smooth="yes"/>
      <point x="365" y="725"/>
      <point x="343" y="786"/>
      <point x="238" y="786" type="curve" smooth="yes"/>
      <point x="134" y="786"/>
      <point x="104" y="718"/>
      <point x="96" y="654" type="curve" smooth="yes"/>
      <point x="95" y="646" type="line"/>
      <point x="115" y="646" type="line"/>
      <point x="123" y="711"/>
      <point x="144" y="766"/>
      <point x="238" y="766" type="curve" smooth="yes"/>
      <point x="329" y="766"/>
      <point x="342" y="717"/>
      <point x="334" y="644" type="curve" smooth="yes"/>
      <point x="332" y="626" type="line"/>
      <point x="195" y="605" type="line" smooth="yes"/>
      <point x="136" y="595"/>
      <point x="68" y="579"/>
      <point x="57" y="490" type="curve" smooth="yes"/>
    </contour>
    <contour>
      <point x="157" y="400" type="curve" smooth="yes"/>
      <point x="94" y="400"/>
      <point x="71" y="439"/>
      <point x="76" y="482" type="curve" smooth="yes"/>
      <point x="77" y="490" type="line" smooth="yes"/>
      <point x="85" y="555"/>
      <point x="133" y="576"/>
      <point x="189" y="585" type="curve" smooth="yes"/>
      <point x="329" y="606" type="line"/>
      <point x="313" y="479" type="line"/>
      <point x="294" y="453"/>
      <point x="250" y="400"/>
    </contour>
    <contour>
      <point x="30" y="230" type="line"/>
      <point x="302" y="230" type="line"/>
      <point x="305" y="250" type="line"/>
      <point x="33" y="250" type="line"/>
    </contour>
  </outline>
</glyph>
<glyph name="guillemotleft" format="1">
  <advance width="500"/>
  <unicode hex="00AB"/>
  <outline>
    <contour>
      <point x="267" y="506" type="line"/>
      <point x="47" y="350" type="line"/>
      <point x="44" y="330" type="line"/>
      <point x="223" y="174" type="line"/>
      <point x="227" y="197" type="line"/>
      <point x="63" y="338" type="line"/>
      <point x="264" y="479" type="line"/>
    </contour>
    <contour>
      <point x="467" y="506" type="line"/>
      <point x="247" y="350" type="line"/>
      <point x="244" y="330" type="line"/>
      <point x="423" y="174" type="line"/>
      <point x="427" y="197" type="line"/>
      <point x="263" y="338" type="line"/>
      <point x="464" y="479" type="line"/>
    </contour>
  </outline>
</glyph>
<glyph name="logicalnot" format="1">
  <advance width="600"/>
  <unicode hex="00AC"/>
  <outline>
    <contour>
      <point x="71" y="540" type="line"/>
      <point x="550" y="540" type="line"/>
      <point x="508" y="220" type="line"/>
      <point x="528" y="220" type="line"/>
      <point x="573" y="560" type="line"/>
      <point x="74" y="560" type="line"/>
    </contour>
  </outline>
</glyph>
<glyph name="registered" format="1">
  <advance width="330"/>
  <unicode hex="00AE"/>
  <outline>
    <contour>
      <point x="24" y="665" type="curve" smooth="yes"/>
      <point x="24" y="587"/>
      <point x="87" y="524"/>
      <point x="165" y="524" type="curve" smooth="yes"/>
      <point x="243" y="524"/>
      <point x="306" y="587"/>
      <point x="306" y="665" type="curve" smooth="yes"/>
      <point x="306" y="743"/>
      <point x="243" y="806"/>
      <point x="165" y="806" type="curve" smooth="yes"/>
      <point x="87" y="806"/>
      <point x="24" y="743"/>
    </contour>
    <contour>
      <point x="40" y="665" type="curve" smooth="yes"/>
      <point x="40" y="734"/>
      <point x="96" y="790"/>
      <point x="165" y="790" type="curve" smooth="yes"/>
      <point x="234" y="790"/>
      <point x="290" y="734"/>
      <point x="290" y="665" type="curve" smooth="yes"/>
      <point x="290" y="596"/>
      <point x="234" y="540"/>
      <point x="165" y="540" type="curve" smooth="yes"/>
      <point x="96" y="540"/>
      <point x="40" y="596"/>
    </contour>
    <contour>
      <point x="219" y="696" type="curve" smooth="yes"/>
      <point x="219" y="704" type="line" smooth="yes"/>
      <point x="219" y="735"/>
      <point x="198" y="751"/>
      <point x="166" y="751" type="curve" smooth="yes"/>
      <point x="111" y="751" type="line"/>
      <point x="111" y="579" type="line"/>
      <point x="127" y="579" type="line"/>
      <point x="127" y="649" type="line"/>
      <point x="170" y="649" type="line"/>
      <point x="202" y="579" type="line"/>
      <point x="219" y="579" type="line"/>
      <point x="187" y="652" type="line"/>
      <point x="207" y="658"/>
      <point x="219" y="672"/>
    </contour>
    <contour>
      <point x="204" y="703" type="curve" smooth="yes"/>
      <point x="204" y="697" type="line" smooth="yes"/>
      <point x="204" y="674"/>
      <point x="192" y="665"/>
      <point x="163" y="665" type="curve" smooth="yes"/>
      <point x="127" y="665" type="line"/>
      <point x="127" y="735" type="line"/>
      <point x="163" y="735" type="line" smooth="yes"/>
      <point x="192" y="735"/>
      <point x="204" y="726"/>
    </contour>
  </outline>
</glyph>
<glyph name="macron" format="1">
  <advance width="500"/>
  <unicode hex="00AF"/>
  <outline>
    <contour>
      <point x="191" y="690" type="line"/>
      <point x="391" y="690" type="line"/>
      <point x="394" y="710" type="line"/>
      <point x="194" y="710" type="line"/>
    </contour>
  </outline>
</glyph>
<glyph name="degree" format="1">
  <advance width="400"/>
  <unicode hex="00B0"/>
  <outline>
    <contour>
      <point x="219" y="514" type="line" smooth="yes"/>
      <point x="148" y="514"/>
      <point x="98" y="558"/>
      <point x="108" y="636" type="curve" smooth="yes"/>
      <point x="109" y="644" type="line" smooth="yes"/>
      <point x="118" y="719"/>
      <point x="178" y="766"/>
      <point x="244" y="766" type="curve" smooth="yes"/>
      <point x="250" y="766" type="line" smooth="yes"/>
      <point x="321" y="766"/>
      <point x="371" y="722"/>
      <point x="361" y="644" type="curve" smooth="yes"/>
      <point x="360" y="636" type="line" smooth="yes"/>
      <point x="351" y="561"/>
      <point x="291" y="514"/>
      <point x="225" y="514" type="curve" smooth="yes"/>
    </contour>
    <contour>
      <point x="247" y="786" type="curve" smooth="yes"/>
      <point x="168" y="786"/>
      <point x="100" y="734"/>
      <point x="89" y="644" type="curve" smooth="yes"/>
      <point x="88" y="636" type="line" smooth="yes"/>
      <point x="77" y="547"/>
      <point x="137" y="494"/>
      <point x="222" y="494" type="curve" smooth="yes"/>
      <point x="301" y="494"/>
      <point x="369" y="546"/>
      <point x="380" y="636" type="curve" smooth="yes"/>
      <point x="381" y="644" type="line" smooth="yes"/>
      <point x="392" y="733"/>
      <point x="332" y="786"/>
    </contour>
  </outline>
</glyph>
<glyph name="plusminus" format="1">
  <advance width="600"/>
  <unicode hex="00B1"/>
  <outline>
    <contour>
      <point x="324" y="640" type="line"/>
      <point x="303" y="480" type="line"/>
      <point x="62" y="480" type="line"/>
      <point x="59" y="460" type="line"/>
      <point x="300" y="460" type="line"/>
      <point x="279" y="300" type="line"/>
      <point x="299" y="300" type="line"/>
      <point x="320" y="460" type="line"/>
      <point x="559" y="460" type="line"/>
      <point x="562" y="480" type="line"/>
      <point x="323" y="480" type="line"/>
      <point x="344" y="640" type="line"/>
    </contour>
    <contour>
      <point x="23" y="180" type="line"/>
      <point x="522" y="180" type="line"/>
      <point x="525" y="200" type="line"/>
      <point x="26" y="200" type="line"/>
    </contour>
  </outline>
</glyph>
<glyph name="twosuperior" format="1">
  <advance width="300"/>
  <unicode hex="00B2"/>
  <outline>
    <contour>
      <point x="106" y="410" type="line"/>
      <point x="65" y="409" type="line"/>
      <point x="250" y="577" type="line" smooth="yes"/>
      <point x="286" y="610"/>
      <point x="305" y="635"/>
      <point x="309" y="671" type="curve" smooth="yes"/>
      <point x="310" y="681" type="line" smooth="yes"/>
      <point x="316" y="746"/>
      <point x="277" y="785"/>
      <point x="201" y="785" type="curve" smooth="yes"/>
      <point x="118" y="785"/>
      <point x="78" y="740"/>
      <point x="68" y="665" type="curve" smooth="yes"/>
      <point x="66" y="650" type="line"/>
      <point x="86" y="650" type="line"/>
      <point x="96" y="735"/>
      <point x="131" y="766"/>
      <point x="198" y="766" type="curve" smooth="yes"/>
      <point x="204" y="766" type="line" smooth="yes"/>
      <point x="266" y="766"/>
      <point x="294" y="731"/>
      <point x="289" y="680" type="curve" smooth="yes"/>
      <point x="288" y="670" type="line" smooth="yes"/>
      <point x="285" y="642"/>
      <point x="271" y="621"/>
      <point x="233" y="586" type="curve" smooth="yes"/>
      <point x="34" y="405" type="line"/>
      <point x="32" y="390" type="line"/>
      <point x="267" y="390" type="line"/>
      <point x="270" y="410" type="line"/>
    </contour>
  </outline>
</glyph>
<glyph name="threesuperior" format="1">
  <advance width="300"/>
  <unicode hex="00B3"/>
  <outline>
    <contour>
      <point x="154" y="404" type="line" smooth="yes"/>
      <point x="91" y="404"/>
      <point x="52" y="434"/>
      <point x="65" y="515" type="curve"/>
      <point x="45" y="515" type="line"/>
      <point x="44" y="505" type="line" smooth="yes"/>
      <point x="37" y="432"/>
      <point x="72" y="385"/>
      <point x="157" y="385" type="curve" smooth="yes"/>
      <point x="223" y="385"/>
      <point x="280" y="420"/>
      <point x="287" y="486" type="curve" smooth="yes"/>
      <point x="288" y="496" type="line" smooth="yes"/>
      <point x="293" y="546"/>
      <point x="267" y="580"/>
      <point x="228" y="588" type="curve"/>
      <point x="273" y="597"/>
      <point x="304" y="630"/>
      <point x="309" y="676" type="curve" smooth="yes"/>
      <point x="310" y="686" type="line" smooth="yes"/>
      <point x="316" y="749"/>
      <point x="273" y="785"/>
      <point x="200" y="785" type="curve" smooth="yes"/>
      <point x="116" y="785"/>
      <point x="75" y="737"/>
      <point x="67" y="660" type="curve" smooth="yes"/>
      <point x="66" y="650" type="line"/>
      <point x="86" y="650" type="line"/>
      <point x="94" y="733"/>
      <point x="131" y="766"/>
      <point x="197" y="766" type="curve" smooth="yes"/>
      <point x="203" y="766" type="line" smooth="yes"/>
      <point x="262" y="766"/>
      <point x="294" y="735"/>
      <point x="289" y="685" type="curve" smooth="yes"/>
      <point x="288" y="675" type="line" smooth="yes"/>
      <point x="283" y="623"/>
      <point x="236" y="598"/>
      <point x="185" y="598" type="curve" smooth="yes"/>
      <point x="129" y="598" type="line"/>
      <point x="126" y="578" type="line"/>
      <point x="185" y="578" type="line" smooth="yes"/>
      <point x="237" y="578"/>
      <point x="273" y="553"/>
      <point x="267" y="496" type="curve" smooth="yes"/>
      <point x="266" y="486" type="line" smooth="yes"/>
      <point x="260" y="429"/>
      <point x="212" y="404"/>
      <point x="160" y="404" type="curve" smooth="yes"/>
    </contour>
  </outline>
</glyph>
<glyph name="acute" format="1">
  <advance width="500"/>
  <unicode hex="00B4"/>
  <outline>
    <contour>
      <point x="382" y="780" type="line"/>
      <point x="271" y="620" type="line"/>
      <point x="293" y="620" type="line"/>
      <point x="404" y="780" type="line"/>
    </contour>
  </outline>
</glyph>
<glyph name="paragraph" format="1">
  <advance width="500"/>
  <unicode hex="00B6"/>
  <outline>
    <contour>
      <point x="351" y="0" type="line"/>
      <point x="371" y="0" type="line"/>
      <point x="473" y="780" type="line"/>
      <point x="323" y="780" type="line" smooth="yes"/>
      <point x="217" y="780"/>
      <point x="97" y="742"/>
      <point x="76" y="575" type="curve" smooth="yes"/>
      <point x="73" y="551" type="line" smooth="yes"/>
      <point x="53" y="389"/>
      <point x="161" y="340"/>
      <point x="273" y="340" type="curve" smooth="yes"/>
      <point x="286" y="340" type="line"/>
      <point x="241" y="0" type="line"/>
      <point x="261" y="0" type="line"/>
      <point x="360" y="760" type="line"/>
      <point x="450" y="760" type="line"/>
    </contour>
    <contour>
      <point x="97" y="575" type="line" smooth="yes"/>
      <point x="117" y="738"/>
      <point x="241" y="760"/>
      <point x="323" y="760" type="curve" smooth="yes"/>
      <point x="340" y="760" type="line"/>
      <point x="288" y="360" type="line"/>
      <point x="273" y="360" type="line" smooth="yes"/>
      <point x="191" y="360"/>
      <point x="74" y="390"/>
      <point x="94" y="551" type="curve" smooth="yes"/>
    </contour>
  </outline>
</glyph>
<glyph name="periodcentered" format="1">
  <advance width="180"/>
  <unicode hex="00B7"/>
  <outline>
    <contour>
      <point x="108" y="360" type="line"/>
      <point x="68" y="360" type="line"/>
      <point x="63" y="320" type="line"/>
      <point x="103" y="320" type="line"/>
    </contour>
  </outline>
</glyph>
<glyph name="cedilla" format="1">
  <advance width="602"/>
  <unicode hex="00B8"/>
  <outline>
    <contour>
      <point x="98" y="-186" type="line"/>
      <point x="118" y="-198"/>
      <point x="152" y="-206"/>
      <point x="179" y="-206" type="curve" smooth="yes"/>
      <point x="227" y="-206"/>
      <point x="275" y="-186"/>
      <point x="275" y="-126" type="curve" smooth="yes"/>
      <point x="275" y="-78"/>
      <point x="234" y="-64"/>
      <point x="197" y="-64" type="curve" smooth="yes"/>
      <point x="190" y="-64"/>
      <point x="183" y="-64"/>
      <point x="178" y="-65" type="curve"/>
      <point x="210" y="0" type="line"/>
      <point x="191" y="0" type="line"/>
      <point x="155" y="-73" type="line"/>
      <point x="164" y="-84" type="line"/>
      <point x="164" y="-84"/>
      <point x="176" y="-82"/>
      <point x="190" y="-82" type="curve" smooth="yes"/>
      <point x="225" y="-82"/>
      <point x="257" y="-87"/>
      <point x="257" y="-126" type="curve" smooth="yes"/>
      <point x="257" y="-177"/>
      <point x="217" y="-188"/>
      <point x="179" y="-188" type="curve" smooth="yes"/>
      <point x="155" y="-188"/>
      <point x="121" y="-180"/>
      <point x="106" y="-170" type="curve"/>
    </contour>
  </outline>
</glyph>
<glyph name="onesuperior" format="1">
  <advance width="300"/>
  <unicode hex="00B9"/>
  <outline>
    <contour>
      <point x="273" y="390" type="line"/>
      <point x="276" y="410" type="line"/>
      <point x="169" y="410" type="line"/>
      <point x="218" y="782" type="line"/>
      <point x="203" y="782" type="line"/>
      <point x="68" y="699" type="line"/>
      <point x="78" y="681" type="line"/>
      <point x="194" y="752" type="line"/>
      <point x="149" y="410" type="line"/>
      <point x="41" y="410" type="line"/>
      <point x="38" y="390" type="line"/>
    </contour>
  </outline>
</glyph>
<glyph name="ordmasculine" format="1">
  <advance width="410"/>
  <unicode hex="00BA"/>
  <outline>
    <contour>
      <point x="37" y="230" type="line"/>
      <point x="335" y="230" type="line"/>
      <point x="338" y="250" type="line"/>
      <point x="40" y="250" type="line"/>
    </contour>
    <contour>
      <point x="370" y="571" type="line" smooth="yes"/>
      <point x="355" y="453"/>
      <point x="287" y="400"/>
      <point x="205" y="400" type="curve" smooth="yes"/>
      <point x="133" y="400"/>
      <point x="76" y="449"/>
      <point x="91" y="571" type="curve" smooth="yes"/>
      <point x="94" y="595" type="line" smooth="yes"/>
      <point x="109" y="713"/>
      <point x="177" y="766"/>
      <point x="259" y="766" type="curve" smooth="yes"/>
      <point x="331" y="766"/>
      <point x="388" y="717"/>
      <point x="373" y="595" type="curve" smooth="yes"/>
    </contour>
    <contour>
      <point x="393" y="595" type="line" smooth="yes"/>
      <point x="412" y="747"/>
      <point x="322" y="786"/>
      <point x="259" y="786" type="curve" smooth="yes"/>
      <point x="196" y="786"/>
      <point x="94" y="754"/>
      <point x="74" y="595" type="curve" smooth="yes"/>
      <point x="71" y="571" type="line" smooth="yes"/>
      <point x="52" y="419"/>
      <point x="142" y="380"/>
      <point x="205" y="380" type="curve" smooth="yes"/>
      <point x="268" y="380"/>
      <point x="370" y="412"/>
      <point x="390" y="571" type="curve" smooth="yes"/>
    </contour>
  </outline>
</glyph>
<glyph name="guillemotright" format="1">
  <advance width="500"/>
  <unicode hex="00BB"/>
  <outline>
    <contour>
      <point x="224" y="174" type="line"/>
      <point x="444" y="330" type="line"/>
      <point x="447" y="350" type="line"/>
      <point x="268" y="506" type="line"/>
      <point x="264" y="483" type="line"/>
      <point x="428" y="342" type="line"/>
      <point x="227" y="201" type="line"/>
    </contour>
    <contour>
      <point x="24" y="174" type="line"/>
      <point x="244" y="330" type="line"/>
      <point x="247" y="350" type="line"/>
      <point x="68" y="506" type="line"/>
      <point x="64" y="483" type="line"/>
      <point x="228" y="342" type="line"/>
      <point x="27" y="201" type="line"/>
    </contour>
  </outline>
</glyph>
<glyph name="onequarter" format="1">
  <advance width="800"/>
  <unicode hex="00BC"/>
  <outline>
    <contour>
      <point x="273" y="390" type="line"/>
      <point x="276" y="410" type="line"/>
      <point x="169" y="410" type="line"/>
      <point x="218" y="782" type="line"/>
      <point x="203" y="782" type="line"/>
      <point x="68" y="699" type="line"/>
      <point x="78" y="681" type="line"/>
      <point x="194" y="752" type="line"/>
      <point x="149" y="410" type="line"/>
      <point x="41" y="410" type="line"/>
      <point x="38" y="390" type="line"/>
    </contour>
    <contour>
      <point x="77" y="0" type="line"/>
      <point x="753" y="780" type="line"/>
      <point x="727" y="780" type="line"/>
      <point x="51" y="0" type="line"/>
    </contour>
    <contour>
      <point x="661" y="0" type="line"/>
      <point x="675" y="110" type="line"/>
      <point x="747" y="110" type="line"/>
      <point x="750" y="130" type="line"/>
      <point x="678" y="130" type="line"/>
      <point x="712" y="390" type="line"/>
      <point x="693" y="390" type="line"/>
      <point x="484" y="125" type="line"/>
      <point x="482" y="110" type="line"/>
      <point x="655" y="110" type="line"/>
      <point x="641" y="0" type="line"/>
    </contour>
    <contour>
      <point x="687" y="352" type="line"/>
      <point x="658" y="130" type="line"/>
      <point x="563" y="130" type="line"/>
      <point x="511" y="129" type="line"/>
    </contour>
  </outline>
</glyph>
<glyph name="onehalf" format="1">
  <advance width="800"/>
  <unicode hex="00BD"/>
  <outline>
    <contour>
      <point x="77" y="0" type="line"/>
      <point x="753" y="780" type="line"/>
      <point x="727" y="780" type="line"/>
      <point x="51" y="0" type="line"/>
    </contour>
    <contour>
      <point x="273" y="390" type="line"/>
      <point x="276" y="410" type="line"/>
      <point x="169" y="410" type="line"/>
      <point x="218" y="782" type="line"/>
      <point x="203" y="782" type="line"/>
      <point x="68" y="699" type="line"/>
      <point x="78" y="681" type="line"/>
      <point x="194" y="752" type="line"/>
      <point x="149" y="410" type="line"/>
      <point x="41" y="410" type="line"/>
      <point x="38" y="390" type="line"/>
    </contour>
    <contour>
      <point x="555" y="20" type="line"/>
      <point x="514" y="19" type="line"/>
      <point x="699" y="187" type="line" smooth="yes"/>
      <point x="735" y="220"/>
      <point x="754" y="245"/>
      <point x="758" y="281" type="curve" smooth="yes"/>
      <point x="759" y="291" type="line" smooth="yes"/>
      <point x="765" y="356"/>
      <point x="726" y="395"/>
      <point x="650" y="395" type="curve" smooth="yes"/>
      <point x="567" y="395"/>
      <point x="527" y="350"/>
      <point x="517" y="275" type="curve" smooth="yes"/>
      <point x="515" y="260" type="line"/>
      <point x="535" y="260" type="line"/>
      <point x="545" y="345"/>
      <point x="580" y="376"/>
      <point x="647" y="376" type="curve" smooth="yes"/>
      <point x="653" y="376" type="line" smooth="yes"/>
      <point x="715" y="376"/>
      <point x="743" y="341"/>
      <point x="738" y="290" type="curve" smooth="yes"/>
      <point x="737" y="280" type="line" smooth="yes"/>
      <point x="734" y="252"/>
      <point x="720" y="231"/>
      <point x="682" y="196" type="curve" smooth="yes"/>
      <point x="483" y="15" type="line"/>
      <point x="481" y="0" type="line"/>
      <point x="716" y="0" type="line"/>
      <point x="719" y="20" type="line"/>
    </contour>
  </outline>
</glyph>
<glyph name="threequarters" format="1">
  <advance width="800"/>
  <unicode hex="00BE"/>
  <outline>
    <contour>
      <point x="154" y="404" type="line" smooth="yes"/>
      <point x="91" y="404"/>
      <point x="52" y="434"/>
      <point x="65" y="515" type="curve"/>
      <point x="45" y="515" type="line"/>
      <point x="44" y="505" type="line" smooth="yes"/>
      <point x="37" y="432"/>
      <point x="72" y="385"/>
      <point x="157" y="385" type="curve" smooth="yes"/>
      <point x="223" y="385"/>
      <point x="280" y="420"/>
      <point x="287" y="486" type="curve" smooth="yes"/>
      <point x="288" y="496" type="line" smooth="yes"/>
      <point x="293" y="546"/>
      <point x="267" y="580"/>
      <point x="228" y="588" type="curve"/>
      <point x="273" y="597"/>
      <point x="304" y="630"/>
      <point x="309" y="676" type="curve" smooth="yes"/>
      <point x="310" y="686" type="line" smooth="yes"/>
      <point x="316" y="749"/>
      <point x="273" y="785"/>
      <point x="200" y="785" type="curve" smooth="yes"/>
      <point x="116" y="785"/>
      <point x="75" y="737"/>
      <point x="67" y="660" type="curve" smooth="yes"/>
      <point x="66" y="650" type="line"/>
      <point x="86" y="650" type="line"/>
      <point x="94" y="733"/>
      <point x="131" y="766"/>
      <point x="197" y="766" type="curve" smooth="yes"/>
      <point x="203" y="766" type="line" smooth="yes"/>
      <point x="262" y="766"/>
      <point x="294" y="735"/>
      <point x="289" y="685" type="curve" smooth="yes"/>
      <point x="288" y="675" type="line" smooth="yes"/>
      <point x="283" y="623"/>
      <point x="236" y="598"/>
      <point x="185" y="598" type="curve" smooth="yes"/>
      <point x="129" y="598" type="line"/>
      <point x="126" y="578" type="line"/>
      <point x="185" y="578" type="line" smooth="yes"/>
      <point x="237" y="578"/>
      <point x="273" y="553"/>
      <point x="267" y="496" type="curve" smooth="yes"/>
      <point x="266" y="486" type="line" smooth="yes"/>
      <point x="260" y="429"/>
      <point x="212" y="404"/>
      <point x="160" y="404" type="curve" smooth="yes"/>
    </contour>
    <contour>
      <point x="77" y="0" type="line"/>
      <point x="753" y="780" type="line"/>
      <point x="727" y="780" type="line"/>
      <point x="51" y="0" type="line"/>
    </contour>
    <contour>
      <point x="661" y="0" type="line"/>
      <point x="675" y="110" type="line"/>
      <point x="747" y="110" type="line"/>
      <point x="750" y="130" type="line"/>
      <point x="678" y="130" type="line"/>
      <point x="712" y="390" type="line"/>
      <point x="693" y="390" type="line"/>
      <point x="484" y="125" type="line"/>
      <point x="482" y="110" type="line"/>
      <point x="655" y="110" type="line"/>
      <point x="641" y="0" type="line"/>
    </contour>
    <contour>
      <point x="687" y="352" type="line"/>
      <point x="658" y="130" type="line"/>
      <point x="563" y="130" type="line"/>
      <point x="511" y="129" type="line"/>
    </contour>
  </outline>
</glyph>
<glyph name="questiondown" format="1">
  <advance width="440"/>
  <unicode hex="00BF"/>
  <outline>
    <contour>
      <point x="141" y="-206" type="curve" smooth="yes"/>
      <point x="269" y="-206"/>
      <point x="344" y="-111"/>
      <point x="362" y="36" type="curve" smooth="yes"/>
      <point x="365" y="60" type="line"/>
      <point x="345" y="60" type="line"/>
      <point x="330" y="-94"/>
      <point x="258" y="-186"/>
      <point x="141" y="-186" type="curve" smooth="yes"/>
      <point x="36" y="-186"/>
      <point x="0" y="-119"/>
      <point x="0" y="-45" type="curve" smooth="yes"/>
      <point x="0" y="136"/>
      <point x="201" y="143"/>
      <point x="224" y="355" type="curve"/>
      <point x="210" y="355" type="line"/>
      <point x="183" y="154"/>
      <point x="-21" y="145"/>
      <point x="-21" y="-44" type="curve" smooth="yes"/>
      <point x="-21" y="-132"/>
      <point x="24" y="-206"/>
    </contour>
    <contour>
      <point x="215" y="490" type="line"/>
      <point x="255" y="490" type="line"/>
      <point x="260" y="530" type="line"/>
      <point x="220" y="530" type="line"/>
    </contour>
  </outline>
</glyph>
<glyph name="Aacute" format="1">
  <advance width="590"/>
  <unicode hex="00C1"/>
  <outline>
    <contour>
      <point x="340" y="790" type="line"/>
      <point x="-14" y="0" type="line"/>
      <point x="8" y="0" type="line"/>
      <point x="110" y="230" type="line"/>
      <point x="444" y="230" type="line"/>
      <point x="486" y="0" type="line"/>
      <point x="506" y="0" type="line"/>
      <point x="360" y="790" type="line"/>
    </contour>
    <contour>
      <point x="347" y="760" type="line"/>
      <point x="440" y="250" type="line"/>
      <point x="119" y="250" type="line"/>
    </contour>
    <contour>
      <point x="422" y="950" type="line"/>
      <point x="345" y="840" type="line"/>
      <point x="367" y="840" type="line"/>
      <point x="444" y="950" type="line"/>
    </contour>
  </outline>
</glyph>
<glyph name="Atilde" format="1">
  <advance width="590"/>
  <unicode hex="00C3"/>
  <outline>
    <contour>
      <point x="340" y="790" type="line"/>
      <point x="-14" y="0" type="line"/>
      <point x="8" y="0" type="line"/>
      <point x="110" y="230" type="line"/>
      <point x="444" y="230" type="line"/>
      <point x="486" y="0" type="line"/>
      <point x="506" y="0" type="line"/>
      <point x="360" y="790" type="line"/>
    </contour>
    <contour>
      <point x="347" y="760" type="line"/>
      <point x="440" y="250" type="line"/>
      <point x="119" y="250" type="line"/>
    </contour>
    <contour>
      <point x="485" y="927" type="line"/>
      <point x="479" y="882"/>
      <point x="454" y="875"/>
      <point x="431" y="875" type="curve" smooth="yes"/>
      <point x="384" y="875"/>
      <point x="348" y="933"/>
      <point x="296" y="933" type="curve" smooth="yes"/>
      <point x="266" y="933"/>
      <point x="231" y="918"/>
      <point x="224" y="863" type="curve"/>
      <point x="242" y="863" type="line"/>
      <point x="248" y="908"/>
      <point x="273" y="915"/>
      <point x="296" y="915" type="curve" smooth="yes"/>
      <point x="343" y="915"/>
      <point x="379" y="857"/>
      <point x="431" y="857" type="curve" smooth="yes"/>
      <point x="461" y="857"/>
      <point x="496" y="872"/>
      <point x="503" y="927" type="curve"/>
    </contour>
  </outline>
</glyph>
<glyph name="Adieresis" format="1">
  <advance width="590"/>
  <unicode hex="00C4"/>
  <outline>
    <contour>
      <point x="340" y="790" type="line"/>
      <point x="-14" y="0" type="line"/>
      <point x="8" y="0" type="line"/>
      <point x="110" y="230" type="line"/>
      <point x="444" y="230" type="line"/>
      <point x="486" y="0" type="line"/>
      <point x="506" y="0" type="line"/>
      <point x="360" y="790" type="line"/>
    </contour>
    <contour>
      <point x="347" y="760" type="line"/>
      <point x="440" y="250" type="line"/>
      <point x="119" y="250" type="line"/>
    </contour>
    <contour>
      <point x="316" y="915" type="line"/>
      <point x="276" y="915" type="line"/>
      <point x="271" y="875" type="line"/>
      <point x="311" y="875" type="line"/>
    </contour>
    <contour>
      <point x="456" y="915" type="line"/>
      <point x="416" y="915" type="line"/>
      <point x="411" y="875" type="line"/>
      <point x="451" y="875" type="line"/>
    </contour>
  </outline>
</glyph>
<glyph name="Aring" format="1">
  <advance width="590"/>
  <unicode hex="00C5"/>
  <outline>
    <contour>
      <point x="347" y="760" type="line"/>
      <point x="440" y="250" type="line"/>
      <point x="119" y="250" type="line"/>
    </contour>
    <contour>
      <point x="367" y="938" type="curve" smooth="yes"/>
      <point x="404" y="938"/>
      <point x="428" y="917"/>
      <point x="428" y="878" type="curve" smooth="yes"/>
      <point x="428" y="833"/>
      <point x="395" y="802"/>
      <point x="352" y="802" type="curve" smooth="yes"/>
      <point x="315" y="802"/>
      <point x="291" y="823"/>
      <point x="291" y="862" type="curve" smooth="yes"/>
      <point x="291" y="907"/>
      <point x="324" y="938"/>
    </contour>
    <contour>
      <point x="367" y="956" type="curve" smooth="yes"/>
      <point x="317" y="956"/>
      <point x="272" y="914"/>
      <point x="272" y="862" type="curve" smooth="yes"/>
      <point x="272" y="819"/>
      <point x="297" y="790"/>
      <point x="338" y="785" type="curve"/>
      <point x="-14" y="0" type="line"/>
      <point x="8" y="0" type="line"/>
      <point x="110" y="230" type="line"/>
      <point x="444" y="230" type="line"/>
      <point x="486" y="0" type="line"/>
      <point x="506" y="0" type="line"/>
      <point x="361" y="784" type="line"/>
      <point x="407" y="789"/>
      <point x="447" y="829"/>
      <point x="447" y="878" type="curve" smooth="yes"/>
      <point x="447" y="926"/>
      <point x="416" y="956"/>
    </contour>
  </outline>
</glyph>
<glyph name="AE" format="1">
  <advance width="820"/>
  <unicode hex="00C6"/>
  <outline>
    <contour>
      <point x="378" y="780" type="line"/>
      <point x="-19" y="0" type="line"/>
      <point x="2" y="0" type="line"/>
      <point x="119" y="230" type="line"/>
      <point x="402" y="230" type="line"/>
      <point x="409" y="0" type="line"/>
      <point x="721" y="0" type="line"/>
      <point x="723" y="20" type="line"/>
      <point x="429" y="20" type="line"/>
      <point x="418" y="388" type="line"/>
      <point x="722" y="388" type="line"/>
      <point x="724" y="408" type="line"/>
      <point x="417" y="408" type="line"/>
      <point x="406" y="760" type="line"/>
      <point x="821" y="760" type="line"/>
      <point x="823" y="780" type="line"/>
    </contour>
    <contour>
      <point x="387" y="758" type="line"/>
      <point x="401" y="250" type="line"/>
      <point x="129" y="250" type="line"/>
    </contour>
  </outline>
</glyph>
<glyph name="Ccedilla" format="1">
  <advance width="593"/>
  <unicode hex="00C7"/>
  <outline>
    <contour>
      <point x="164" y="-186" type="line"/>
      <point x="184" y="-198"/>
      <point x="218" y="-206"/>
      <point x="245" y="-206" type="curve" smooth="yes"/>
      <point x="293" y="-206"/>
      <point x="341" y="-186"/>
      <point x="341" y="-126" type="curve" smooth="yes"/>
      <point x="341" y="-78"/>
      <point x="300" y="-64"/>
      <point x="263" y="-64" type="curve" smooth="yes"/>
      <point x="256" y="-64"/>
      <point x="249" y="-64"/>
      <point x="244" y="-65" type="curve"/>
      <point x="273" y="-6" type="line"/>
      <point x="423" y="-4"/>
      <point x="498" y="83"/>
      <point x="516" y="226" type="curve" smooth="yes"/>
      <point x="519" y="250" type="line"/>
      <point x="499" y="250" type="line"/>
      <point x="478" y="73"/>
      <point x="392" y="14"/>
      <point x="270" y="14" type="curve" smooth="yes"/>
      <point x="264" y="14" type="line" smooth="yes"/>
      <point x="113" y="14"/>
      <point x="53" y="118"/>
      <point x="86" y="378" type="curve" smooth="yes"/>
      <point x="89" y="402" type="line" smooth="yes"/>
      <point x="122" y="666"/>
      <point x="212" y="766"/>
      <point x="363" y="766" type="curve" smooth="yes"/>
      <point x="369" y="766" type="line" smooth="yes"/>
      <point x="506" y="766"/>
      <point x="559" y="705"/>
      <point x="531" y="500" type="curve"/>
      <point x="551" y="500" type="line"/>
      <point x="554" y="524" type="line" smooth="yes"/>
      <point x="578" y="714"/>
      <point x="517" y="786"/>
      <point x="366" y="786" type="curve" smooth="yes"/>
      <point x="201" y="786"/>
      <point x="103" y="680"/>
      <point x="68" y="402" type="curve" smooth="yes"/>
      <point x="65" y="378" type="line" smooth="yes"/>
      <point x="32" y="115"/>
      <point x="96" y="0"/>
      <point x="254" y="-6" type="curve"/>
      <point x="221" y="-73" type="line"/>
      <point x="230" y="-84" type="line"/>
      <point x="230" y="-84"/>
      <point x="242" y="-82"/>
      <point x="256" y="-82" type="curve" smooth="yes"/>
      <point x="291" y="-82"/>
      <point x="323" y="-87"/>
      <point x="323" y="-126" type="curve" smooth="yes"/>
      <point x="323" y="-177"/>
      <point x="283" y="-188"/>
      <point x="245" y="-188" type="curve" smooth="yes"/>
      <point x="221" y="-188"/>
      <point x="187" y="-180"/>
      <point x="172" y="-170" type="curve"/>
    </contour>
  </outline>
</glyph>
<glyph name="Ecircumflex" format="1">
  <advance width="540"/>
  <unicode hex="00CA"/>
  <outline>
    <contour>
      <point x="133" y="780" type="line"/>
      <point x="31" y="0" type="line"/>
      <point x="441" y="0" type="line"/>
      <point x="444" y="20" type="line"/>
      <point x="54" y="20" type="line"/>
      <point x="102" y="388" type="line"/>
      <point x="441" y="388" type="line"/>
      <point x="444" y="408" type="line"/>
      <point x="105" y="408" type="line"/>
      <point x="151" y="760" type="line"/>
      <point x="540" y="760" type="line"/>
      <point x="543" y="780" type="line"/>
    </contour>
    <contour>
      <point x="266" y="840" type="line"/>
      <point x="365" y="935" type="line"/>
      <point x="438" y="840" type="line"/>
      <point x="461" y="840" type="line"/>
      <point x="376" y="950" type="line"/>
      <point x="356" y="950" type="line"/>
      <point x="241" y="840" type="line"/>
    </contour>
  </outline>
</glyph>
<glyph name="Edieresis" format="1">
  <advance width="540"/>
  <unicode hex="00CB"/>
  <outline>
    <contour>
      <point x="133" y="780" type="line"/>
      <point x="31" y="0" type="line"/>
      <point x="441" y="0" type="line"/>
      <point x="444" y="20" type="line"/>
      <point x="54" y="20" type="line"/>
      <point x="102" y="388" type="line"/>
      <point x="441" y="388" type="line"/>
      <point x="444" y="408" type="line"/>
      <point x="105" y="408" type="line"/>
      <point x="151" y="760" type="line"/>
      <point x="540" y="760" type="line"/>
      <point x="543" y="780" type="line"/>
    </contour>
    <contour>
      <point x="311" y="915" type="line"/>
      <point x="271" y="915" type="line"/>
      <point x="266" y="875" type="line"/>
      <point x="306" y="875" type="line"/>
    </contour>
    <contour>
      <point x="451" y="915" type="line"/>
      <point x="411" y="915" type="line"/>
      <point x="406" y="875" type="line"/>
      <point x="446" y="875" type="line"/>
    </contour>
  </outline>
</glyph>
<glyph name="Igrave" format="1">
  <advance width="190"/>
  <unicode hex="00CC"/>
  <outline>
    <contour>
      <point x="158" y="780" type="line"/>
      <point x="138" y="780" type="line"/>
      <point x="36" y="0" type="line"/>
      <point x="56" y="0" type="line"/>
    </contour>
    <contour>
      <point x="98" y="950" type="line"/>
      <point x="145" y="840" type="line"/>
      <point x="167" y="840" type="line"/>
      <point x="120" y="950" type="line"/>
    </contour>
  </outline>
</glyph>
<glyph name="Iacute" format="1">
  <advance width="190"/>
  <unicode hex="00CD"/>
  <outline>
    <contour>
      <point x="158" y="780" type="line"/>
      <point x="138" y="780" type="line"/>
      <point x="36" y="0" type="line"/>
      <point x="56" y="0" type="line"/>
    </contour>
    <contour>
      <point x="222" y="950" type="line"/>
      <point x="145" y="840" type="line"/>
      <point x="167" y="840" type="line"/>
      <point x="244" y="950" type="line"/>
    </contour>
  </outline>
</glyph>
<glyph name="Icircumflex" format="1">
  <advance width="190"/>
  <unicode hex="00CE"/>
  <outline>
    <contour>
      <point x="158" y="780" type="line"/>
      <point x="138" y="780" type="line"/>
      <point x="36" y="0" type="line"/>
      <point x="56" y="0" type="line"/>
    </contour>
    <contour>
      <point x="71" y="840" type="line"/>
      <point x="170" y="935" type="line"/>
      <point x="243" y="840" type="line"/>
      <point x="266" y="840" type="line"/>
      <point x="181" y="950" type="line"/>
      <point x="161" y="950" type="line"/>
      <point x="46" y="840" type="line"/>
    </contour>
  </outline>
</glyph>
<glyph name="Idieresis" format="1">
  <advance width="190"/>
  <unicode hex="00CF"/>
  <outline>
    <contour>
      <point x="158" y="780" type="line"/>
      <point x="138" y="780" type="line"/>
      <point x="36" y="0" type="line"/>
      <point x="56" y="0" type="line"/>
    </contour>
    <contour>
      <point x="256" y="915" type="line"/>
      <point x="216" y="915" type="line"/>
      <point x="211" y="875" type="line"/>
      <point x="251" y="875" type="line"/>
    </contour>
    <contour>
      <point x="116" y="915" type="line"/>
      <point x="76" y="915" type="line"/>
      <point x="71" y="875" type="line"/>
      <point x="111" y="875" type="line"/>
    </contour>
  </outline>
</glyph>
<glyph name="Eth" format="1">
  <advance width="670"/>
  <unicode hex="00D0"/>
  <outline>
    <contour>
      <point x="27" y="388" type="line"/>
      <point x="137" y="388" type="line"/>
      <point x="86" y="0" type="line"/>
      <point x="270" y="0" type="line" smooth="yes"/>
      <point x="435" y="0"/>
      <point x="575" y="98"/>
      <point x="610" y="378" type="curve" smooth="yes"/>
      <point x="613" y="402" type="line" smooth="yes"/>
      <point x="648" y="683"/>
      <point x="541" y="780"/>
      <point x="376" y="780" type="curve" smooth="yes"/>
      <point x="188" y="780" type="line"/>
      <point x="139" y="408" type="line"/>
      <point x="30" y="408" type="line"/>
    </contour>
    <contour>
      <point x="109" y="20" type="line"/>
      <point x="157" y="388" type="line"/>
      <point x="387" y="388" type="line"/>
      <point x="390" y="408" type="line"/>
      <point x="160" y="408" type="line"/>
      <point x="206" y="760" type="line"/>
      <point x="376" y="760" type="line" smooth="yes"/>
      <point x="536" y="760"/>
      <point x="625" y="664"/>
      <point x="592" y="402" type="curve" smooth="yes"/>
      <point x="589" y="378" type="line" smooth="yes"/>
      <point x="556" y="115"/>
      <point x="430" y="20"/>
      <point x="270" y="20" type="curve" smooth="yes"/>
    </contour>
  </outline>
</glyph>
<glyph name="Ntilde" format="1">
  <advance width="640"/>
  <unicode hex="00D1"/>
  <outline>
    <contour>
      <point x="496" y="32" type="line"/>
      <point x="155" y="780" type="line"/>
      <point x="133" y="780" type="line"/>
      <point x="31" y="0" type="line"/>
      <point x="51" y="0" type="line"/>
      <point x="130" y="605" type="line"/>
      <point x="148" y="748" type="line"/>
      <point x="489" y="0" type="line"/>
      <point x="511" y="0" type="line"/>
      <point x="613" y="780" type="line"/>
      <point x="593" y="780" type="line"/>
      <point x="514" y="175" type="line"/>
    </contour>
    <contour>
      <point x="510" y="927" type="line"/>
      <point x="504" y="882"/>
      <point x="479" y="875"/>
      <point x="456" y="875" type="curve" smooth="yes"/>
      <point x="409" y="875"/>
      <point x="373" y="933"/>
      <point x="321" y="933" type="curve" smooth="yes"/>
      <point x="291" y="933"/>
      <point x="256" y="918"/>
      <point x="249" y="863" type="curve"/>
      <point x="267" y="863" type="line"/>
      <point x="273" y="908"/>
      <point x="298" y="915"/>
      <point x="321" y="915" type="curve" smooth="yes"/>
      <point x="368" y="915"/>
      <point x="404" y="857"/>
      <point x="456" y="857" type="curve" smooth="yes"/>
      <point x="486" y="857"/>
      <point x="521" y="872"/>
      <point x="528" y="927" type="curve"/>
    </contour>
  </outline>
</glyph>
<glyph name="Otilde" format="1">
  <advance width="630"/>
  <unicode hex="00D5"/>
  <outline>
    <contour>
      <point x="269" y="14" type="line" smooth="yes"/>
      <point x="118" y="14"/>
      <point x="53" y="118"/>
      <point x="86" y="378" type="curve" smooth="yes"/>
      <point x="89" y="402" type="line" smooth="yes"/>
      <point x="122" y="666"/>
      <point x="207" y="766"/>
      <point x="358" y="766" type="curve" smooth="yes"/>
      <point x="364" y="766" type="line" smooth="yes"/>
      <point x="515" y="766"/>
      <point x="580" y="662"/>
      <point x="547" y="402" type="curve" smooth="yes"/>
      <point x="544" y="378" type="line" smooth="yes"/>
      <point x="511" y="114"/>
      <point x="426" y="14"/>
      <point x="275" y="14" type="curve" smooth="yes"/>
    </contour>
    <contour>
      <point x="361" y="786" type="curve" smooth="yes"/>
      <point x="196" y="786"/>
      <point x="103" y="680"/>
      <point x="68" y="402" type="curve" smooth="yes"/>
      <point x="65" y="378" type="line" smooth="yes"/>
      <point x="31" y="108"/>
      <point x="105" y="-6"/>
      <point x="272" y="-6" type="curve" smooth="yes"/>
      <point x="437" y="-6"/>
      <point x="530" y="100"/>
      <point x="565" y="378" type="curve" smooth="yes"/>
      <point x="568" y="402" type="line" smooth="yes"/>
      <point x="602" y="672"/>
      <point x="528" y="786"/>
    </contour>
    <contour>
      <point x="505" y="927" type="line"/>
      <point x="499" y="882"/>
      <point x="474" y="875"/>
      <point x="451" y="875" type="curve" smooth="yes"/>
      <point x="404" y="875"/>
      <point x="368" y="933"/>
      <point x="316" y="933" type="curve" smooth="yes"/>
      <point x="286" y="933"/>
      <point x="251" y="918"/>
      <point x="244" y="863" type="curve"/>
      <point x="262" y="863" type="line"/>
      <point x="268" y="908"/>
      <point x="293" y="915"/>
      <point x="316" y="915" type="curve" smooth="yes"/>
      <point x="363" y="915"/>
      <point x="399" y="857"/>
      <point x="451" y="857" type="curve" smooth="yes"/>
      <point x="481" y="857"/>
      <point x="516" y="872"/>
      <point x="523" y="927" type="curve"/>
    </contour>
  </outline>
</glyph>
<glyph name="multiply" format="1">
  <advance width="600"/>
  <unicode hex="00D7"/>
  <outline>
    <contour>
      <point x="77" y="630" type="line"/>
      <point x="286" y="390" type="line"/>
      <point x="14" y="150" type="line"/>
      <point x="29" y="135" type="line"/>
      <point x="301" y="375" type="line"/>
      <point x="509" y="135" type="line"/>
      <point x="524" y="150" type="line"/>
      <point x="316" y="390" type="line"/>
      <point x="587" y="630" type="line"/>
      <point x="572" y="645" type="line"/>
      <point x="301" y="405" type="line"/>
      <point x="92" y="645" type="line"/>
    </contour>
  </outline>
</glyph>
<glyph name="Oslash" format="1">
  <advance width="626"/>
  <unicode hex="00D8"/>
  <outline>
    <contour>
      <point x="86" y="378" type="curve" smooth="yes"/>
      <point x="89" y="402" type="line" smooth="yes"/>
      <point x="122" y="666"/>
      <point x="207" y="766"/>
      <point x="358" y="766" type="curve" smooth="yes"/>
      <point x="364" y="766" type="line" smooth="yes"/>
      <point x="438" y="766"/>
      <point x="492" y="740"/>
      <point x="523" y="684" type="curve"/>
      <point x="101" y="115" type="line"/>
      <point x="76" y="174"/>
      <point x="71" y="259"/>
    </contour>
    <contour>
      <point x="39" y="0" type="line"/>
      <point x="97" y="78" type="line"/>
      <point x="133" y="21"/>
      <point x="192" y="-6"/>
      <point x="272" y="-6" type="curve" smooth="yes"/>
      <point x="437" y="-6"/>
      <point x="530" y="100"/>
      <point x="565" y="378" type="curve" smooth="yes"/>
      <point x="568" y="402" type="line" smooth="yes"/>
      <point x="584" y="530"/>
      <point x="576" y="622"/>
      <point x="546" y="684" type="curve"/>
      <point x="617" y="780" type="line"/>
      <point x="594" y="780" type="line"/>
      <point x="536" y="702" type="line"/>
      <point x="500" y="759"/>
      <point x="441" y="786"/>
      <point x="361" y="786" type="curve" smooth="yes"/>
      <point x="196" y="786"/>
      <point x="103" y="680"/>
      <point x="68" y="402" type="curve" smooth="yes"/>
      <point x="65" y="378" type="line" smooth="yes"/>
      <point x="49" y="250"/>
      <point x="57" y="158"/>
      <point x="87" y="96" type="curve"/>
      <point x="16" y="0" type="line"/>
    </contour>
    <contour>
      <point x="544" y="378" type="line" smooth="yes"/>
      <point x="511" y="114"/>
      <point x="426" y="14"/>
      <point x="275" y="14" type="curve" smooth="yes"/>
      <point x="269" y="14" type="line" smooth="yes"/>
      <point x="195" y="14"/>
      <point x="141" y="40"/>
      <point x="110" y="96" type="curve"/>
      <point x="532" y="665" type="line"/>
      <point x="557" y="606"/>
      <point x="562" y="521"/>
      <point x="547" y="402" type="curve" smooth="yes"/>
    </contour>
  </outline>
</glyph>
<glyph name="Uacute" format="1">
  <advance width="620"/>
  <unicode hex="00DA"/>
  <outline>
    <contour>
      <point x="267" y="-6" type="curve" smooth="yes"/>
      <point x="407" y="-6"/>
      <point x="500" y="46"/>
      <point x="525" y="239" type="curve" smooth="yes"/>
      <point x="596" y="780" type="line"/>
      <point x="576" y="780" type="line"/>
      <point x="506" y="245" type="line" smooth="yes"/>
      <point x="482" y="64"/>
      <point x="402" y="14"/>
      <point x="267" y="14" type="curve" smooth="yes"/>
      <point x="132" y="14"/>
      <point x="56" y="63"/>
      <point x="80" y="244" type="curve" smooth="yes"/>
      <point x="150" y="780" type="line"/>
      <point x="130" y="780" type="line"/>
      <point x="59" y="239" type="line" smooth="yes"/>
      <point x="34" y="46"/>
      <point x="127" y="-6"/>
    </contour>
    <contour>
      <point x="437" y="950" type="line"/>
      <point x="360" y="840" type="line"/>
      <point x="382" y="840" type="line"/>
      <point x="459" y="950" type="line"/>
    </contour>
  </outline>
</glyph>
<glyph name="Ucircumflex" format="1">
  <advance width="620"/>
  <unicode hex="00DB"/>
  <outline>
    <contour>
      <point x="267" y="-6" type="curve" smooth="yes"/>
      <point x="407" y="-6"/>
      <point x="500" y="46"/>
      <point x="525" y="239" type="curve" smooth="yes"/>
      <point x="596" y="780" type="line"/>
      <point x="576" y="780" type="line"/>
      <point x="506" y="245" type="line" smooth="yes"/>
      <point x="482" y="64"/>
      <point x="402" y="14"/>
      <point x="267" y="14" type="curve" smooth="yes"/>
      <point x="132" y="14"/>
      <point x="56" y="63"/>
      <point x="80" y="244" type="curve" smooth="yes"/>
      <point x="150" y="780" type="line"/>
      <point x="130" y="780" type="line"/>
      <point x="59" y="239" type="line" smooth="yes"/>
      <point x="34" y="46"/>
      <point x="127" y="-6"/>
    </contour>
    <contour>
      <point x="286" y="840" type="line"/>
      <point x="385" y="935" type="line"/>
      <point x="458" y="840" type="line"/>
      <point x="481" y="840" type="line"/>
      <point x="396" y="950" type="line"/>
      <point x="376" y="950" type="line"/>
      <point x="261" y="840" type="line"/>
    </contour>
  </outline>
</glyph>
<glyph name="Thorn" format="1">
  <advance width="544"/>
  <unicode hex="00DE"/>
  <outline>
    <contour>
      <point x="76" y="190" type="line"/>
      <point x="128" y="590" type="line"/>
      <point x="298" y="590" type="line" smooth="yes"/>
      <point x="380" y="590"/>
      <point x="497" y="560"/>
      <point x="477" y="399" type="curve" smooth="yes"/>
      <point x="474" y="375" type="line" smooth="yes"/>
      <point x="454" y="212"/>
      <point x="330" y="190"/>
      <point x="248" y="190" type="curve" smooth="yes"/>
    </contour>
    <contour>
      <point x="153" y="780" type="line"/>
      <point x="133" y="780" type="line"/>
      <point x="31" y="0" type="line"/>
      <point x="51" y="0" type="line"/>
      <point x="73" y="170" type="line"/>
      <point x="248" y="170" type="line" smooth="yes"/>
      <point x="354" y="170"/>
      <point x="474" y="208"/>
      <point x="495" y="375" type="curve" smooth="yes"/>
      <point x="498" y="399" type="line" smooth="yes"/>
      <point x="518" y="561"/>
      <point x="410" y="610"/>
      <point x="298" y="610" type="curve" smooth="yes"/>
      <point x="131" y="610" type="line"/>
    </contour>
  </outline>
</glyph>
<glyph name="germandbls" format="1">
  <advance width="550"/>
  <unicode hex="00DF"/>
  <outline>
    <contour>
      <point x="261" y="393" type="line"/>
      <point x="312" y="356" type="line" smooth="yes"/>
      <point x="399" y="294"/>
      <point x="463" y="253"/>
      <point x="463" y="176" type="curve" smooth="yes"/>
      <point x="463" y="77"/>
      <point x="400" y="14"/>
      <point x="305" y="14" type="curve" smooth="yes"/>
      <point x="199" y="14"/>
      <point x="167" y="81"/>
      <point x="182" y="160" type="curve"/>
      <point x="162" y="160" type="line"/>
      <point x="160" y="144" type="line" smooth="yes"/>
      <point x="151" y="71"/>
      <point x="185" y="-6"/>
      <point x="305" y="-6" type="curve" smooth="yes"/>
      <point x="420" y="-6"/>
      <point x="471" y="74"/>
      <point x="480" y="149" type="curve" smooth="yes"/>
      <point x="481" y="157" type="line" smooth="yes"/>
      <point x="492" y="246"/>
      <point x="437" y="290"/>
      <point x="333" y="365" type="curve" smooth="yes"/>
      <point x="285" y="399" type="line"/>
      <point x="392" y="458"/>
      <point x="459" y="518"/>
      <point x="470" y="606" type="curve" smooth="yes"/>
      <point x="471" y="614" type="line" smooth="yes"/>
      <point x="485" y="722"/>
      <point x="446" y="806"/>
      <point x="310" y="806" type="curve" smooth="yes"/>
      <point x="186" y="806"/>
      <point x="126" y="731"/>
      <point x="111" y="614" type="curve" smooth="yes"/>
      <point x="31" y="0" type="line"/>
      <point x="51" y="0" type="line"/>
      <point x="131" y="610" type="line" smooth="yes"/>
      <point x="146" y="721"/>
      <point x="195" y="786"/>
      <point x="310" y="786" type="curve" smooth="yes"/>
      <point x="410" y="786"/>
      <point x="454" y="736"/>
      <point x="454" y="648" type="curve" smooth="yes"/>
      <point x="454" y="531"/>
      <point x="385" y="470"/>
      <point x="263" y="408" type="curve"/>
    </contour>
  </outline>
</glyph>
<glyph name="aring" format="1">
  <advance width="485"/>
  <unicode hex="00E5"/>
  <outline>
    <contour>
      <point x="18" y="128" type="line" smooth="yes"/>
      <point x="7" y="38"/>
      <point x="73" y="-6"/>
      <point x="158" y="-6" type="curve" smooth="yes"/>
      <point x="272" y="-6"/>
      <point x="328" y="46"/>
      <point x="360" y="86" type="curve"/>
      <point x="355" y="0" type="line"/>
      <point x="371" y="0" type="line"/>
      <point x="381" y="118" type="line"/>
      <point x="413" y="364" type="line" smooth="yes"/>
      <point x="425" y="458"/>
      <point x="401" y="536"/>
      <point x="263" y="536" type="curve" smooth="yes"/>
      <point x="121" y="536"/>
      <point x="85" y="453"/>
      <point x="74" y="366" type="curve" smooth="yes"/>
      <point x="72" y="350" type="line"/>
      <point x="92" y="350" type="line"/>
      <point x="104" y="445"/>
      <point x="133" y="516"/>
      <point x="263" y="516" type="curve" smooth="yes"/>
      <point x="390" y="516"/>
      <point x="404" y="443"/>
      <point x="392" y="354" type="curve" smooth="yes"/>
      <point x="387" y="316" type="line"/>
      <point x="203" y="288" type="line" smooth="yes"/>
      <point x="113" y="274"/>
      <point x="34" y="254"/>
      <point x="20" y="144" type="curve" smooth="yes"/>
    </contour>
    <contour>
      <point x="158" y="14" type="curve" smooth="yes"/>
      <point x="71" y="14"/>
      <point x="30" y="63"/>
      <point x="38" y="128" type="curve" smooth="yes"/>
      <point x="40" y="144" type="line" smooth="yes"/>
      <point x="52" y="238"/>
      <point x="117" y="255"/>
      <point x="193" y="267" type="curve" smooth="yes"/>
      <point x="384" y="296" type="line"/>
      <point x="360" y="111" type="line"/>
      <point x="335" y="79"/>
      <point x="284" y="14"/>
    </contour>
    <contour>
      <point x="295" y="768" type="curve" smooth="yes"/>
      <point x="332" y="768"/>
      <point x="356" y="747"/>
      <point x="356" y="708" type="curve" smooth="yes"/>
      <point x="356" y="663"/>
      <point x="323" y="632"/>
      <point x="280" y="632" type="curve" smooth="yes"/>
      <point x="243" y="632"/>
      <point x="219" y="653"/>
      <point x="219" y="692" type="curve" smooth="yes"/>
      <point x="219" y="737"/>
      <point x="252" y="768"/>
    </contour>
    <contour>
      <point x="295" y="786" type="curve" smooth="yes"/>
      <point x="245" y="786"/>
      <point x="200" y="744"/>
      <point x="200" y="692" type="curve" smooth="yes"/>
      <point x="200" y="644"/>
      <point x="231" y="614"/>
      <point x="280" y="614" type="curve" smooth="yes"/>
      <point x="330" y="614"/>
      <point x="375" y="656"/>
      <point x="375" y="708" type="curve" smooth="yes"/>
      <point x="375" y="756"/>
      <point x="344" y="786"/>
    </contour>
  </outline>
</glyph>
<glyph name="ae" format="1">
  <advance width="865"/>
  <unicode hex="00E6"/>
  <outline>
    <contour>
      <point x="158" y="14" type="curve" smooth="yes"/>
      <point x="71" y="14"/>
      <point x="30" y="63"/>
      <point x="38" y="128" type="curve" smooth="yes"/>
      <point x="40" y="144" type="line" smooth="yes"/>
      <point x="52" y="240"/>
      <point x="117" y="255"/>
      <point x="193" y="267" type="curve" smooth="yes"/>
      <point x="384" y="296" type="line"/>
      <point x="379" y="253" type="line" smooth="yes"/>
      <point x="374" y="212"/>
      <point x="375" y="181"/>
      <point x="382" y="143" type="curve"/>
      <point x="349" y="85"/>
      <point x="285" y="14"/>
    </contour>
    <contour>
      <point x="573" y="-6" type="curve" smooth="yes"/>
      <point x="723" y="-6"/>
      <point x="777" y="78"/>
      <point x="786" y="154" type="curve" smooth="yes"/>
      <point x="788" y="170" type="line"/>
      <point x="768" y="170" type="line"/>
      <point x="760" y="87"/>
      <point x="711" y="14"/>
      <point x="573" y="14" type="curve" smooth="yes"/>
      <point x="451" y="14"/>
      <point x="380" y="105"/>
      <point x="399" y="255" type="curve"/>
      <point x="799" y="255" type="line"/>
      <point x="801" y="271" type="line" smooth="yes"/>
      <point x="820" y="424"/>
      <point x="778" y="536"/>
      <point x="622" y="536" type="curve" smooth="yes"/>
      <point x="537" y="536"/>
      <point x="453" y="493"/>
      <point x="414" y="392" type="curve"/>
      <point x="417" y="469"/>
      <point x="391" y="536"/>
      <point x="263" y="536" type="curve" smooth="yes"/>
      <point x="121" y="536"/>
      <point x="85" y="453"/>
      <point x="74" y="366" type="curve" smooth="yes"/>
      <point x="72" y="350" type="line"/>
      <point x="92" y="350" type="line"/>
      <point x="104" y="445"/>
      <point x="133" y="516"/>
      <point x="263" y="516" type="curve" smooth="yes"/>
      <point x="390" y="516"/>
      <point x="404" y="444"/>
      <point x="392" y="354" type="curve" smooth="yes"/>
      <point x="387" y="316" type="line"/>
      <point x="203" y="288" type="line" smooth="yes"/>
      <point x="113" y="274"/>
      <point x="35" y="264"/>
      <point x="20" y="144" type="curve" smooth="yes"/>
      <point x="18" y="128" type="line" smooth="yes"/>
      <point x="7" y="38"/>
      <point x="73" y="-6"/>
      <point x="158" y="-6" type="curve" smooth="yes"/>
      <point x="290" y="-6"/>
      <point x="350" y="64"/>
      <point x="388" y="122" type="curve"/>
      <point x="410" y="48"/>
      <point x="474" y="-6"/>
    </contour>
    <contour>
      <point x="622" y="516" type="curve" smooth="yes"/>
      <point x="756" y="516"/>
      <point x="800" y="416"/>
      <point x="782" y="275" type="curve"/>
      <point x="402" y="275" type="line"/>
      <point x="421" y="425"/>
      <point x="500" y="516"/>
    </contour>
  </outline>
</glyph>
<glyph name="ccedilla" format="1">
  <advance width="505"/>
  <unicode hex="00E7"/>
  <outline>
    <contour>
      <point x="116" y="-186" type="line"/>
      <point x="136" y="-198"/>
      <point x="170" y="-206"/>
      <point x="197" y="-206" type="curve" smooth="yes"/>
      <point x="245" y="-206"/>
      <point x="293" y="-186"/>
      <point x="293" y="-126" type="curve" smooth="yes"/>
      <point x="293" y="-78"/>
      <point x="252" y="-64"/>
      <point x="215" y="-64" type="curve" smooth="yes"/>
      <point x="208" y="-64"/>
      <point x="201" y="-64"/>
      <point x="196" y="-65" type="curve"/>
      <point x="225" y="-6" type="line"/>
      <point x="358" y="-4"/>
      <point x="413" y="84"/>
      <point x="422" y="159" type="curve" smooth="yes"/>
      <point x="424" y="175" type="line"/>
      <point x="404" y="175" type="line"/>
      <point x="393" y="81"/>
      <point x="337" y="14"/>
      <point x="220" y="14" type="curve" smooth="yes"/>
      <point x="98" y="14"/>
      <point x="40" y="105"/>
      <point x="59" y="253" type="curve" smooth="yes"/>
      <point x="62" y="277" type="line" smooth="yes"/>
      <point x="81" y="425"/>
      <point x="156" y="516"/>
      <point x="278" y="516" type="curve" smooth="yes"/>
      <point x="404" y="516"/>
      <point x="442" y="444"/>
      <point x="426" y="345" type="curve"/>
      <point x="446" y="345" type="line"/>
      <point x="448" y="361" type="line" smooth="yes"/>
      <point x="459" y="446"/>
      <point x="427" y="536"/>
      <point x="278" y="536" type="curve" smooth="yes"/>
      <point x="144" y="536"/>
      <point x="62" y="439"/>
      <point x="42" y="277" type="curve" smooth="yes"/>
      <point x="39" y="253" type="line" smooth="yes"/>
      <point x="19" y="97"/>
      <point x="81" y="0"/>
      <point x="206" y="-6" type="curve"/>
      <point x="173" y="-73" type="line"/>
      <point x="182" y="-84" type="line"/>
      <point x="182" y="-84"/>
      <point x="194" y="-82"/>
      <point x="208" y="-82" type="curve" smooth="yes"/>
      <point x="243" y="-82"/>
      <point x="275" y="-87"/>
      <point x="275" y="-126" type="curve" smooth="yes"/>
      <point x="275" y="-177"/>
      <point x="235" y="-188"/>
      <point x="197" y="-188" type="curve" smooth="yes"/>
      <point x="173" y="-188"/>
      <point x="139" y="-180"/>
      <point x="124" y="-170" type="curve"/>
    </contour>
  </outline>
</glyph>
<glyph name="igrave" format="1">
  <advance width="180"/>
  <unicode hex="00EC"/>
  <outline>
    <contour>
      <point x="31" y="0" type="line"/>
      <point x="51" y="0" type="line"/>
      <point x="120" y="530" type="line"/>
      <point x="100" y="530" type="line"/>
    </contour>
    <contour>
      <point x="42" y="780" type="line"/>
      <point x="111" y="620" type="line"/>
      <point x="133" y="620" type="line"/>
      <point x="64" y="780" type="line"/>
    </contour>
  </outline>
</glyph>
<glyph name="iacute" format="1">
  <advance width="180"/>
  <unicode hex="00ED"/>
  <outline>
    <contour>
      <point x="31" y="0" type="line"/>
      <point x="51" y="0" type="line"/>
      <point x="120" y="530" type="line"/>
      <point x="100" y="530" type="line"/>
    </contour>
    <contour>
      <point x="222" y="780" type="line"/>
      <point x="111" y="620" type="line"/>
      <point x="133" y="620" type="line"/>
      <point x="244" y="780" type="line"/>
    </contour>
  </outline>
</glyph>
<glyph name="icircumflex" format="1">
  <advance width="180"/>
  <unicode hex="00EE"/>
  <outline>
    <contour>
      <point x="31" y="0" type="line"/>
      <point x="51" y="0" type="line"/>
      <point x="120" y="530" type="line"/>
      <point x="100" y="530" type="line"/>
    </contour>
    <contour>
      <point x="257" y="620" type="line"/>
      <point x="153" y="780" type="line"/>
      <point x="133" y="780" type="line"/>
      <point x="-13" y="620" type="line"/>
      <point x="13" y="620" type="line"/>
      <point x="142" y="762" type="line"/>
      <point x="233" y="620" type="line"/>
    </contour>
  </outline>
</glyph>
<glyph name="idieresis" format="1">
  <advance width="180"/>
  <unicode hex="00EF"/>
  <outline>
    <contour>
      <point x="31" y="0" type="line"/>
      <point x="51" y="0" type="line"/>
      <point x="120" y="530" type="line"/>
      <point x="100" y="530" type="line"/>
    </contour>
    <contour>
      <point x="85" y="720" type="line"/>
      <point x="45" y="720" type="line"/>
      <point x="40" y="680" type="line"/>
      <point x="80" y="680" type="line"/>
    </contour>
    <contour>
      <point x="225" y="720" type="line"/>
      <point x="185" y="720" type="line"/>
      <point x="180" y="680" type="line"/>
      <point x="220" y="680" type="line"/>
    </contour>
  </outline>
</glyph>
<glyph name="eth" format="1">
  <advance width="526"/>
  <unicode hex="00F0"/>
  <outline>
    <contour>
      <point x="220" y="14" type="curve" smooth="yes"/>
      <point x="98" y="14"/>
      <point x="40" y="105"/>
      <point x="59" y="253" type="curve" smooth="yes"/>
      <point x="62" y="277" type="line" smooth="yes"/>
      <point x="81" y="425"/>
      <point x="156" y="516"/>
      <point x="278" y="516" type="curve" smooth="yes"/>
      <point x="400" y="516"/>
      <point x="458" y="425"/>
      <point x="439" y="277" type="curve" smooth="yes"/>
      <point x="436" y="253" type="line" smooth="yes"/>
      <point x="417" y="105"/>
      <point x="342" y="14"/>
    </contour>
    <contour>
      <point x="423" y="806" type="line"/>
      <point x="294" y="736" type="line"/>
      <point x="236" y="777"/>
      <point x="174" y="798"/>
      <point x="113" y="806" type="curve"/>
      <point x="110" y="786" type="line"/>
      <point x="156" y="779"/>
      <point x="217" y="761"/>
      <point x="273" y="724" type="curve"/>
      <point x="131" y="646" type="line"/>
      <point x="127" y="622" type="line"/>
      <point x="291" y="711" type="line"/>
      <point x="322" y="688"/>
      <point x="353" y="660"/>
      <point x="379" y="623" type="curve" smooth="yes"/>
      <point x="420" y="566"/>
      <point x="439" y="495"/>
      <point x="445" y="425" type="curve"/>
      <point x="421" y="496"/>
      <point x="364" y="536"/>
      <point x="278" y="536" type="curve" smooth="yes"/>
      <point x="144" y="536"/>
      <point x="62" y="439"/>
      <point x="42" y="277" type="curve" smooth="yes"/>
      <point x="39" y="253" type="line" smooth="yes"/>
      <point x="19" y="91"/>
      <point x="86" y="-6"/>
      <point x="220" y="-6" type="curve" smooth="yes"/>
      <point x="354" y="-6"/>
      <point x="436" y="91"/>
      <point x="456" y="253" type="curve" smooth="yes"/>
      <point x="459" y="277" type="line" smooth="yes"/>
      <point x="474" y="394"/>
      <point x="470" y="532"/>
      <point x="393" y="637" type="curve" smooth="yes"/>
      <point x="368" y="671"/>
      <point x="341" y="700"/>
      <point x="312" y="723" type="curve"/>
      <point x="419" y="782" type="line"/>
    </contour>
  </outline>
</glyph>
<glyph name="ntilde" format="1">
  <advance width="490"/>
  <unicode hex="00F1"/>
  <outline>
    <contour>
      <point x="381" y="0" type="line"/>
      <point x="431" y="381" type="line" smooth="yes"/>
      <point x="445" y="490"/>
      <point x="383" y="536"/>
      <point x="283" y="536" type="curve" smooth="yes"/>
      <point x="185" y="536"/>
      <point x="129" y="486"/>
      <point x="96" y="444" type="curve"/>
      <point x="101" y="530" type="line"/>
      <point x="85" y="530" type="line"/>
      <point x="75" y="412" type="line"/>
      <point x="21" y="0" type="line"/>
      <point x="41" y="0" type="line"/>
      <point x="96" y="419" type="line"/>
      <point x="129" y="462"/>
      <point x="187" y="516"/>
      <point x="283" y="516" type="curve" smooth="yes"/>
      <point x="368" y="516"/>
      <point x="424" y="479"/>
      <point x="410" y="374" type="curve" smooth="yes"/>
      <point x="361" y="0" type="line"/>
    </contour>
    <contour>
      <point x="414" y="732" type="line"/>
      <point x="408" y="687"/>
      <point x="383" y="680"/>
      <point x="360" y="680" type="curve" smooth="yes"/>
      <point x="313" y="680"/>
      <point x="277" y="738"/>
      <point x="225" y="738" type="curve" smooth="yes"/>
      <point x="195" y="738"/>
      <point x="160" y="723"/>
      <point x="153" y="668" type="curve"/>
      <point x="171" y="668" type="line"/>
      <point x="177" y="713"/>
      <point x="202" y="720"/>
      <point x="225" y="720" type="curve" smooth="yes"/>
      <point x="272" y="720"/>
      <point x="308" y="662"/>
      <point x="360" y="662" type="curve" smooth="yes"/>
      <point x="390" y="662"/>
      <point x="425" y="677"/>
      <point x="432" y="732" type="curve"/>
    </contour>
  </outline>
</glyph>
<glyph name="oacute" format="1">
  <advance width="526"/>
  <unicode hex="00F3"/>
  <outline>
    <contour>
      <point x="220" y="-6" type="curve" smooth="yes"/>
      <point x="354" y="-6"/>
      <point x="436" y="91"/>
      <point x="456" y="253" type="curve" smooth="yes"/>
      <point x="459" y="277" type="line" smooth="yes"/>
      <point x="479" y="439"/>
      <point x="412" y="536"/>
      <point x="278" y="536" type="curve" smooth="yes"/>
      <point x="144" y="536"/>
      <point x="62" y="439"/>
      <point x="42" y="277" type="curve" smooth="yes"/>
      <point x="39" y="253" type="line" smooth="yes"/>
      <point x="19" y="91"/>
      <point x="86" y="-6"/>
    </contour>
    <contour>
      <point x="220" y="14" type="curve" smooth="yes"/>
      <point x="98" y="14"/>
      <point x="40" y="105"/>
      <point x="59" y="253" type="curve" smooth="yes"/>
      <point x="62" y="277" type="line" smooth="yes"/>
      <point x="81" y="425"/>
      <point x="156" y="516"/>
      <point x="278" y="516" type="curve" smooth="yes"/>
      <point x="400" y="516"/>
      <point x="458" y="425"/>
      <point x="439" y="277" type="curve" smooth="yes"/>
      <point x="436" y="253" type="line" smooth="yes"/>
      <point x="417" y="105"/>
      <point x="342" y="14"/>
    </contour>
    <contour>
      <point x="395" y="780" type="line"/>
      <point x="284" y="620" type="line"/>
      <point x="306" y="620" type="line"/>
      <point x="417" y="780" type="line"/>
    </contour>
  </outline>
</glyph>
<glyph name="otilde" format="1">
  <advance width="526"/>
  <unicode hex="00F5"/>
  <outline>
    <contour>
      <point x="220" y="-6" type="curve" smooth="yes"/>
      <point x="354" y="-6"/>
      <point x="436" y="91"/>
      <point x="456" y="253" type="curve" smooth="yes"/>
      <point x="459" y="277" type="line" smooth="yes"/>
      <point x="479" y="439"/>
      <point x="412" y="536"/>
      <point x="278" y="536" type="curve" smooth="yes"/>
      <point x="144" y="536"/>
      <point x="62" y="439"/>
      <point x="42" y="277" type="curve" smooth="yes"/>
      <point x="39" y="253" type="line" smooth="yes"/>
      <point x="19" y="91"/>
      <point x="86" y="-6"/>
    </contour>
    <contour>
      <point x="220" y="14" type="curve" smooth="yes"/>
      <point x="98" y="14"/>
      <point x="40" y="105"/>
      <point x="59" y="253" type="curve" smooth="yes"/>
      <point x="62" y="277" type="line" smooth="yes"/>
      <point x="81" y="425"/>
      <point x="156" y="516"/>
      <point x="278" y="516" type="curve" smooth="yes"/>
      <point x="400" y="516"/>
      <point x="458" y="425"/>
      <point x="439" y="277" type="curve" smooth="yes"/>
      <point x="436" y="253" type="line" smooth="yes"/>
      <point x="417" y="105"/>
      <point x="342" y="14"/>
    </contour>
    <contour>
      <point x="427" y="732" type="line"/>
      <point x="421" y="687"/>
      <point x="396" y="680"/>
      <point x="373" y="680" type="curve" smooth="yes"/>
      <point x="326" y="680"/>
      <point x="290" y="738"/>
      <point x="238" y="738" type="curve" smooth="yes"/>
      <point x="208" y="738"/>
      <point x="173" y="723"/>
      <point x="166" y="668" type="curve"/>
      <point x="184" y="668" type="line"/>
      <point x="190" y="713"/>
      <point x="215" y="720"/>
      <point x="238" y="720" type="curve" smooth="yes"/>
      <point x="285" y="720"/>
      <point x="321" y="662"/>
      <point x="373" y="662" type="curve" smooth="yes"/>
      <point x="403" y="662"/>
      <point x="438" y="677"/>
      <point x="445" y="732" type="curve"/>
    </contour>
  </outline>
</glyph>
<glyph name="odieresis" format="1">
  <advance width="526"/>
  <unicode hex="00F6"/>
  <outline>
    <contour>
      <point x="220" y="-6" type="curve" smooth="yes"/>
      <point x="354" y="-6"/>
      <point x="436" y="91"/>
      <point x="456" y="253" type="curve" smooth="yes"/>
      <point x="459" y="277" type="line" smooth="yes"/>
      <point x="479" y="439"/>
      <point x="412" y="536"/>
      <point x="278" y="536" type="curve" smooth="yes"/>
      <point x="144" y="536"/>
      <point x="62" y="439"/>
      <point x="42" y="277" type="curve" smooth="yes"/>
      <point x="39" y="253" type="line" smooth="yes"/>
      <point x="19" y="91"/>
      <point x="86" y="-6"/>
    </contour>
    <contour>
      <point x="220" y="14" type="curve" smooth="yes"/>
      <point x="98" y="14"/>
      <point x="40" y="105"/>
      <point x="59" y="253" type="curve" smooth="yes"/>
      <point x="62" y="277" type="line" smooth="yes"/>
      <point x="81" y="425"/>
      <point x="156" y="516"/>
      <point x="278" y="516" type="curve" smooth="yes"/>
      <point x="400" y="516"/>
      <point x="458" y="425"/>
      <point x="439" y="277" type="curve" smooth="yes"/>
      <point x="436" y="253" type="line" smooth="yes"/>
      <point x="417" y="105"/>
      <point x="342" y="14"/>
    </contour>
    <contour>
      <point x="258" y="720" type="line"/>
      <point x="218" y="720" type="line"/>
      <point x="213" y="680" type="line"/>
      <point x="253" y="680" type="line"/>
    </contour>
    <contour>
      <point x="398" y="720" type="line"/>
      <point x="358" y="720" type="line"/>
      <point x="353" y="680" type="line"/>
      <point x="393" y="680" type="line"/>
    </contour>
  </outline>
</glyph>
<glyph name="divide" format="1">
  <advance width="600"/>
  <unicode hex="00F7"/>
  <outline>
    <contour>
      <point x="354" y="640" type="line"/>
      <point x="314" y="640" type="line"/>
      <point x="308" y="600" type="line"/>
      <point x="348" y="600" type="line"/>
    </contour>
    <contour>
      <point x="293" y="180" type="line"/>
      <point x="253" y="180" type="line"/>
      <point x="248" y="140" type="line"/>
      <point x="288" y="140" type="line"/>
    </contour>
    <contour>
      <point x="49" y="380" type="line"/>
      <point x="548" y="380" type="line"/>
      <point x="551" y="400" type="line"/>
      <point x="52" y="400" type="line"/>
    </contour>
  </outline>
</glyph>
<glyph name="oslash" format="1">
  <advance width="526"/>
  <unicode hex="00F8"/>
  <outline>
    <contour>
      <point x="59" y="253" type="curve" smooth="yes"/>
      <point x="62" y="277" type="line" smooth="yes"/>
      <point x="81" y="425"/>
      <point x="156" y="516"/>
      <point x="278" y="516" type="curve" smooth="yes"/>
      <point x="335" y="516"/>
      <point x="378" y="497"/>
      <point x="406" y="460" type="curve"/>
      <point x="81" y="86" type="line"/>
      <point x="58" y="127"/>
      <point x="50" y="184"/>
    </contour>
    <contour>
      <point x="31" y="0" type="line"/>
      <point x="78" y="54" type="line"/>
      <point x="110" y="15"/>
      <point x="158" y="-6"/>
      <point x="220" y="-6" type="curve" smooth="yes"/>
      <point x="354" y="-6"/>
      <point x="436" y="91"/>
      <point x="456" y="253" type="curve" smooth="yes"/>
      <point x="459" y="277" type="line" smooth="yes"/>
      <point x="469" y="354"/>
      <point x="459" y="416"/>
      <point x="431" y="460" type="curve"/>
      <point x="492" y="530" type="line"/>
      <point x="467" y="530" type="line"/>
      <point x="420" y="476" type="line"/>
      <point x="388" y="515"/>
      <point x="340" y="536"/>
      <point x="278" y="536" type="curve" smooth="yes"/>
      <point x="144" y="536"/>
      <point x="62" y="439"/>
      <point x="42" y="277" type="curve" smooth="yes"/>
      <point x="39" y="253" type="line" smooth="yes"/>
      <point x="29" y="176"/>
      <point x="39" y="114"/>
      <point x="67" y="70" type="curve"/>
      <point x="6" y="0" type="line"/>
    </contour>
    <contour>
      <point x="436" y="253" type="line" smooth="yes"/>
      <point x="417" y="105"/>
      <point x="342" y="14"/>
      <point x="220" y="14" type="curve" smooth="yes"/>
      <point x="163" y="14"/>
      <point x="120" y="33"/>
      <point x="92" y="70" type="curve"/>
      <point x="417" y="444" type="line"/>
      <point x="440" y="403"/>
      <point x="448" y="346"/>
      <point x="439" y="277" type="curve" smooth="yes"/>
    </contour>
  </outline>
</glyph>
<glyph name="ucircumflex" format="1">
  <advance width="490"/>
  <unicode hex="00FB"/>
  <outline>
    <contour>
      <point x="80" y="530" type="line"/>
      <point x="30" y="149" type="line" smooth="yes"/>
      <point x="16" y="40"/>
      <point x="78" y="-6"/>
      <point x="178" y="-6" type="curve" smooth="yes"/>
      <point x="276" y="-6"/>
      <point x="332" y="44"/>
      <point x="365" y="86" type="curve"/>
      <point x="360" y="0" type="line"/>
      <point x="376" y="0" type="line"/>
      <point x="386" y="118" type="line"/>
      <point x="440" y="530" type="line"/>
      <point x="420" y="530" type="line"/>
      <point x="365" y="111" type="line"/>
      <point x="332" y="68"/>
      <point x="274" y="14"/>
      <point x="178" y="14" type="curve" smooth="yes"/>
      <point x="93" y="14"/>
      <point x="37" y="51"/>
      <point x="51" y="156" type="curve" smooth="yes"/>
      <point x="100" y="530" type="line"/>
    </contour>
    <contour>
      <point x="407" y="620" type="line"/>
      <point x="303" y="780" type="line"/>
      <point x="283" y="780" type="line"/>
      <point x="137" y="620" type="line"/>
      <point x="163" y="620" type="line"/>
      <point x="292" y="762" type="line"/>
      <point x="383" y="620" type="line"/>
    </contour>
  </outline>
</glyph>
<glyph name="yacute" format="1">
  <advance width="460"/>
  <unicode hex="00FD"/>
  <outline>
    <contour>
      <point x="186" y="44" type="line"/>
      <point x="68" y="530" type="line"/>
      <point x="47" y="530" type="line"/>
      <point x="174" y="17" type="line"/>
      <point x="63" y="-200" type="line"/>
      <point x="85" y="-200" type="line"/>
      <point x="192" y="17" type="line"/>
      <point x="453" y="530" type="line"/>
      <point x="430" y="530" type="line"/>
    </contour>
    <contour>
      <point x="362" y="780" type="line"/>
      <point x="251" y="620" type="line"/>
      <point x="273" y="620" type="line"/>
      <point x="384" y="780" type="line"/>
    </contour>
  </outline>
</glyph>
<glyph name="thorn" format="1">
  <advance width="510"/>
  <unicode hex="00FE"/>
  <outline>
    <contour>
      <point x="125" y="800" type="line"/>
      <point x="-6" y="-200" type="line"/>
      <point x="14" y="-200" type="line"/>
      <point x="51" y="78" type="line"/>
      <point x="71" y="41"/>
      <point x="120" y="-6"/>
      <point x="207" y="-6" type="curve" smooth="yes"/>
      <point x="341" y="-6"/>
      <point x="418" y="91"/>
      <point x="438" y="253" type="curve" smooth="yes"/>
      <point x="441" y="277" type="line" smooth="yes"/>
      <point x="461" y="439"/>
      <point x="402" y="536"/>
      <point x="268" y="536" type="curve" smooth="yes"/>
      <point x="184" y="536"/>
      <point x="127" y="490"/>
      <point x="99" y="450" type="curve"/>
      <point x="145" y="800" type="line"/>
    </contour>
    <contour>
      <point x="95" y="419" type="line"/>
      <point x="132" y="471"/>
      <point x="187" y="516"/>
      <point x="268" y="516" type="curve" smooth="yes"/>
      <point x="390" y="516"/>
      <point x="440" y="425"/>
      <point x="421" y="277" type="curve" smooth="yes"/>
      <point x="418" y="253" type="line" smooth="yes"/>
      <point x="399" y="105"/>
      <point x="329" y="14"/>
      <point x="207" y="14" type="curve" smooth="yes"/>
      <point x="121" y="14"/>
      <point x="75" y="66"/>
      <point x="54" y="107" type="curve"/>
    </contour>
  </outline>
</glyph>
<glyph name="ydieresis" format="1">
  <advance width="460"/>
  <unicode hex="00FF"/>
  <outline>
    <contour>
      <point x="186" y="44" type="line"/>
      <point x="68" y="530" type="line"/>
      <point x="47" y="530" type="line"/>
      <point x="174" y="17" type="line"/>
      <point x="63" y="-200" type="line"/>
      <point x="85" y="-200" type="line"/>
      <point x="192" y="17" type="line"/>
      <point x="453" y="530" type="line"/>
      <point x="430" y="530" type="line"/>
    </contour>
    <contour>
      <point x="225" y="720" type="line"/>
      <point x="185" y="720" type="line"/>
      <point x="180" y="680" type="line"/>
      <point x="220" y="680" type="line"/>
    </contour>
    <contour>
      <point x="365" y="720" type="line"/>
      <point x="325" y="720" type="line"/>
      <point x="320" y="680" type="line"/>
      <point x="360" y="680" type="line"/>
    </contour>
  </outline>
</glyph>
<glyph name="Abreve" format="1">
  <advance width="590"/>
  <unicode hex="0102"/>
  <outline>
    <contour>
      <point x="340" y="790" type="line"/>
      <point x="-14" y="0" type="line"/>
      <point x="8" y="0" type="line"/>
      <point x="110" y="230" type="line"/>
      <point x="444" y="230" type="line"/>
      <point x="486" y="0" type="line"/>
      <point x="506" y="0" type="line"/>
      <point x="360" y="790" type="line"/>
    </contour>
    <contour>
      <point x="347" y="760" type="line"/>
      <point x="440" y="250" type="line"/>
      <point x="119" y="250" type="line"/>
    </contour>
    <contour>
      <point x="355" y="852" type="curve" smooth="yes"/>
      <point x="283" y="852"/>
      <point x="250" y="890"/>
      <point x="258" y="950" type="curve"/>
      <point x="241" y="950" type="line"/>
      <point x="231" y="880"/>
      <point x="272" y="834"/>
      <point x="356" y="834" type="curve" smooth="yes"/>
      <point x="439" y="834"/>
      <point x="491" y="880"/>
      <point x="501" y="950" type="curve"/>
      <point x="482" y="950" type="line"/>
      <point x="474" y="890"/>
      <point x="426" y="852"/>
    </contour>
  </outline>
</glyph>
<glyph name="Aogonek" format="1">
  <advance width="590"/>
  <unicode hex="0104"/>
  <outline>
    <contour>
      <point x="347" y="760" type="line"/>
      <point x="440" y="250" type="line"/>
      <point x="119" y="250" type="line"/>
    </contour>
    <contour>
      <point x="521" y="-170" type="line"/>
      <point x="505" y="-178"/>
      <point x="480" y="-188"/>
      <point x="446" y="-188" type="curve" smooth="yes"/>
      <point x="411" y="-188"/>
      <point x="382" y="-173"/>
      <point x="382" y="-129" type="curve" smooth="yes"/>
      <point x="382" y="-48"/>
      <point x="456" y="-16"/>
      <point x="506" y="0" type="curve"/>
      <point x="360" y="790" type="line"/>
      <point x="340" y="790" type="line"/>
      <point x="-14" y="0" type="line"/>
      <point x="8" y="0" type="line"/>
      <point x="110" y="230" type="line"/>
      <point x="444" y="230" type="line"/>
      <point x="484" y="10" type="line"/>
      <point x="424" y="-10"/>
      <point x="364" y="-48"/>
      <point x="364" y="-129" type="curve" smooth="yes"/>
      <point x="364" y="-182"/>
      <point x="401" y="-206"/>
      <point x="446" y="-206" type="curve" smooth="yes"/>
      <point x="485" y="-206"/>
      <point x="506" y="-197"/>
      <point x="525" y="-187" type="curve"/>
    </contour>
  </outline>
</glyph>
<glyph name="Cdotaccent" format="1">
  <advance width="593"/>
  <unicode hex="010A"/>
  <outline>
    <contour>
      <point x="65" y="378" type="line" smooth="yes"/>
      <point x="31" y="108"/>
      <point x="100" y="-6"/>
      <point x="267" y="-6" type="curve" smooth="yes"/>
      <point x="421" y="-6"/>
      <point x="498" y="81"/>
      <point x="516" y="226" type="curve" smooth="yes"/>
      <point x="519" y="250" type="line"/>
      <point x="499" y="250" type="line"/>
      <point x="478" y="73"/>
      <point x="392" y="14"/>
      <point x="270" y="14" type="curve" smooth="yes"/>
      <point x="264" y="14" type="line" smooth="yes"/>
      <point x="113" y="14"/>
      <point x="53" y="118"/>
      <point x="86" y="378" type="curve" smooth="yes"/>
      <point x="89" y="402" type="line" smooth="yes"/>
      <point x="122" y="666"/>
      <point x="212" y="766"/>
      <point x="363" y="766" type="curve" smooth="yes"/>
      <point x="369" y="766" type="line" smooth="yes"/>
      <point x="506" y="766"/>
      <point x="559" y="705"/>
      <point x="531" y="500" type="curve"/>
      <point x="551" y="500" type="line"/>
      <point x="554" y="524" type="line" smooth="yes"/>
      <point x="578" y="714"/>
      <point x="517" y="786"/>
      <point x="366" y="786" type="curve" smooth="yes"/>
      <point x="201" y="786"/>
      <point x="103" y="680"/>
      <point x="68" y="402" type="curve" smooth="yes"/>
    </contour>
    <contour>
      <point x="406" y="915" type="line"/>
      <point x="366" y="915" type="line"/>
      <point x="361" y="875" type="line"/>
      <point x="401" y="875" type="line"/>
    </contour>
  </outline>
</glyph>
<glyph name="Dcaron" format="1">
  <advance width="615"/>
  <unicode hex="010E"/>
  <outline>
    <contour>
      <point x="558" y="402" type="line" smooth="yes"/>
      <point x="593" y="683"/>
      <point x="486" y="780"/>
      <point x="321" y="780" type="curve" smooth="yes"/>
      <point x="133" y="780" type="line"/>
      <point x="31" y="0" type="line"/>
      <point x="215" y="0" type="line" smooth="yes"/>
      <point x="380" y="0"/>
      <point x="520" y="98"/>
      <point x="555" y="378" type="curve" smooth="yes"/>
    </contour>
    <contour>
      <point x="54" y="20" type="line"/>
      <point x="151" y="760" type="line"/>
      <point x="321" y="760" type="line" smooth="yes"/>
      <point x="481" y="760"/>
      <point x="570" y="664"/>
      <point x="537" y="402" type="curve" smooth="yes"/>
      <point x="534" y="378" type="line" smooth="yes"/>
      <point x="501" y="115"/>
      <point x="375" y="20"/>
      <point x="215" y="20" type="curve" smooth="yes"/>
    </contour>
    <contour>
      <point x="431" y="950" type="line"/>
      <point x="332" y="855" type="line"/>
      <point x="259" y="950" type="line"/>
      <point x="236" y="950" type="line"/>
      <point x="321" y="840" type="line"/>
      <point x="341" y="840" type="line"/>
      <point x="456" y="950" type="line"/>
    </contour>
  </outline>
</glyph>
<glyph name="Emacron" format="1">
  <advance width="540"/>
  <unicode hex="0112"/>
  <outline>
    <contour>
      <point x="133" y="780" type="line"/>
      <point x="31" y="0" type="line"/>
      <point x="441" y="0" type="line"/>
      <point x="444" y="20" type="line"/>
      <point x="54" y="20" type="line"/>
      <point x="102" y="388" type="line"/>
      <point x="441" y="388" type="line"/>
      <point x="444" y="408" type="line"/>
      <point x="105" y="408" type="line"/>
      <point x="151" y="760" type="line"/>
      <point x="540" y="760" type="line"/>
      <point x="543" y="780" type="line"/>
    </contour>
    <contour>
      <point x="257" y="885" type="line"/>
      <point x="457" y="885" type="line"/>
      <point x="460" y="905" type="line"/>
      <point x="260" y="905" type="line"/>
    </contour>
  </outline>
</glyph>
<glyph name="Ebreve" format="1">
  <advance width="540"/>
  <unicode hex="0114"/>
  <outline>
    <contour>
      <point x="133" y="780" type="line"/>
      <point x="31" y="0" type="line"/>
      <point x="441" y="0" type="line"/>
      <point x="444" y="20" type="line"/>
      <point x="54" y="20" type="line"/>
      <point x="102" y="388" type="line"/>
      <point x="441" y="388" type="line"/>
      <point x="444" y="408" type="line"/>
      <point x="105" y="408" type="line"/>
      <point x="151" y="760" type="line"/>
      <point x="540" y="760" type="line"/>
      <point x="543" y="780" type="line"/>
    </contour>
    <contour>
      <point x="350" y="852" type="curve" smooth="yes"/>
      <point x="278" y="852"/>
      <point x="245" y="890"/>
      <point x="253" y="950" type="curve"/>
      <point x="236" y="950" type="line"/>
      <point x="226" y="880"/>
      <point x="267" y="834"/>
      <point x="351" y="834" type="curve" smooth="yes"/>
      <point x="434" y="834"/>
      <point x="486" y="880"/>
      <point x="496" y="950" type="curve"/>
      <point x="477" y="950" type="line"/>
      <point x="469" y="890"/>
      <point x="421" y="852"/>
    </contour>
  </outline>
</glyph>
<glyph name="Edotaccent" format="1">
  <advance width="540"/>
  <unicode hex="0116"/>
  <outline>
    <contour>
      <point x="133" y="780" type="line"/>
      <point x="31" y="0" type="line"/>
      <point x="441" y="0" type="line"/>
      <point x="444" y="20" type="line"/>
      <point x="54" y="20" type="line"/>
      <point x="102" y="388" type="line"/>
      <point x="441" y="388" type="line"/>
      <point x="444" y="408" type="line"/>
      <point x="105" y="408" type="line"/>
      <point x="151" y="760" type="line"/>
      <point x="540" y="760" type="line"/>
      <point x="543" y="780" type="line"/>
    </contour>
    <contour>
      <point x="381" y="915" type="line"/>
      <point x="341" y="915" type="line"/>
      <point x="336" y="875" type="line"/>
      <point x="376" y="875" type="line"/>
    </contour>
  </outline>
</glyph>
<glyph name="Eogonek" format="1">
  <advance width="540"/>
  <unicode hex="0118"/>
  <outline>
    <contour>
      <point x="456" y="-170" type="line"/>
      <point x="440" y="-178"/>
      <point x="415" y="-188"/>
      <point x="381" y="-188" type="curve" smooth="yes"/>
      <point x="346" y="-188"/>
      <point x="317" y="-173"/>
      <point x="317" y="-129" type="curve" smooth="yes"/>
      <point x="317" y="-48"/>
      <point x="391" y="-16"/>
      <point x="441" y="0" type="curve"/>
      <point x="444" y="20" type="line"/>
      <point x="54" y="20" type="line"/>
      <point x="102" y="388" type="line"/>
      <point x="441" y="388" type="line"/>
      <point x="444" y="408" type="line"/>
      <point x="105" y="408" type="line"/>
      <point x="151" y="760" type="line"/>
      <point x="540" y="760" type="line"/>
      <point x="543" y="780" type="line"/>
      <point x="133" y="780" type="line"/>
      <point x="31" y="0" type="line"/>
      <point x="393" y="0" type="line"/>
      <point x="343" y="-22"/>
      <point x="299" y="-60"/>
      <point x="299" y="-129" type="curve" smooth="yes"/>
      <point x="299" y="-182"/>
      <point x="336" y="-206"/>
      <point x="381" y="-206" type="curve" smooth="yes"/>
      <point x="420" y="-206"/>
      <point x="441" y="-197"/>
      <point x="460" y="-187" type="curve"/>
    </contour>
  </outline>
</glyph>
<glyph name="eogonek" format="1">
  <advance width="530"/>
  <unicode hex="0119"/>
  <outline>
    <contour>
      <point x="312" y="-170" type="line"/>
      <point x="296" y="-178"/>
      <point x="271" y="-188"/>
      <point x="237" y="-188" type="curve" smooth="yes"/>
      <point x="202" y="-188"/>
      <point x="173" y="-173"/>
      <point x="173" y="-129" type="curve" smooth="yes"/>
      <point x="173" y="-48"/>
      <point x="249" y="-9"/>
      <point x="297" y="0" type="curve" smooth="yes"/>
      <point x="398" y="19"/>
      <point x="438" y="90"/>
      <point x="446" y="154" type="curve" smooth="yes"/>
      <point x="448" y="170" type="line"/>
      <point x="428" y="170" type="line"/>
      <point x="420" y="87"/>
      <point x="371" y="14"/>
      <point x="233" y="14" type="curve" smooth="yes"/>
      <point x="111" y="14"/>
      <point x="40" y="105"/>
      <point x="59" y="255" type="curve"/>
      <point x="459" y="255" type="line"/>
      <point x="461" y="271" type="line" smooth="yes"/>
      <point x="480" y="424"/>
      <point x="438" y="536"/>
      <point x="282" y="536" type="curve" smooth="yes"/>
      <point x="148" y="536"/>
      <point x="62" y="439"/>
      <point x="42" y="277" type="curve" smooth="yes"/>
      <point x="39" y="253" type="line" smooth="yes"/>
      <point x="19" y="91"/>
      <point x="99" y="-6"/>
      <point x="233" y="-6" type="curve" smooth="yes"/>
      <point x="237" y="-6" type="line"/>
      <point x="192" y="-29"/>
      <point x="155" y="-66"/>
      <point x="155" y="-129" type="curve" smooth="yes"/>
      <point x="155" y="-182"/>
      <point x="192" y="-206"/>
      <point x="237" y="-206" type="curve" smooth="yes"/>
      <point x="276" y="-206"/>
      <point x="297" y="-197"/>
      <point x="316" y="-187" type="curve"/>
    </contour>
    <contour>
      <point x="282" y="516" type="curve" smooth="yes"/>
      <point x="416" y="516"/>
      <point x="460" y="416"/>
      <point x="442" y="275" type="curve"/>
      <point x="62" y="275" type="line"/>
      <point x="81" y="425"/>
      <point x="160" y="516"/>
    </contour>
  </outline>
</glyph>
<glyph name="Ecaron" format="1">
  <advance width="540"/>
  <unicode hex="011A"/>
  <outline>
    <contour>
      <point x="133" y="780" type="line"/>
      <point x="31" y="0" type="line"/>
      <point x="441" y="0" type="line"/>
      <point x="444" y="20" type="line"/>
      <point x="54" y="20" type="line"/>
      <point x="102" y="388" type="line"/>
      <point x="441" y="388" type="line"/>
      <point x="444" y="408" type="line"/>
      <point x="105" y="408" type="line"/>
      <point x="151" y="760" type="line"/>
      <point x="540" y="760" type="line"/>
      <point x="543" y="780" type="line"/>
    </contour>
    <contour>
      <point x="451" y="950" type="line"/>
      <point x="352" y="855" type="line"/>
      <point x="279" y="950" type="line"/>
      <point x="256" y="950" type="line"/>
      <point x="341" y="840" type="line"/>
      <point x="361" y="840" type="line"/>
      <point x="476" y="950" type="line"/>
    </contour>
  </outline>
</glyph>
<glyph name="Gdotaccent" format="1">
  <advance width="625"/>
  <unicode hex="0120"/>
  <outline>
    <contour>
      <point x="288" y="-6" type="curve" smooth="yes"/>
      <point x="404" y="-6"/>
      <point x="472" y="38"/>
      <point x="511" y="77" type="curve"/>
      <point x="548" y="362" type="line"/>
      <point x="369" y="362" type="line"/>
      <point x="366" y="342" type="line"/>
      <point x="526" y="342" type="line"/>
      <point x="492" y="86" type="line"/>
      <point x="460" y="54"/>
      <point x="388" y="14"/>
      <point x="291" y="14" type="curve" smooth="yes"/>
      <point x="285" y="14" type="line" smooth="yes"/>
      <point x="127" y="14"/>
      <point x="53" y="118"/>
      <point x="86" y="378" type="curve" smooth="yes"/>
      <point x="89" y="402" type="line" smooth="yes"/>
      <point x="122" y="666"/>
      <point x="221" y="766"/>
      <point x="367" y="766" type="curve" smooth="yes"/>
      <point x="373" y="766" type="line" smooth="yes"/>
      <point x="516" y="766"/>
      <point x="572" y="695"/>
      <point x="546" y="500" type="curve"/>
      <point x="566" y="500" type="line"/>
      <point x="569" y="524" type="line" smooth="yes"/>
      <point x="591" y="698"/>
      <point x="535" y="786"/>
      <point x="370" y="786" type="curve" smooth="yes"/>
      <point x="205" y="786"/>
      <point x="103" y="680"/>
      <point x="68" y="402" type="curve" smooth="yes"/>
      <point x="65" y="378" type="line" smooth="yes"/>
      <point x="31" y="108"/>
      <point x="111" y="-6"/>
    </contour>
    <contour>
      <point x="416" y="915" type="line"/>
      <point x="376" y="915" type="line"/>
      <point x="371" y="875" type="line"/>
      <point x="411" y="875" type="line"/>
    </contour>
  </outline>
</glyph>
<glyph name="gdotaccent" format="1">
  <advance width="510"/>
  <unicode hex="0121"/>
  <outline>
    <contour>
      <point x="180" y="-206" type="curve" smooth="yes"/>
      <point x="313" y="-206"/>
      <point x="374" y="-127"/>
      <point x="389" y="-13" type="curve" smooth="yes"/>
      <point x="444" y="408" type="line"/>
      <point x="465" y="530" type="line"/>
      <point x="450" y="530" type="line"/>
      <point x="432" y="447" type="line"/>
      <point x="410" y="489"/>
      <point x="358" y="536"/>
      <point x="271" y="536" type="curve" smooth="yes"/>
      <point x="147" y="536"/>
      <point x="64" y="459"/>
      <point x="44" y="297" type="curve" smooth="yes"/>
      <point x="41" y="273" type="line" smooth="yes"/>
      <point x="21" y="111"/>
      <point x="95" y="34"/>
      <point x="219" y="34" type="curve" smooth="yes"/>
      <point x="303" y="34"/>
      <point x="358" y="80"/>
      <point x="386" y="120" type="curve"/>
      <point x="371" y="0" type="line" smooth="yes"/>
      <point x="357" y="-115"/>
      <point x="303" y="-186"/>
      <point x="180" y="-186" type="curve" smooth="yes"/>
      <point x="50" y="-186"/>
      <point x="7" y="-124"/>
      <point x="26" y="0" type="curve"/>
      <point x="6" y="0" type="line"/>
      <point x="4" y="-16" type="line" smooth="yes"/>
      <point x="-11" y="-133"/>
      <point x="40" y="-206"/>
    </contour>
    <contour>
      <point x="390" y="151" type="line"/>
      <point x="353" y="99"/>
      <point x="300" y="54"/>
      <point x="219" y="54" type="curve" smooth="yes"/>
      <point x="107" y="54"/>
      <point x="42" y="125"/>
      <point x="61" y="273" type="curve" smooth="yes"/>
      <point x="64" y="297" type="line" smooth="yes"/>
      <point x="83" y="445"/>
      <point x="159" y="516"/>
      <point x="271" y="516" type="curve" smooth="yes"/>
      <point x="357" y="516"/>
      <point x="405" y="464"/>
      <point x="426" y="423" type="curve"/>
    </contour>
    <contour>
      <point x="322" y="720" type="line"/>
      <point x="282" y="720" type="line"/>
      <point x="277" y="680" type="line"/>
      <point x="317" y="680" type="line"/>
    </contour>
  </outline>
</glyph>
<glyph name="Hcircumflex" format="1">
  <advance width="620"/>
  <unicode hex="0124"/>
  <outline>
    <contour>
      <point x="573" y="780" type="line"/>
      <point x="524" y="408" type="line"/>
      <point x="104" y="408" type="line"/>
      <point x="153" y="780" type="line"/>
      <point x="133" y="780" type="line"/>
      <point x="31" y="0" type="line"/>
      <point x="51" y="0" type="line"/>
      <point x="102" y="388" type="line"/>
      <point x="522" y="388" type="line"/>
      <point x="471" y="0" type="line"/>
      <point x="491" y="0" type="line"/>
      <point x="593" y="780" type="line"/>
    </contour>
    <contour>
      <point x="286" y="840" type="line"/>
      <point x="385" y="935" type="line"/>
      <point x="458" y="840" type="line"/>
      <point x="481" y="840" type="line"/>
      <point x="396" y="950" type="line"/>
      <point x="376" y="950" type="line"/>
      <point x="261" y="840" type="line"/>
    </contour>
  </outline>
</glyph>
<glyph name="hcircumflex" format="1">
  <advance width="490"/>
  <unicode hex="0125"/>
  <outline>
    <contour>
      <point x="21" y="0" type="line"/>
      <point x="41" y="0" type="line"/>
      <point x="96" y="419" type="line"/>
      <point x="129" y="462"/>
      <point x="187" y="516"/>
      <point x="283" y="516" type="curve" smooth="yes"/>
      <point x="368" y="516"/>
      <point x="424" y="479"/>
      <point x="410" y="374" type="curve" smooth="yes"/>
      <point x="361" y="0" type="line"/>
      <point x="381" y="0" type="line"/>
      <point x="431" y="381" type="line" smooth="yes"/>
      <point x="445" y="490"/>
      <point x="383" y="536"/>
      <point x="283" y="536" type="curve" smooth="yes"/>
      <point x="189" y="536"/>
      <point x="133" y="490"/>
      <point x="100" y="449" type="curve"/>
      <point x="146" y="800" type="line"/>
      <point x="126" y="800" type="line"/>
    </contour>
    <contour>
      <point x="56" y="840" type="line"/>
      <point x="155" y="935" type="line"/>
      <point x="228" y="840" type="line"/>
      <point x="251" y="840" type="line"/>
      <point x="166" y="950" type="line"/>
      <point x="146" y="950" type="line"/>
      <point x="31" y="840" type="line"/>
    </contour>
  </outline>
</glyph>
<glyph name="Hbar" format="1">
  <advance width="620"/>
  <unicode hex="0126"/>
  <outline>
    <contour>
      <point x="573" y="780" type="line"/>
      <point x="550" y="604" type="line"/>
      <point x="130" y="604" type="line"/>
      <point x="153" y="780" type="line"/>
      <point x="133" y="780" type="line"/>
      <point x="31" y="0" type="line"/>
      <point x="51" y="0" type="line"/>
      <point x="102" y="388" type="line"/>
      <point x="522" y="388" type="line"/>
      <point x="471" y="0" type="line"/>
      <point x="491" y="0" type="line"/>
      <point x="593" y="780" type="line"/>
    </contour>
    <contour>
      <point x="104" y="408" type="line"/>
      <point x="127" y="584" type="line"/>
      <point x="547" y="584" type="line"/>
      <point x="524" y="408" type="line"/>
    </contour>
  </outline>
</glyph>
<glyph name="hbar" format="1">
  <advance width="490"/>
  <unicode hex="0127"/>
  <outline>
    <contour>
      <point x="2" y="655" type="line"/>
      <point x="107" y="655" type="line"/>
      <point x="21" y="0" type="line"/>
      <point x="41" y="0" type="line"/>
      <point x="96" y="419" type="line"/>
      <point x="129" y="462"/>
      <point x="187" y="516"/>
      <point x="283" y="516" type="curve" smooth="yes"/>
      <point x="368" y="516"/>
      <point x="424" y="479"/>
      <point x="410" y="374" type="curve" smooth="yes"/>
      <point x="361" y="0" type="line"/>
      <point x="381" y="0" type="line"/>
      <point x="431" y="381" type="line" smooth="yes"/>
      <point x="445" y="490"/>
      <point x="383" y="536"/>
      <point x="283" y="536" type="curve" smooth="yes"/>
      <point x="189" y="536"/>
      <point x="133" y="490"/>
      <point x="100" y="449" type="curve"/>
      <point x="127" y="655" type="line"/>
      <point x="292" y="655" type="line"/>
      <point x="295" y="675" type="line"/>
      <point x="130" y="675" type="line"/>
      <point x="146" y="800" type="line"/>
      <point x="126" y="800" type="line"/>
      <point x="110" y="675" type="line"/>
      <point x="5" y="675" type="line"/>
    </contour>
  </outline>
</glyph>
<glyph name="Itilde" format="1">
  <advance width="190"/>
  <unicode hex="0128"/>
  <outline>
    <contour>
      <point x="158" y="780" type="line"/>
      <point x="138" y="780" type="line"/>
      <point x="36" y="0" type="line"/>
      <point x="56" y="0" type="line"/>
    </contour>
    <contour>
      <point x="285" y="927" type="line"/>
      <point x="279" y="882"/>
      <point x="254" y="875"/>
      <point x="231" y="875" type="curve" smooth="yes"/>
      <point x="184" y="875"/>
      <point x="148" y="933"/>
      <point x="96" y="933" type="curve" smooth="yes"/>
      <point x="66" y="933"/>
      <point x="31" y="918"/>
      <point x="24" y="863" type="curve"/>
      <point x="42" y="863" type="line"/>
      <point x="48" y="908"/>
      <point x="73" y="915"/>
      <point x="96" y="915" type="curve" smooth="yes"/>
      <point x="143" y="915"/>
      <point x="179" y="857"/>
      <point x="231" y="857" type="curve" smooth="yes"/>
      <point x="261" y="857"/>
      <point x="296" y="872"/>
      <point x="303" y="927" type="curve"/>
    </contour>
  </outline>
</glyph>
<glyph name="itilde" format="1">
  <advance width="180"/>
  <unicode hex="0129"/>
  <outline>
    <contour>
      <point x="31" y="0" type="line"/>
      <point x="51" y="0" type="line"/>
      <point x="120" y="530" type="line"/>
      <point x="100" y="530" type="line"/>
    </contour>
    <contour>
      <point x="254" y="732" type="line"/>
      <point x="248" y="687"/>
      <point x="223" y="680"/>
      <point x="200" y="680" type="curve" smooth="yes"/>
      <point x="153" y="680"/>
      <point x="117" y="738"/>
      <point x="65" y="738" type="curve" smooth="yes"/>
      <point x="35" y="738"/>
      <point x="0" y="723"/>
      <point x="-7" y="668" type="curve"/>
      <point x="11" y="668" type="line"/>
      <point x="17" y="713"/>
      <point x="42" y="720"/>
      <point x="65" y="720" type="curve" smooth="yes"/>
      <point x="112" y="720"/>
      <point x="148" y="662"/>
      <point x="200" y="662" type="curve" smooth="yes"/>
      <point x="230" y="662"/>
      <point x="265" y="677"/>
      <point x="272" y="732" type="curve"/>
    </contour>
  </outline>
</glyph>
<glyph name="Imacron" format="1">
  <advance width="190"/>
  <unicode hex="012A"/>
  <outline>
    <contour>
      <point x="158" y="780" type="line"/>
      <point x="138" y="780" type="line"/>
      <point x="36" y="0" type="line"/>
      <point x="56" y="0" type="line"/>
    </contour>
    <contour>
      <point x="62" y="885" type="line"/>
      <point x="262" y="885" type="line"/>
      <point x="265" y="905" type="line"/>
      <point x="65" y="905" type="line"/>
    </contour>
  </outline>
</glyph>
<glyph name="imacron" format="1">
  <advance width="180"/>
  <unicode hex="012B"/>
  <outline>
    <contour>
      <point x="31" y="0" type="line"/>
      <point x="51" y="0" type="line"/>
      <point x="120" y="530" type="line"/>
      <point x="100" y="530" type="line"/>
    </contour>
    <contour>
      <point x="31" y="690" type="line"/>
      <point x="231" y="690" type="line"/>
      <point x="234" y="710" type="line"/>
      <point x="34" y="710" type="line"/>
    </contour>
  </outline>
</glyph>
<glyph name="Ibreve" format="1">
  <advance width="190"/>
  <unicode hex="012C"/>
  <outline>
    <contour>
      <point x="158" y="780" type="line"/>
      <point x="138" y="780" type="line"/>
      <point x="36" y="0" type="line"/>
      <point x="56" y="0" type="line"/>
    </contour>
    <contour>
      <point x="155" y="852" type="curve" smooth="yes"/>
      <point x="83" y="852"/>
      <point x="50" y="890"/>
      <point x="58" y="950" type="curve"/>
      <point x="41" y="950" type="line"/>
      <point x="31" y="880"/>
      <point x="72" y="834"/>
      <point x="156" y="834" type="curve" smooth="yes"/>
      <point x="239" y="834"/>
      <point x="291" y="880"/>
      <point x="301" y="950" type="curve"/>
      <point x="282" y="950" type="line"/>
      <point x="274" y="890"/>
      <point x="226" y="852"/>
    </contour>
  </outline>
</glyph>
<glyph name="ibreve" format="1">
  <advance width="180"/>
  <unicode hex="012D"/>
  <outline>
    <contour>
      <point x="31" y="0" type="line"/>
      <point x="51" y="0" type="line"/>
      <point x="120" y="530" type="line"/>
      <point x="100" y="530" type="line"/>
    </contour>
    <contour>
      <point x="122" y="614" type="curve" smooth="yes"/>
      <point x="225" y="614"/>
      <point x="281" y="690"/>
      <point x="293" y="780" type="curve"/>
      <point x="274" y="780" type="line"/>
      <point x="264" y="700"/>
      <point x="215" y="632"/>
      <point x="122" y="632" type="curve" smooth="yes"/>
      <point x="30" y="632"/>
      <point x="0" y="700"/>
      <point x="10" y="780" type="curve"/>
      <point x="-7" y="780" type="line"/>
      <point x="-19" y="690"/>
      <point x="20" y="614"/>
    </contour>
  </outline>
</glyph>
<glyph name="Iogonek" format="1">
  <advance width="190"/>
  <unicode hex="012E"/>
  <outline>
    <contour>
      <point x="71" y="-170" type="line"/>
      <point x="55" y="-178"/>
      <point x="30" y="-188"/>
      <point x="-4" y="-188" type="curve" smooth="yes"/>
      <point x="-39" y="-188"/>
      <point x="-68" y="-173"/>
      <point x="-68" y="-129" type="curve" smooth="yes"/>
      <point x="-68" y="-48"/>
      <point x="6" y="-16"/>
      <point x="56" y="0" type="curve"/>
      <point x="158" y="780" type="line"/>
      <point x="138" y="780" type="line"/>
      <point x="37" y="11" type="line"/>
      <point x="-23" y="-9"/>
      <point x="-86" y="-47"/>
      <point x="-86" y="-129" type="curve" smooth="yes"/>
      <point x="-86" y="-182"/>
      <point x="-49" y="-206"/>
      <point x="-4" y="-206" type="curve" smooth="yes"/>
      <point x="35" y="-206"/>
      <point x="56" y="-197"/>
      <point x="75" y="-187" type="curve"/>
    </contour>
  </outline>
</glyph>
<glyph name="iogonek" format="1">
  <advance width="180"/>
  <unicode hex="012F"/>
  <outline>
    <contour>
      <point x="155" y="720" type="line"/>
      <point x="115" y="720" type="line"/>
      <point x="110" y="680" type="line"/>
      <point x="150" y="680" type="line"/>
    </contour>
    <contour>
      <point x="66" y="-170" type="line"/>
      <point x="50" y="-178"/>
      <point x="25" y="-188"/>
      <point x="-9" y="-188" type="curve" smooth="yes"/>
      <point x="-44" y="-188"/>
      <point x="-73" y="-173"/>
      <point x="-73" y="-129" type="curve" smooth="yes"/>
      <point x="-73" y="-48"/>
      <point x="1" y="-16"/>
      <point x="51" y="0" type="curve"/>
      <point x="120" y="530" type="line"/>
      <point x="100" y="530" type="line"/>
      <point x="32" y="11" type="line"/>
      <point x="-28" y="-9"/>
      <point x="-91" y="-47"/>
      <point x="-91" y="-129" type="curve" smooth="yes"/>
      <point x="-91" y="-182"/>
      <point x="-54" y="-206"/>
      <point x="-9" y="-206" type="curve" smooth="yes"/>
      <point x="30" y="-206"/>
      <point x="51" y="-197"/>
      <point x="70" y="-187" type="curve"/>
    </contour>
  </outline>
</glyph>
<glyph name="Idotaccent" format="1">
  <advance width="190"/>
  <unicode hex="0130"/>
  <outline>
    <contour>
      <point x="158" y="780" type="line"/>
      <point x="138" y="780" type="line"/>
      <point x="36" y="0" type="line"/>
      <point x="56" y="0" type="line"/>
    </contour>
    <contour>
      <point x="186" y="915" type="line"/>
      <point x="146" y="915" type="line"/>
      <point x="141" y="875" type="line"/>
      <point x="181" y="875" type="line"/>
    </contour>
  </outline>
</glyph>
<glyph name="IJ" format="1">
  <advance width="450"/>
  <unicode hex="0132"/>
  <outline>
    <contour>
      <point x="158" y="780" type="line"/>
      <point x="138" y="780" type="line"/>
      <point x="36" y="0" type="line"/>
      <point x="56" y="0" type="line"/>
    </contour>
    <contour>
      <point x="322" y="142" type="line" smooth="yes"/>
      <point x="309" y="40"/>
      <point x="258" y="14"/>
      <point x="191" y="14" type="curve" smooth="yes"/>
      <point x="166" y="14"/>
      <point x="140" y="20"/>
      <point x="132" y="24" type="curve"/>
      <point x="130" y="4" type="line"/>
      <point x="134" y="2"/>
      <point x="155" y="-6"/>
      <point x="192" y="-6" type="curve" smooth="yes"/>
      <point x="261" y="-6"/>
      <point x="326" y="24"/>
      <point x="341" y="136" type="curve" smooth="yes"/>
      <point x="426" y="780" type="line"/>
      <point x="406" y="780" type="line"/>
    </contour>
  </outline>
</glyph>
<glyph name="ij" format="1">
  <advance width="320"/>
  <unicode hex="0133"/>
  <outline>
    <contour>
      <point x="31" y="0" type="line"/>
      <point x="51" y="0" type="line"/>
      <point x="120" y="530" type="line"/>
      <point x="100" y="530" type="line"/>
    </contour>
    <contour>
      <point x="155" y="720" type="line"/>
      <point x="115" y="720" type="line"/>
      <point x="110" y="680" type="line"/>
      <point x="150" y="680" type="line"/>
    </contour>
    <contour>
      <point x="163" y="-63" type="line" smooth="yes"/>
      <point x="150" y="-162"/>
      <point x="99" y="-186"/>
      <point x="32" y="-186" type="curve" smooth="yes"/>
      <point x="7" y="-186"/>
      <point x="-19" y="-180"/>
      <point x="-27" y="-176" type="curve"/>
      <point x="-29" y="-196" type="line"/>
      <point x="-25" y="-198"/>
      <point x="-4" y="-206"/>
      <point x="33" y="-206" type="curve" smooth="yes"/>
      <point x="102" y="-206"/>
      <point x="168" y="-177"/>
      <point x="182" y="-69" type="curve" smooth="yes"/>
      <point x="260" y="530" type="line"/>
      <point x="240" y="530" type="line"/>
    </contour>
    <contour>
      <point x="295" y="720" type="line"/>
      <point x="255" y="720" type="line"/>
      <point x="250" y="680" type="line"/>
      <point x="290" y="680" type="line"/>
    </contour>
  </outline>
</glyph>
<glyph name="Jcircumflex" format="1">
  <advance width="470"/>
  <unicode hex="0134"/>
  <outline>
    <contour>
      <point x="426" y="780" type="line"/>
      <point x="356" y="245" type="line" smooth="yes"/>
      <point x="336" y="89"/>
      <point x="289" y="14"/>
      <point x="167" y="14" type="curve" smooth="yes"/>
      <point x="46" y="14"/>
      <point x="12" y="95"/>
      <point x="36" y="247" type="curve"/>
      <point x="16" y="247" type="line"/>
      <point x="13" y="223" type="line" smooth="yes"/>
      <point x="-4" y="88"/>
      <point x="32" y="-6"/>
      <point x="167" y="-6" type="curve" smooth="yes"/>
      <point x="302" y="-6"/>
      <point x="355" y="84"/>
      <point x="373" y="223" type="curve" smooth="yes"/>
      <point x="446" y="780" type="line"/>
    </contour>
    <contour>
      <point x="359" y="840" type="line"/>
      <point x="458" y="935" type="line"/>
      <point x="531" y="840" type="line"/>
      <point x="554" y="840" type="line"/>
      <point x="469" y="950" type="line"/>
      <point x="449" y="950" type="line"/>
      <point x="334" y="840" type="line"/>
    </contour>
  </outline>
</glyph>
<glyph name="Kcommaaccent" format="1">
  <advance width="518"/>
  <unicode hex="0136"/>
  <outline>
    <contour>
      <point x="221" y="-70" type="line"/>
      <point x="181" y="-70" type="line"/>
      <point x="176" y="-110" type="line"/>
      <point x="196" y="-110" type="line"/>
      <point x="186" y="-176"/>
      <point x="150" y="-186"/>
      <point x="125" y="-186" type="curve"/>
      <point x="123" y="-206" type="line"/>
      <point x="165" y="-206"/>
      <point x="207" y="-178"/>
      <point x="217" y="-102" type="curve" smooth="yes"/>
    </contour>
    <contour>
      <point x="153" y="780" type="line"/>
      <point x="133" y="780" type="line"/>
      <point x="31" y="0" type="line"/>
      <point x="51" y="0" type="line"/>
      <point x="83" y="245" type="line"/>
      <point x="234" y="424" type="line"/>
      <point x="408" y="0" type="line"/>
      <point x="431" y="0" type="line"/>
      <point x="248" y="441" type="line"/>
      <point x="533" y="780" type="line"/>
      <point x="505" y="780" type="line"/>
      <point x="87" y="279" type="line"/>
    </contour>
  </outline>
</glyph>
<glyph name="kcommaaccent" format="1">
  <advance width="458"/>
  <unicode hex="0137"/>
  <outline>
    <contour>
      <point x="151" y="800" type="line"/>
      <point x="131" y="800" type="line"/>
      <point x="26" y="0" type="line"/>
      <point x="46" y="0" type="line"/>
      <point x="68" y="171" type="line"/>
      <point x="218" y="314" type="line"/>
      <point x="353" y="0" type="line"/>
      <point x="376" y="0" type="line"/>
      <point x="234" y="329" type="line"/>
      <point x="445" y="530" type="line"/>
      <point x="417" y="530" type="line"/>
      <point x="72" y="201" type="line"/>
    </contour>
    <contour>
      <point x="201" y="-70" type="line"/>
      <point x="161" y="-70" type="line"/>
      <point x="156" y="-110" type="line"/>
      <point x="176" y="-110" type="line"/>
      <point x="166" y="-176"/>
      <point x="130" y="-186"/>
      <point x="105" y="-186" type="curve"/>
      <point x="103" y="-206" type="line"/>
      <point x="145" y="-206"/>
      <point x="187" y="-178"/>
      <point x="197" y="-102" type="curve" smooth="yes"/>
    </contour>
  </outline>
</glyph>
<glyph name="Lacute" format="1">
  <advance width="464"/>
  <unicode hex="0139"/>
  <outline>
    <contour>
      <point x="217" y="950" type="line"/>
      <point x="140" y="840" type="line"/>
      <point x="162" y="840" type="line"/>
      <point x="239" y="950" type="line"/>
    </contour>
    <contour>
      <point x="401" y="0" type="line"/>
      <point x="404" y="20" type="line"/>
      <point x="54" y="20" type="line"/>
      <point x="154" y="780" type="line"/>
      <point x="133" y="780" type="line"/>
      <point x="31" y="0" type="line"/>
    </contour>
  </outline>
</glyph>
<glyph name="lacute" format="1">
  <advance width="180"/>
  <unicode hex="013A"/>
  <outline>
    <contour>
      <point x="31" y="0" type="line"/>
      <point x="51" y="0" type="line"/>
      <point x="156" y="800" type="line"/>
      <point x="136" y="800" type="line"/>
    </contour>
    <contour>
      <point x="217" y="950" type="line"/>
      <point x="140" y="840" type="line"/>
      <point x="162" y="840" type="line"/>
      <point x="239" y="950" type="line"/>
    </contour>
  </outline>
</glyph>
<glyph name="Lcommaaccent" format="1">
  <advance width="464"/>
  <unicode hex="013B"/>
  <outline>
    <contour>
      <point x="401" y="0" type="line"/>
      <point x="404" y="20" type="line"/>
      <point x="54" y="20" type="line"/>
      <point x="154" y="780" type="line"/>
      <point x="133" y="780" type="line"/>
      <point x="31" y="0" type="line"/>
    </contour>
    <contour>
      <point x="226" y="-70" type="line"/>
      <point x="186" y="-70" type="line"/>
      <point x="181" y="-110" type="line"/>
      <point x="201" y="-110" type="line"/>
      <point x="191" y="-176"/>
      <point x="155" y="-186"/>
      <point x="130" y="-186" type="curve"/>
      <point x="128" y="-206" type="line"/>
      <point x="170" y="-206"/>
      <point x="212" y="-178"/>
      <point x="222" y="-102" type="curve" smooth="yes"/>
    </contour>
  </outline>
</glyph>
<glyph name="lcommaaccent" format="1">
  <advance width="180"/>
  <unicode hex="013C"/>
  <outline>
    <contour>
      <point x="31" y="0" type="line"/>
      <point x="51" y="0" type="line"/>
      <point x="156" y="800" type="line"/>
      <point x="136" y="800" type="line"/>
    </contour>
    <contour>
      <point x="51" y="-70" type="line"/>
      <point x="11" y="-70" type="line"/>
      <point x="6" y="-110" type="line"/>
      <point x="26" y="-110" type="line"/>
      <point x="16" y="-176"/>
      <point x="-20" y="-186"/>
      <point x="-45" y="-186" type="curve"/>
      <point x="-47" y="-206" type="line"/>
      <point x="-5" y="-206"/>
      <point x="37" y="-178"/>
      <point x="47" y="-102" type="curve" smooth="yes"/>
    </contour>
  </outline>
</glyph>
<glyph name="Lcaron" format="1">
  <advance width="464"/>
  <unicode hex="013D"/>
  <outline>
    <contour>
      <point x="401" y="0" type="line"/>
      <point x="404" y="20" type="line"/>
      <point x="54" y="20" type="line"/>
      <point x="154" y="780" type="line"/>
      <point x="133" y="780" type="line"/>
      <point x="31" y="0" type="line"/>
    </contour>
    <contour>
      <point x="353" y="780" type="line"/>
      <point x="332" y="620" type="line"/>
      <point x="342" y="620" type="line"/>
      <point x="373" y="780" type="line"/>
    </contour>
  </outline>
</glyph>
<glyph name="lcaron" format="1">
  <advance width="180"/>
  <unicode hex="013E"/>
  <outline>
    <contour>
      <point x="31" y="0" type="line"/>
      <point x="51" y="0" type="line"/>
      <point x="156" y="800" type="line"/>
      <point x="136" y="800" type="line"/>
    </contour>
    <contour>
      <point x="243" y="780" type="line"/>
      <point x="222" y="620" type="line"/>
      <point x="232" y="620" type="line"/>
      <point x="263" y="780" type="line"/>
    </contour>
  </outline>
</glyph>
<glyph name="Ldot" format="1">
  <advance width="464"/>
  <unicode hex="013F"/>
  <outline>
    <contour>
      <point x="401" y="0" type="line"/>
      <point x="404" y="20" type="line"/>
      <point x="54" y="20" type="line"/>
      <point x="154" y="780" type="line"/>
      <point x="133" y="780" type="line"/>
      <point x="31" y="0" type="line"/>
    </contour>
    <contour>
      <point x="347" y="418" type="line"/>
      <point x="307" y="418" type="line"/>
      <point x="302" y="378" type="line"/>
      <point x="342" y="378" type="line"/>
    </contour>
  </outline>
</glyph>
<glyph name="ldot" format="1">
  <advance width="280"/>
  <unicode hex="0140"/>
  <outline>
    <contour>
      <point x="31" y="0" type="line"/>
      <point x="51" y="0" type="line"/>
      <point x="156" y="800" type="line"/>
      <point x="136" y="800" type="line"/>
    </contour>
    <contour>
      <point x="248" y="360" type="line"/>
      <point x="208" y="360" type="line"/>
      <point x="203" y="320" type="line"/>
      <point x="243" y="320" type="line"/>
    </contour>
  </outline>
</glyph>
<glyph name="Lslash" format="1">
  <advance width="519"/>
  <unicode hex="0141"/>
  <outline>
    <contour>
      <point x="17" y="306" type="line"/>
      <point x="13" y="282" type="line"/>
      <point x="131" y="345" type="line"/>
      <point x="86" y="0" type="line"/>
      <point x="456" y="0" type="line"/>
      <point x="458" y="20" type="line"/>
      <point x="109" y="20" type="line"/>
      <point x="153" y="357" type="line"/>
      <point x="400" y="490" type="line"/>
      <point x="404" y="514" type="line"/>
      <point x="156" y="381" type="line"/>
      <point x="209" y="780" type="line"/>
      <point x="188" y="780" type="line"/>
      <point x="134" y="369" type="line"/>
    </contour>
  </outline>
</glyph>
<glyph name="lslash" format="1">
  <advance width="260"/>
  <unicode hex="0142"/>
  <outline>
    <contour>
      <point x="260" y="530" type="line"/>
      <point x="151" y="456" type="line"/>
      <point x="196" y="800" type="line"/>
      <point x="176" y="800" type="line"/>
      <point x="129" y="442" type="line"/>
      <point x="30" y="376" type="line"/>
      <point x="27" y="351" type="line"/>
      <point x="125" y="417" type="line"/>
      <point x="71" y="0" type="line"/>
      <point x="91" y="0" type="line"/>
      <point x="147" y="431" type="line"/>
      <point x="257" y="505" type="line"/>
    </contour>
  </outline>
</glyph>
<glyph name="nacute" format="1">
  <advance width="490"/>
  <unicode hex="0144"/>
  <outline>
    <contour>
      <point x="381" y="0" type="line"/>
      <point x="431" y="381" type="line" smooth="yes"/>
      <point x="445" y="490"/>
      <point x="383" y="536"/>
      <point x="283" y="536" type="curve" smooth="yes"/>
      <point x="185" y="536"/>
      <point x="129" y="486"/>
      <point x="96" y="444" type="curve"/>
      <point x="101" y="530" type="line"/>
      <point x="85" y="530" type="line"/>
      <point x="75" y="412" type="line"/>
      <point x="21" y="0" type="line"/>
      <point x="41" y="0" type="line"/>
      <point x="96" y="419" type="line"/>
      <point x="129" y="462"/>
      <point x="187" y="516"/>
      <point x="283" y="516" type="curve" smooth="yes"/>
      <point x="368" y="516"/>
      <point x="424" y="479"/>
      <point x="410" y="374" type="curve" smooth="yes"/>
      <point x="361" y="0" type="line"/>
    </contour>
    <contour>
      <point x="382" y="780" type="line"/>
      <point x="271" y="620" type="line"/>
      <point x="293" y="620" type="line"/>
      <point x="404" y="780" type="line"/>
    </contour>
  </outline>
</glyph>
<glyph name="Ncommaaccent" format="1">
  <advance width="640"/>
  <unicode hex="0145"/>
  <outline>
    <contour>
      <point x="496" y="32" type="line"/>
      <point x="155" y="780" type="line"/>
      <point x="133" y="780" type="line"/>
      <point x="31" y="0" type="line"/>
      <point x="51" y="0" type="line"/>
      <point x="130" y="605" type="line"/>
      <point x="148" y="748" type="line"/>
      <point x="489" y="0" type="line"/>
      <point x="511" y="0" type="line"/>
      <point x="613" y="780" type="line"/>
      <point x="593" y="780" type="line"/>
      <point x="514" y="175" type="line"/>
    </contour>
    <contour>
      <point x="281" y="-70" type="line"/>
      <point x="241" y="-70" type="line"/>
      <point x="236" y="-110" type="line"/>
      <point x="256" y="-110" type="line"/>
      <point x="246" y="-176"/>
      <point x="210" y="-186"/>
      <point x="185" y="-186" type="curve"/>
      <point x="183" y="-206" type="line"/>
      <point x="225" y="-206"/>
      <point x="267" y="-178"/>
      <point x="277" y="-102" type="curve" smooth="yes"/>
    </contour>
  </outline>
</glyph>
